Gupter-Bold.ufo
<glyph name="exclam" format="1">
  <advance width="232"/>
  <unicode hex="0021"/>
  <outline>
    <contour>
      <point x="60" y="625" type="line"/>
      <point x="60" y="510" type="line"/>
      <point x="90" y="200" type="line"/>
      <point x="144" y="200" type="line"/>
      <point x="175" y="510" type="line"/>
      <point x="175" y="625" type="line"/>
    </contour>
    <contour>
      <point x="66" y="132"/>
      <point x="42" y="103"/>
      <point x="42" y="56" type="curve" smooth="yes"/>
      <point x="42" y="7"/>
      <point x="66" y="-15"/>
      <point x="115" y="-15" type="curve" smooth="yes"/>
      <point x="167" y="-15"/>
      <point x="190" y="7"/>
      <point x="190" y="56" type="curve" smooth="yes"/>
      <point x="190" y="103"/>
      <point x="167" y="132"/>
      <point x="115" y="132" type="curve" smooth="yes"/>
    </contour>
  </outline>
</glyph>
<glyph name="numbersign" format="1">
  <advance width="478"/>
  <unicode hex="0023"/>
  <outline>
    <contour>
      <point x="348" y="625" type="line"/>
      <point x="206" y="0" type="line"/>
      <point x="280" y="0" type="line"/>
      <point x="422" y="625" type="line"/>
    </contour>
    <contour>
      <point x="32" y="247" type="line"/>
      <point x="32" y="191" type="line"/>
      <point x="394" y="191" type="line"/>
      <point x="394" y="247" type="line"/>
    </contour>
    <contour>
      <point x="191" y="625" type="line"/>
      <point x="49" y="0" type="line"/>
      <point x="123" y="0" type="line"/>
      <point x="266" y="625" type="line"/>
    </contour>
    <contour>
      <point x="84" y="474" type="line"/>
      <point x="84" y="418" type="line"/>
      <point x="445" y="418" type="line"/>
      <point x="445" y="474" type="line"/>
    </contour>
  </outline>
</glyph>
<glyph name="dollar" format="1">
  <advance width="449"/>
  <unicode hex="0024"/>
  <outline>
    <contour>
      <point x="155" y="638"/>
      <point x="43" y="598"/>
      <point x="43" y="471" type="curve" smooth="yes"/>
      <point x="43" y="342"/>
      <point x="121" y="306"/>
      <point x="196" y="270" type="curve" smooth="yes"/>
      <point x="266" y="236"/>
      <point x="331" y="216"/>
      <point x="331" y="134" type="curve" smooth="yes"/>
      <point x="331" y="68"/>
      <point x="280" y="35"/>
      <point x="226" y="35" type="curve" smooth="yes"/>
      <point x="144" y="35"/>
      <point x="97" y="91"/>
      <point x="76" y="196" type="curve"/>
      <point x="30" y="196" type="line"/>
      <point x="37" y="138"/>
      <point x="40" y="76"/>
      <point x="40" y="17" type="curve"/>
      <point x="95" y="-4"/>
      <point x="165" y="-13"/>
      <point x="224" y="-13" type="curve" smooth="yes"/>
      <point x="334" y="-13"/>
      <point x="425" y="52"/>
      <point x="425" y="165" type="curve" smooth="yes"/>
      <point x="425" y="294"/>
      <point x="350" y="330"/>
      <point x="275" y="365" type="curve" smooth="yes"/>
      <point x="206" y="397"/>
      <point x="135" y="419"/>
      <point x="135" y="501" type="curve" smooth="yes"/>
      <point x="135" y="558"/>
      <point x="180" y="592"/>
      <point x="246" y="592" type="curve" smooth="yes"/>
      <point x="314" y="592"/>
      <point x="362" y="530"/>
      <point x="362" y="450" type="curve"/>
      <point x="404" y="450" type="line"/>
      <point x="404" y="500"/>
      <point x="406" y="559"/>
      <point x="414" y="605" type="curve"/>
      <point x="372" y="626"/>
      <point x="308" y="638"/>
      <point x="251" y="638" type="curve" smooth="yes"/>
    </contour>
    <contour>
      <point x="210" y="714" type="line"/>
      <point x="210" y="-96" type="line"/>
      <point x="262" y="-96" type="line"/>
      <point x="262" y="714" type="line"/>
    </contour>
  </outline>
</glyph>
<glyph name="percent" format="1">
  <advance width="673"/>
  <unicode hex="0025"/>
  <outline>
    <contour>
      <point x="48" y="346"/>
      <point x="95" y="280"/>
      <point x="177" y="280" type="curve" smooth="yes"/>
      <point x="259" y="280"/>
      <point x="306" y="346"/>
      <point x="306" y="459" type="curve" smooth="yes"/>
      <point x="306" y="571"/>
      <point x="259" y="638"/>
      <point x="177" y="638" type="curve" smooth="yes"/>
      <point x="95" y="638"/>
      <point x="48" y="571"/>
      <point x="48" y="459" type="curve" smooth="yes"/>
    </contour>
    <contour>
      <point x="127" y="558"/>
      <point x="143" y="605"/>
      <point x="177" y="605" type="curve" smooth="yes"/>
      <point x="211" y="605"/>
      <point x="224" y="558"/>
      <point x="224" y="459" type="curve" smooth="yes"/>
      <point x="224" y="358"/>
      <point x="211" y="314"/>
      <point x="177" y="314" type="curve" smooth="yes"/>
      <point x="143" y="314"/>
      <point x="127" y="358"/>
      <point x="127" y="459" type="curve" smooth="yes"/>
    </contour>
    <contour>
      <point x="367" y="52"/>
      <point x="414" y="-15"/>
      <point x="497" y="-15" type="curve" smooth="yes"/>
      <point x="579" y="-15"/>
      <point x="626" y="52"/>
      <point x="626" y="165" type="curve" smooth="yes"/>
      <point x="626" y="278"/>
      <point x="579" y="344"/>
      <point x="497" y="344" type="curve" smooth="yes"/>
      <point x="414" y="344"/>
      <point x="367" y="278"/>
      <point x="367" y="165" type="curve" smooth="yes"/>
    </contour>
    <contour>
      <point x="447" y="264"/>
      <point x="461" y="311"/>
      <point x="497" y="311" type="curve" smooth="yes"/>
      <point x="530" y="311"/>
      <point x="543" y="264"/>
      <point x="543" y="165" type="curve" smooth="yes"/>
      <point x="543" y="63"/>
      <point x="530" y="19"/>
      <point x="497" y="19" type="curve" smooth="yes"/>
      <point x="461" y="19"/>
      <point x="447" y="63"/>
      <point x="447" y="165" type="curve" smooth="yes"/>
    </contour>
    <component base="fraction" xOffset="224"/>
  </outline>
</glyph>
<glyph name="ampersand" format="1">
  <advance width="708"/>
  <unicode hex="0026"/>
  <outline>
    <contour>
      <point x="186" y="638"/>
      <point x="135" y="566"/>
      <point x="135" y="482" type="curve" smooth="yes"/>
      <point x="135" y="434"/>
      <point x="147" y="377"/>
      <point x="170" y="314" type="curve" smooth="yes"/>
      <point x="236" y="126"/>
      <point x="383" y="-13"/>
      <point x="515" y="-13" type="curve" smooth="yes"/>
      <point x="575" y="-13"/>
      <point x="634" y="11"/>
      <point x="666" y="97" type="curve"/>
      <point x="666" y="97"/>
      <point x="628" y="127"/>
      <point x="628" y="127" type="curve"/>
      <point x="607" y="98"/>
      <point x="586" y="91"/>
      <point x="551" y="91" type="curve" smooth="yes"/>
      <point x="390" y="91"/>
      <point x="252" y="351"/>
      <point x="252" y="506" type="curve" smooth="yes"/>
      <point x="252" y="554"/>
      <point x="271" y="594"/>
      <point x="311" y="594" type="curve" smooth="yes"/>
      <point x="343" y="594"/>
      <point x="363" y="565"/>
      <point x="363" y="517" type="curve" smooth="yes"/>
      <point x="363" y="439"/>
      <point x="299" y="406"/>
      <point x="228" y="367" type="curve"/>
      <point x="255" y="326" type="line"/>
      <point x="350" y="374"/>
      <point x="440" y="422"/>
      <point x="440" y="525" type="curve" smooth="yes"/>
      <point x="440" y="586"/>
      <point x="397" y="638"/>
      <point x="304" y="638" type="curve" smooth="yes"/>
    </contour>
    <contour>
      <point x="91" y="311"/>
      <point x="30" y="231"/>
      <point x="30" y="141" type="curve" smooth="yes"/>
      <point x="30" y="59"/>
      <point x="84" y="-15"/>
      <point x="201" y="-15" type="curve" smooth="yes"/>
      <point x="282" y="-15"/>
      <point x="338" y="18"/>
      <point x="395" y="76" type="curve"/>
      <point x="351" y="119" type="line"/>
      <point x="312" y="79"/>
      <point x="272" y="55"/>
      <point x="228" y="55" type="curve" smooth="yes"/>
      <point x="168" y="55"/>
      <point x="140" y="109"/>
      <point x="140" y="174" type="curve" smooth="yes"/>
      <point x="140" y="224"/>
      <point x="167" y="284"/>
      <point x="222" y="315" type="curve"/>
      <point x="202" y="351" type="line"/>
    </contour>
    <contour>
      <point x="505" y="372"/>
      <point x="485" y="372"/>
      <point x="387" y="379" type="curve"/>
      <point x="387" y="336" type="line"/>
      <point x="439" y="334"/>
      <point x="451" y="318"/>
      <point x="451" y="272" type="curve" smooth="yes"/>
      <point x="451" y="216"/>
      <point x="411" y="150"/>
      <point x="354" y="102" type="curve"/>
      <point x="407" y="76" type="line"/>
      <point x="462" y="128"/>
      <point x="489" y="163"/>
      <point x="521" y="254" type="curve" smooth="yes"/>
      <point x="542" y="318"/>
      <point x="547" y="336"/>
      <point x="603" y="336" type="curve"/>
      <point x="603" y="379" type="line"/>
    </contour>
  </outline>
</glyph>
<glyph name="quotesingle" format="1">
  <advance width="239"/>
  <unicode hex="0027"/>
  <outline>
    <contour>
      <point x="60" y="646" type="line"/>
      <point x="83" y="428" type="line"/>
      <point x="156" y="428" type="line"/>
      <point x="179" y="646" type="line"/>
    </contour>
  </outline>
</glyph>
<glyph name="parenleft" format="1">
  <advance width="286"/>
  <unicode hex="0028"/>
  <outline>
    <contour>
      <point x="110" y="529"/>
      <point x="42" y="413"/>
      <point x="42" y="234" type="curve" smooth="yes"/>
      <point x="42" y="54"/>
      <point x="110" y="-63"/>
      <point x="230" y="-167" type="curve"/>
      <point x="268" y="-141" type="line"/>
      <point x="184" y="-28"/>
      <point x="168" y="93"/>
      <point x="168" y="234" type="curve" smooth="yes"/>
      <point x="168" y="375"/>
      <point x="184" y="494"/>
      <point x="268" y="607" type="curve"/>
      <point x="230" y="633" type="line"/>
    </contour>
  </outline>
</glyph>
<glyph name="asterisk" format="1">
  <advance width="383"/>
  <unicode hex="002A"/>
  <outline>
    <contour>
      <point x="167" y="665"/>
      <point x="155" y="647"/>
      <point x="155" y="622" type="curve" smooth="yes"/>
      <point x="155" y="572"/>
      <point x="179" y="554"/>
      <point x="182" y="492" type="curve"/>
      <point x="132" y="526"/>
      <point x="128" y="557"/>
      <point x="85" y="581" type="curve"/>
      <point x="63" y="594"/>
      <point x="42" y="593"/>
      <point x="29" y="571" type="curve"/>
      <point x="17" y="549"/>
      <point x="27" y="530"/>
      <point x="48" y="518" type="curve" smooth="yes"/>
      <point x="91" y="492"/>
      <point x="119" y="505"/>
      <point x="174" y="477" type="curve"/>
      <point x="119" y="450"/>
      <point x="91" y="462"/>
      <point x="48" y="437" type="curve" smooth="yes"/>
      <point x="27" y="425"/>
      <point x="17" y="406"/>
      <point x="29" y="383" type="curve"/>
      <point x="42" y="362"/>
      <point x="63" y="360"/>
      <point x="85" y="374" type="curve"/>
      <point x="128" y="397"/>
      <point x="132" y="429"/>
      <point x="182" y="463" type="curve"/>
      <point x="179" y="400"/>
      <point x="155" y="383"/>
      <point x="155" y="332" type="curve" smooth="yes"/>
      <point x="155" y="307"/>
      <point x="167" y="290"/>
      <point x="191" y="290" type="curve" smooth="yes"/>
      <point x="216" y="290"/>
      <point x="228" y="307"/>
      <point x="228" y="332" type="curve" smooth="yes"/>
      <point x="228" y="383"/>
      <point x="204" y="400"/>
      <point x="201" y="462" type="curve"/>
      <point x="251" y="428"/>
      <point x="255" y="397"/>
      <point x="298" y="374" type="curve"/>
      <point x="319" y="360"/>
      <point x="341" y="362"/>
      <point x="354" y="384" type="curve" smooth="yes"/>
      <point x="366" y="406"/>
      <point x="356" y="425"/>
      <point x="335" y="437" type="curve" smooth="yes"/>
      <point x="292" y="462"/>
      <point x="264" y="450"/>
      <point x="208" y="477" type="curve"/>
      <point x="264" y="505"/>
      <point x="292" y="492"/>
      <point x="335" y="518" type="curve" smooth="yes"/>
      <point x="356" y="530"/>
      <point x="366" y="549"/>
      <point x="354" y="570" type="curve" smooth="yes"/>
      <point x="341" y="593"/>
      <point x="319" y="594"/>
      <point x="298" y="581" type="curve"/>
      <point x="255" y="557"/>
      <point x="251" y="526"/>
      <point x="201" y="493" type="curve"/>
      <point x="204" y="554"/>
      <point x="228" y="572"/>
      <point x="228" y="622" type="curve" smooth="yes"/>
      <point x="228" y="647"/>
      <point x="216" y="665"/>
      <point x="191" y="665" type="curve" smooth="yes"/>
    </contour>
  </outline>
</glyph>
<glyph name="plus" format="1">
  <advance width="478"/>
  <unicode hex="002B"/>
  <outline>
    <contour>
      <point x="206" y="476" type="line"/>
      <point x="206" y="151" type="line"/>
      <point x="272" y="151" type="line"/>
      <point x="272" y="476" type="line"/>
    </contour>
    <contour>
      <point x="76" y="351" type="line"/>
      <point x="76" y="286" type="line"/>
      <point x="402" y="286" type="line"/>
      <point x="402" y="351" type="line"/>
    </contour>
  </outline>
</glyph>
<glyph name="comma" format="1">
  <advance width="239"/>
  <unicode hex="002C"/>
  <outline>
    <contour>
      <point x="80" y="132"/>
      <point x="43" y="104"/>
      <point x="43" y="61" type="curve" smooth="yes"/>
      <point x="43" y="31"/>
      <point x="54" y="-4"/>
      <point x="91" y="-4" type="curve" smooth="yes"/>
      <point x="121" y="-4"/>
      <point x="127" y="13"/>
      <point x="140" y="13" type="curve" smooth="yes"/>
      <point x="143" y="13"/>
      <point x="144" y="11"/>
      <point x="144" y="7" type="curve" smooth="yes"/>
      <point x="144" y="-25"/>
      <point x="126" y="-75"/>
      <point x="54" y="-110" type="curve"/>
      <point x="72" y="-143" type="line"/>
      <point x="167" y="-107"/>
      <point x="204" y="-35"/>
      <point x="204" y="29" type="curve" smooth="yes"/>
      <point x="204" y="78"/>
      <point x="179" y="132"/>
      <point x="116" y="132" type="curve" smooth="yes"/>
    </contour>
  </outline>
</glyph>
<glyph name="hyphen" format="1">
  <advance width="239"/>
  <unicode hex="002D"/>
  <outline>
    <contour>
      <point x="24" y="328" type="line"/>
      <point x="24" y="238" type="line"/>
      <point x="215" y="238" type="line"/>
      <point x="215" y="328" type="line"/>
    </contour>
  </outline>
</glyph>
<glyph name="period" format="1">
  <advance width="239"/>
  <unicode hex="002E"/>
  <outline>
    <contour>
      <point x="69" y="132"/>
      <point x="45" y="103"/>
      <point x="45" y="56" type="curve" smooth="yes"/>
      <point x="45" y="7"/>
      <point x="69" y="-15"/>
      <point x="119" y="-15" type="curve" smooth="yes"/>
      <point x="170" y="-15"/>
      <point x="194" y="7"/>
      <point x="194" y="56" type="curve" smooth="yes"/>
      <point x="194" y="103"/>
      <point x="170" y="132"/>
      <point x="119" y="132" type="curve" smooth="yes"/>
    </contour>
  </outline>
</glyph>
<glyph name="slash" format="1">
  <advance width="328"/>
  <unicode hex="002F"/>
  <outline>
    <contour>
      <point x="12" y="-78" type="line"/>
      <point x="81" y="-98" type="line"/>
      <point x="316" y="622" type="line"/>
      <point x="247" y="642" type="line"/>
    </contour>
  </outline>
</glyph>
<glyph name="zero" format="1">
  <advance width="467"/>
  <unicode hex="0030"/>
  <outline>
    <contour>
      <point x="98" y="638"/>
      <point x="30" y="535"/>
      <point x="30" y="312" type="curve" smooth="yes"/>
      <point x="30" y="90"/>
      <point x="98" y="-13"/>
      <point x="234" y="-13" type="curve" smooth="yes"/>
      <point x="370" y="-13"/>
      <point x="438" y="90"/>
      <point x="438" y="312" type="curve" smooth="yes"/>
      <point x="438" y="535"/>
      <point x="370" y="638"/>
      <point x="234" y="638" type="curve" smooth="yes"/>
    </contour>
    <contour>
      <point x="293" y="595"/>
      <point x="320" y="500"/>
      <point x="320" y="312" type="curve" smooth="yes"/>
      <point x="320" y="124"/>
      <point x="293" y="30"/>
      <point x="234" y="30" type="curve" smooth="yes"/>
      <point x="175" y="30"/>
      <point x="147" y="124"/>
      <point x="147" y="312" type="curve" smooth="yes"/>
      <point x="147" y="500"/>
      <point x="175" y="595"/>
      <point x="234" y="595" type="curve" smooth="yes"/>
    </contour>
  </outline>
</glyph>
<glyph name="one" format="1">
  <advance width="370"/>
  <unicode hex="0031"/>
  <outline>
    <contour>
      <point x="48" y="569" type="line"/>
      <point x="48" y="527" type="line"/>
      <point x="111" y="535" type="line" smooth="yes"/>
      <point x="129" y="538"/>
      <point x="138" y="525"/>
      <point x="138" y="512" type="curve" smooth="yes"/>
      <point x="138" y="132" type="line" smooth="yes"/>
      <point x="138" y="66"/>
      <point x="129" y="43"/>
      <point x="48" y="40" type="curve"/>
      <point x="48" y="-3" type="line"/>
      <point x="179" y="6"/>
      <point x="213" y="6"/>
      <point x="346" y="-3" type="curve"/>
      <point x="346" y="40" type="line"/>
      <point x="263" y="43"/>
      <point x="255" y="66"/>
      <point x="255" y="132" type="curve" smooth="yes"/>
      <point x="255" y="629" type="line"/>
      <point x="234" y="638" type="line"/>
    </contour>
  </outline>
</glyph>
<glyph name="two" format="1">
  <advance width="452"/>
  <unicode hex="0032"/>
  <outline>
    <contour>
      <point x="155" y="638"/>
      <point x="97" y="628"/>
      <point x="48" y="609" type="curve"/>
      <point x="48" y="462" type="line"/>
      <point x="102" y="462" type="line"/>
      <point x="102" y="543"/>
      <point x="123" y="589"/>
      <point x="180" y="589" type="curve" smooth="yes"/>
      <point x="250" y="589"/>
      <point x="274" y="535"/>
      <point x="274" y="466" type="curve" smooth="yes"/>
      <point x="274" y="372"/>
      <point x="220" y="235"/>
      <point x="64" y="63" type="curve"/>
      <point x="64" y="0" type="line"/>
      <point x="410" y="0" type="line"/>
      <point x="410" y="102" type="line"/>
      <point x="174" y="102" type="line"/>
      <point x="282" y="213"/>
      <point x="396" y="372"/>
      <point x="396" y="482" type="curve" smooth="yes"/>
      <point x="396" y="574"/>
      <point x="330" y="638"/>
      <point x="206" y="638" type="curve" smooth="yes"/>
    </contour>
  </outline>
</glyph>
<glyph name="three" format="1">
  <advance width="463"/>
  <unicode hex="0033"/>
  <outline>
    <contour>
      <point x="162" y="638"/>
      <point x="107" y="627"/>
      <point x="56" y="609" type="curve"/>
      <point x="56" y="478" type="line"/>
      <point x="107" y="478" type="line"/>
      <point x="107" y="555"/>
      <point x="143" y="589"/>
      <point x="192" y="589" type="curve" smooth="yes"/>
      <point x="240" y="589"/>
      <point x="270" y="562"/>
      <point x="270" y="502" type="curve" smooth="yes"/>
      <point x="270" y="434"/>
      <point x="224" y="384"/>
      <point x="111" y="371" type="curve"/>
      <point x="111" y="327" type="line"/>
      <point x="202" y="322"/>
      <point x="284" y="290"/>
      <point x="284" y="206" type="curve" smooth="yes"/>
      <point x="284" y="95"/>
      <point x="180" y="37"/>
      <point x="48" y="24" type="curve"/>
      <point x="63" y="-13" type="line"/>
      <point x="275" y="-7"/>
      <point x="409" y="95"/>
      <point x="409" y="219" type="curve" smooth="yes"/>
      <point x="409" y="279"/>
      <point x="380" y="354"/>
      <point x="286" y="379" type="curve"/>
      <point x="286" y="382" type="line"/>
      <point x="336" y="407"/>
      <point x="382" y="454"/>
      <point x="382" y="513" type="curve" smooth="yes"/>
      <point x="382" y="594"/>
      <point x="319" y="638"/>
      <point x="210" y="638" type="curve" smooth="yes"/>
    </contour>
  </outline>
</glyph>
<glyph name="four" format="1">
  <advance width="510"/>
  <unicode hex="0034"/>
  <outline>
    <contour>
      <point x="18" y="200" type="line"/>
      <point x="18" y="162" type="line"/>
      <point x="251" y="162" type="line"/>
      <point x="251" y="0" type="line"/>
      <point x="368" y="0" type="line"/>
      <point x="368" y="162" type="line"/>
      <point x="467" y="162" type="line"/>
      <point x="467" y="216" type="line"/>
      <point x="368" y="216" type="line"/>
      <point x="368" y="628" type="line"/>
      <point x="343" y="638" type="line"/>
    </contour>
    <contour>
      <point x="251" y="216" type="line"/>
      <point x="97" y="216" type="line"/>
      <point x="251" y="420" type="line"/>
    </contour>
  </outline>
</glyph>
<glyph name="five" format="1">
  <advance width="430"/>
  <unicode hex="0035"/>
  <outline>
    <contour>
      <point x="124" y="571"/>
      <point x="63" y="571"/>
      <point x="63" y="571" type="curve"/>
      <point x="63" y="326" type="line"/>
      <point x="96" y="322" type="line" smooth="yes"/>
      <point x="182" y="312"/>
      <point x="260" y="287"/>
      <point x="260" y="210" type="curve" smooth="yes"/>
      <point x="260" y="90"/>
      <point x="148" y="37"/>
      <point x="23" y="24" type="curve"/>
      <point x="39" y="-15" type="line"/>
      <point x="202" y="-8"/>
      <point x="385" y="63"/>
      <point x="385" y="230" type="curve" smooth="yes"/>
      <point x="385" y="350"/>
      <point x="276" y="394"/>
      <point x="147" y="414" type="curve" smooth="yes"/>
      <point x="124" y="418" type="line"/>
      <point x="124" y="571" type="line"/>
    </contour>
    <contour>
      <point x="63" y="625" type="line"/>
      <point x="63" y="523" type="line"/>
      <point x="353" y="523" type="line"/>
      <point x="353" y="625" type="line"/>
    </contour>
  </outline>
</glyph>
<glyph name="six" format="1">
  <advance width="461"/>
  <unicode hex="0036"/>
  <outline>
    <contour>
      <point x="211" y="630"/>
      <point x="30" y="499"/>
      <point x="30" y="264" type="curve" smooth="yes"/>
      <point x="30" y="64"/>
      <point x="105" y="-15"/>
      <point x="228" y="-15" type="curve" smooth="yes"/>
      <point x="351" y="-15"/>
      <point x="431" y="71"/>
      <point x="431" y="212" type="curve" smooth="yes"/>
      <point x="431" y="332"/>
      <point x="355" y="387"/>
      <point x="263" y="387" type="curve" smooth="yes"/>
      <point x="207" y="387"/>
      <point x="151" y="363"/>
      <point x="114" y="315" type="curve"/>
      <point x="114" y="315"/>
      <point x="123" y="274"/>
      <point x="123" y="274" type="curve"/>
      <point x="158" y="308"/>
      <point x="195" y="324"/>
      <point x="228" y="324" type="curve" smooth="yes"/>
      <point x="282" y="324"/>
      <point x="311" y="278"/>
      <point x="311" y="184" type="curve" smooth="yes"/>
      <point x="311" y="87"/>
      <point x="286" y="28"/>
      <point x="230" y="28" type="curve" smooth="yes"/>
      <point x="178" y="28"/>
      <point x="152" y="109"/>
      <point x="152" y="288" type="curve" smooth="yes"/>
      <point x="152" y="458"/>
      <point x="244" y="573"/>
      <point x="378" y="598" type="curve"/>
      <point x="366" y="638" type="line"/>
    </contour>
  </outline>
</glyph>
<glyph name="seven" format="1">
  <advance width="437"/>
  <unicode hex="0037"/>
  <outline>
    <contour>
      <point x="42" y="443" type="line"/>
      <point x="78" y="443" type="line"/>
      <point x="104" y="509"/>
      <point x="111" y="523"/>
      <point x="214" y="523" type="curve" smooth="yes"/>
      <point x="336" y="523" type="line"/>
      <point x="143" y="0" type="line"/>
      <point x="262" y="0" type="line"/>
      <point x="413" y="543" type="line"/>
      <point x="411" y="625" type="line"/>
      <point x="224" y="625" type="line"/>
      <point x="176" y="625"/>
      <point x="131" y="625"/>
      <point x="81" y="630" type="curve"/>
    </contour>
  </outline>
</glyph>
<glyph name="eight" format="1">
  <advance width="512"/>
  <unicode hex="0038"/>
  <outline>
    <contour>
      <point x="163" y="638"/>
      <point x="73" y="589"/>
      <point x="73" y="486" type="curve" smooth="yes"/>
      <point x="73" y="418"/>
      <point x="100" y="380"/>
      <point x="164" y="334" type="curve"/>
      <point x="179" y="324" type="line"/>
      <point x="97" y="284"/>
      <point x="54" y="224"/>
      <point x="54" y="139" type="curve" smooth="yes"/>
      <point x="54" y="32"/>
      <point x="147" y="-13"/>
      <point x="259" y="-13" type="curve" smooth="yes"/>
      <point x="367" y="-13"/>
      <point x="458" y="51"/>
      <point x="458" y="150" type="curve" smooth="yes"/>
      <point x="458" y="242"/>
      <point x="410" y="279"/>
      <point x="353" y="320" type="curve" smooth="yes"/>
      <point x="320" y="344" type="line"/>
      <point x="390" y="363"/>
      <point x="443" y="413"/>
      <point x="443" y="494" type="curve" smooth="yes"/>
      <point x="443" y="597"/>
      <point x="358" y="638"/>
      <point x="268" y="638" type="curve" smooth="yes"/>
    </contour>
    <contour>
      <point x="259" y="266" type="line" smooth="yes"/>
      <point x="310" y="226"/>
      <point x="342" y="194"/>
      <point x="342" y="131" type="curve" smooth="yes"/>
      <point x="342" y="69"/>
      <point x="315" y="30"/>
      <point x="254" y="30" type="curve" smooth="yes"/>
      <point x="186" y="30"/>
      <point x="160" y="84"/>
      <point x="160" y="153" type="curve" smooth="yes"/>
      <point x="160" y="192"/>
      <point x="184" y="262"/>
      <point x="231" y="287" type="curve"/>
    </contour>
    <contour>
      <point x="317" y="595"/>
      <point x="348" y="561"/>
      <point x="348" y="499" type="curve" smooth="yes"/>
      <point x="348" y="451"/>
      <point x="330" y="413"/>
      <point x="272" y="379" type="curve"/>
      <point x="254" y="391" type="line"/>
      <point x="198" y="431"/>
      <point x="182" y="454"/>
      <point x="182" y="510" type="curve" smooth="yes"/>
      <point x="182" y="562"/>
      <point x="213" y="595"/>
      <point x="260" y="595" type="curve" smooth="yes"/>
    </contour>
  </outline>
</glyph>
<glyph name="less" format="1">
  <advance width="478"/>
  <unicode hex="003C"/>
  <outline>
    <contour>
      <point x="54" y="347" type="line"/>
      <point x="54" y="283" type="line"/>
      <point x="379" y="132" type="line"/>
      <point x="379" y="203" type="line"/>
      <point x="129" y="316" type="line"/>
      <point x="379" y="427" type="line"/>
      <point x="379" y="498" type="line"/>
    </contour>
  </outline>
</glyph>
<glyph name="equal" format="1">
  <advance width="478"/>
  <unicode hex="003D"/>
  <outline>
    <contour>
      <point x="76" y="418" type="line"/>
      <point x="76" y="353" type="line"/>
      <point x="402" y="353" type="line"/>
      <point x="402" y="418" type="line"/>
    </contour>
    <contour>
      <point x="76" y="263" type="line"/>
      <point x="76" y="199" type="line"/>
      <point x="402" y="199" type="line"/>
      <point x="402" y="263" type="line"/>
    </contour>
  </outline>
</glyph>
<glyph name="question" format="1">
  <advance width="384"/>
  <unicode hex="003F"/>
  <outline>
    <contour>
      <point x="116" y="625"/>
      <point x="67" y="618"/>
      <point x="24" y="607" type="curve"/>
      <point x="24" y="457" type="line"/>
      <point x="71" y="457" type="line"/>
      <point x="71" y="535"/>
      <point x="105" y="577"/>
      <point x="160" y="577" type="curve" smooth="yes"/>
      <point x="213" y="577"/>
      <point x="236" y="530"/>
      <point x="236" y="457" type="curve" smooth="yes"/>
      <point x="236" y="356"/>
      <point x="179" y="306"/>
      <point x="102" y="296" type="curve"/>
      <point x="110" y="188" type="line"/>
      <point x="171" y="188" type="line"/>
      <point x="183" y="264" type="line"/>
      <point x="282" y="290"/>
      <point x="348" y="348"/>
      <point x="348" y="461" type="curve" smooth="yes"/>
      <point x="348" y="563"/>
      <point x="284" y="625"/>
      <point x="156" y="625" type="curve" smooth="yes"/>
    </contour>
    <contour>
      <point x="90" y="132"/>
      <point x="66" y="103"/>
      <point x="66" y="56" type="curve" smooth="yes"/>
      <point x="66" y="7"/>
      <point x="90" y="-15"/>
      <point x="139" y="-15" type="curve" smooth="yes"/>
      <point x="190" y="-15"/>
      <point x="214" y="7"/>
      <point x="214" y="56" type="curve" smooth="yes"/>
      <point x="214" y="103"/>
      <point x="190" y="132"/>
      <point x="139" y="132" type="curve" smooth="yes"/>
    </contour>
  </outline>
</glyph>
<glyph name="at" format="1">
  <advance width="945"/>
  <unicode hex="0040"/>
  <outline>
    <contour>
      <point x="294" y="642"/>
      <point x="36" y="511"/>
      <point x="36" y="162" type="curve" smooth="yes"/>
      <point x="36" y="-109"/>
      <point x="250" y="-203"/>
      <point x="466" y="-203" type="curve" smooth="yes"/>
      <point x="603" y="-203"/>
      <point x="739" y="-164"/>
      <point x="824" y="-108" type="curve"/>
      <point x="800" y="-63" type="line"/>
      <point x="722" y="-115"/>
      <point x="597" y="-150"/>
      <point x="479" y="-150" type="curve" smooth="yes"/>
      <point x="307" y="-150"/>
      <point x="136" y="-66"/>
      <point x="136" y="176" type="curve" smooth="yes"/>
      <point x="136" y="454"/>
      <point x="318" y="582"/>
      <point x="515" y="582" type="curve" smooth="yes"/>
      <point x="670" y="582"/>
      <point x="817" y="479"/>
      <point x="817" y="294" type="curve" smooth="yes"/>
      <point x="817" y="162"/>
      <point x="766" y="56"/>
      <point x="674" y="56" type="curve" smooth="yes"/>
      <point x="642" y="56"/>
      <point x="634" y="61"/>
      <point x="634" y="83" type="curve" smooth="yes"/>
      <point x="634" y="90"/>
      <point x="635" y="98"/>
      <point x="637" y="109" type="curve"/>
      <point x="691" y="446" type="line"/>
      <point x="579" y="418" type="line"/>
      <point x="529" y="105" type="line"/>
      <point x="542" y="100" type="line"/>
      <point x="525" y="-9" type="line"/>
      <point x="558" y="-25" type="line"/>
      <point x="665" y="-9" type="line" smooth="yes"/>
      <point x="832" y="16"/>
      <point x="909" y="159"/>
      <point x="909" y="304" type="curve" smooth="yes"/>
      <point x="909" y="523"/>
      <point x="730" y="642"/>
      <point x="526" y="642" type="curve" smooth="yes"/>
    </contour>
    <contour>
      <point x="360" y="450"/>
      <point x="259" y="307"/>
      <point x="259" y="126" type="curve" smooth="yes"/>
      <point x="259" y="21"/>
      <point x="308" y="-28"/>
      <point x="389" y="-28" type="curve" smooth="yes"/>
      <point x="454" y="-28"/>
      <point x="534" y="28"/>
      <point x="570" y="139" type="curve"/>
      <point x="570" y="139"/>
      <point x="565" y="222"/>
      <point x="565" y="222" type="curve"/>
      <point x="534" y="117"/>
      <point x="482" y="60"/>
      <point x="442" y="60" type="curve" smooth="yes"/>
      <point x="402" y="60"/>
      <point x="379" y="84"/>
      <point x="379" y="147" type="curve" smooth="yes"/>
      <point x="379" y="236"/>
      <point x="407" y="387"/>
      <point x="512" y="387" type="curve" smooth="yes"/>
      <point x="574" y="387"/>
      <point x="602" y="366"/>
      <point x="618" y="339" type="curve"/>
      <point x="669" y="423" type="line"/>
      <point x="619" y="443"/>
      <point x="575" y="450"/>
      <point x="535" y="450" type="curve" smooth="yes"/>
    </contour>
  </outline>
</glyph>
<glyph name="A" format="1">
  <advance width="607"/>
  <unicode hex="0041"/>
  <outline>
    <contour>
      <point x="247" y="628" type="line"/>
      <point x="83" y="80" type="line" smooth="yes"/>
      <point x="76" y="61"/>
      <point x="52" y="40"/>
      <point x="25" y="40" type="curve"/>
      <point x="25" y="-3" type="line"/>
      <point x="103" y="4"/>
      <point x="120" y="4"/>
      <point x="211" y="-3" type="curve"/>
      <point x="211" y="40" type="line"/>
      <point x="132" y="43"/>
      <point x="141" y="67"/>
      <point x="152" y="103" type="curve" smooth="yes"/>
      <point x="275" y="518" type="line"/>
      <point x="275" y="518"/>
      <point x="279" y="518"/>
      <point x="279" y="518" type="curve"/>
      <point x="399" y="103" type="line" smooth="yes"/>
      <point x="410" y="67"/>
      <point x="406" y="43"/>
      <point x="334" y="40" type="curve"/>
      <point x="334" y="-3" type="line"/>
      <point x="454" y="5"/>
      <point x="467" y="5"/>
      <point x="587" y="-3" type="curve"/>
      <point x="587" y="40" type="line"/>
      <point x="559" y="40"/>
      <point x="535" y="61"/>
      <point x="530" y="80" type="curve" smooth="yes"/>
      <point x="359" y="628" type="line"/>
    </contour>
    <contour>
      <point x="150" y="231" type="line"/>
      <point x="150" y="183" type="line"/>
      <point x="398" y="183" type="line"/>
      <point x="398" y="231" type="line"/>
    </contour>
    <contour>
      <point x="293" y="622" type="move" name="top"/>
    </contour>
  </outline>
</glyph>
<glyph name="B" format="1">
  <advance width="583"/>
  <unicode hex="0042"/>
  <outline>
    <contour>
      <point x="212" y="631"/>
      <point x="156" y="625"/>
      <point x="48" y="625" type="curve"/>
      <point x="48" y="581" type="line"/>
      <point x="117" y="579"/>
      <point x="126" y="557"/>
      <point x="126" y="489" type="curve" smooth="yes"/>
      <point x="126" y="132" type="line" smooth="yes"/>
      <point x="126" y="66"/>
      <point x="117" y="45"/>
      <point x="48" y="43" type="curve"/>
      <point x="48" y="0" type="line"/>
      <point x="153" y="0"/>
      <point x="226" y="-7"/>
      <point x="287" y="-7" type="curve" smooth="yes"/>
      <point x="474" y="-7"/>
      <point x="546" y="63"/>
      <point x="546" y="188" type="curve" smooth="yes"/>
      <point x="546" y="282"/>
      <point x="485" y="324"/>
      <point x="402" y="342" type="curve"/>
      <point x="365" y="356" type="line"/>
      <point x="208" y="356" type="line" smooth="yes"/>
      <point x="208" y="356"/>
      <point x="216" y="300"/>
      <point x="216" y="300" type="curve"/>
      <point x="291" y="302" type="line" smooth="yes"/>
      <point x="386" y="303"/>
      <point x="423" y="259"/>
      <point x="423" y="182" type="curve" smooth="yes"/>
      <point x="423" y="108"/>
      <point x="375" y="54"/>
      <point x="298" y="54" type="curve" smooth="yes"/>
      <point x="243" y="54" type="line"/>
      <point x="243" y="578" type="line"/>
      <point x="292" y="578" type="line" smooth="yes"/>
      <point x="377" y="578"/>
      <point x="403" y="531"/>
      <point x="403" y="461" type="curve" smooth="yes"/>
      <point x="403" y="423"/>
      <point x="390" y="384"/>
      <point x="348" y="355" type="curve"/>
      <point x="389" y="334" type="line"/>
      <point x="478" y="353"/>
      <point x="515" y="401"/>
      <point x="515" y="471" type="curve" smooth="yes"/>
      <point x="515" y="565"/>
      <point x="459" y="631"/>
      <point x="290" y="631" type="curve" smooth="yes"/>
    </contour>
  </outline>
</glyph>
<glyph name="C" format="1">
  <advance width="565"/>
  <unicode hex="0043"/>
  <outline>
    <contour>
      <point x="150" y="638"/>
      <point x="36" y="503"/>
      <point x="36" y="280" type="curve" smooth="yes"/>
      <point x="36" y="83"/>
      <point x="150" y="-15"/>
      <point x="290" y="-15" type="curve" smooth="yes"/>
      <point x="365" y="-15"/>
      <point x="447" y="15"/>
      <point x="523" y="73" type="curve"/>
      <point x="503" y="110" type="line"/>
      <point x="454" y="80"/>
      <point x="403" y="61"/>
      <point x="351" y="61" type="curve" smooth="yes"/>
      <point x="248" y="61"/>
      <point x="162" y="131"/>
      <point x="162" y="307" type="curve" smooth="yes"/>
      <point x="162" y="479"/>
      <point x="210" y="582"/>
      <point x="331" y="582" type="curve" smooth="yes"/>
      <point x="409" y="582"/>
      <point x="455" y="527"/>
      <point x="455" y="430" type="curve"/>
      <point x="503" y="430" type="line"/>
      <point x="503" y="493"/>
      <point x="502" y="555"/>
      <point x="510" y="618" type="curve"/>
      <point x="454" y="631"/>
      <point x="396" y="638"/>
      <point x="351" y="638" type="curve" smooth="yes"/>
    </contour>
    <contour>
      <point x="274" y="-30" type="move" name="bottom"/>
    </contour>
  </outline>
</glyph>
<glyph name="D" format="1">
  <advance width="658"/>
  <unicode hex="0044"/>
  <outline>
    <contour>
      <point x="238" y="631"/>
      <point x="235" y="625"/>
      <point x="48" y="625" type="curve"/>
      <point x="48" y="581" type="line"/>
      <point x="117" y="579"/>
      <point x="126" y="557"/>
      <point x="126" y="489" type="curve" smooth="yes"/>
      <point x="126" y="132" type="line" smooth="yes"/>
      <point x="126" y="66"/>
      <point x="117" y="45"/>
      <point x="48" y="43" type="curve"/>
      <point x="48" y="0" type="line"/>
      <point x="147" y="0"/>
      <point x="203" y="-7"/>
      <point x="275" y="-7" type="curve" smooth="yes"/>
      <point x="499" y="-7"/>
      <point x="622" y="126"/>
      <point x="622" y="341" type="curve" smooth="yes"/>
      <point x="622" y="529"/>
      <point x="529" y="631"/>
      <point x="327" y="631" type="curve" smooth="yes"/>
    </contour>
    <contour>
      <point x="446" y="581"/>
      <point x="497" y="471"/>
      <point x="497" y="304" type="curve" smooth="yes"/>
      <point x="497" y="144"/>
      <point x="439" y="43"/>
      <point x="299" y="43" type="curve" smooth="yes"/>
      <point x="243" y="43" type="line"/>
      <point x="243" y="581" type="line"/>
      <point x="316" y="581" type="line" smooth="yes"/>
    </contour>
  </outline>
</glyph>
<glyph name="E" format="1">
  <advance width="565"/>
  <unicode hex="0045"/>
  <outline>
    <contour>
      <point x="406" y="626"/>
      <point x="362" y="625"/>
      <point x="299" y="625" type="curve" smooth="yes"/>
      <point x="194" y="625" type="line" smooth="yes"/>
      <point x="153" y="625"/>
      <point x="112" y="625"/>
      <point x="48" y="627" type="curve"/>
      <point x="48" y="583" type="line"/>
      <point x="117" y="581"/>
      <point x="126" y="558"/>
      <point x="126" y="491" type="curve"/>
      <point x="126" y="132" type="line"/>
      <point x="126" y="66"/>
      <point x="117" y="43"/>
      <point x="48" y="40" type="curve"/>
      <point x="48" y="-3" type="line"/>
      <point x="112" y="0"/>
      <point x="153" y="0"/>
      <point x="194" y="0" type="curve" smooth="yes"/>
      <point x="299" y="0" type="line" smooth="yes"/>
      <point x="362" y="0"/>
      <point x="413" y="-1"/>
      <point x="490" y="-7" type="curve"/>
      <point x="527" y="186" type="line"/>
      <point x="482" y="186" type="line"/>
      <point x="461" y="107"/>
      <point x="414" y="48"/>
      <point x="304" y="48" type="curve" smooth="yes"/>
      <point x="243" y="48" type="line"/>
      <point x="243" y="577" type="line"/>
      <point x="299" y="577" type="line" smooth="yes"/>
      <point x="407" y="577"/>
      <point x="431" y="525"/>
      <point x="450" y="452" type="curve"/>
      <point x="497" y="452" type="line"/>
      <point x="486" y="631" type="line"/>
    </contour>
    <contour>
      <point x="354" y="420" type="line"/>
      <point x="351" y="348"/>
      <point x="314" y="331"/>
      <point x="262" y="331" type="curve" smooth="yes"/>
      <point x="184" y="331" type="line"/>
      <point x="184" y="283" type="line"/>
      <point x="262" y="283" type="line" smooth="yes"/>
      <point x="314" y="283"/>
      <point x="351" y="268"/>
      <point x="354" y="201" type="curve"/>
      <point x="397" y="201" type="line"/>
      <point x="389" y="292"/>
      <point x="389" y="330"/>
      <point x="397" y="420" type="curve"/>
    </contour>
    <contour>
      <point x="299" y="622" type="move" name="top"/>
    </contour>
  </outline>
</glyph>
<glyph name="F" format="1">
  <advance width="505"/>
  <unicode hex="0046"/>
  <outline>
    <contour>
      <point x="392" y="626"/>
      <point x="346" y="625"/>
      <point x="283" y="625" type="curve" smooth="yes"/>
      <point x="194" y="625" type="line" smooth="yes"/>
      <point x="153" y="625"/>
      <point x="112" y="625"/>
      <point x="48" y="627" type="curve"/>
      <point x="48" y="583" type="line"/>
      <point x="117" y="581"/>
      <point x="126" y="558"/>
      <point x="126" y="491" type="curve"/>
      <point x="126" y="132" type="line"/>
      <point x="126" y="66"/>
      <point x="117" y="43"/>
      <point x="48" y="40" type="curve"/>
      <point x="48" y="-3" type="line"/>
      <point x="167" y="4"/>
      <point x="201" y="4"/>
      <point x="339" y="-3" type="curve"/>
      <point x="339" y="40" type="line"/>
      <point x="251" y="43"/>
      <point x="243" y="66"/>
      <point x="243" y="132" type="curve"/>
      <point x="243" y="577" type="line"/>
      <point x="283" y="577" type="line" smooth="yes"/>
      <point x="391" y="577"/>
      <point x="416" y="525"/>
      <point x="434" y="452" type="curve"/>
      <point x="481" y="452" type="line"/>
      <point x="470" y="631" type="line"/>
    </contour>
    <contour>
      <point x="354" y="419" type="line"/>
      <point x="351" y="347"/>
      <point x="314" y="330"/>
      <point x="262" y="330" type="curve" smooth="yes"/>
      <point x="184" y="330" type="line"/>
      <point x="184" y="282" type="line"/>
      <point x="262" y="282" type="line" smooth="yes"/>
      <point x="314" y="282"/>
      <point x="351" y="267"/>
      <point x="354" y="188" type="curve"/>
      <point x="397" y="188" type="line"/>
      <point x="389" y="291"/>
      <point x="389" y="329"/>
      <point x="397" y="419" type="curve"/>
    </contour>
  </outline>
</glyph>
<glyph name="G" format="1">
  <advance width="609"/>
  <unicode hex="0047"/>
  <outline>
    <contour>
      <point x="370" y="47"/>
      <point x="339" y="37"/>
      <point x="315" y="37" type="curve" smooth="yes"/>
      <point x="203" y="37"/>
      <point x="162" y="132"/>
      <point x="162" y="307" type="curve" smooth="yes"/>
      <point x="162" y="479"/>
      <point x="214" y="582"/>
      <point x="336" y="582" type="curve" smooth="yes"/>
      <point x="416" y="582"/>
      <point x="455" y="527"/>
      <point x="464" y="447" type="curve"/>
      <point x="512" y="447" type="line"/>
      <point x="512" y="493"/>
      <point x="511" y="555"/>
      <point x="518" y="618" type="curve"/>
      <point x="459" y="631"/>
      <point x="398" y="638"/>
      <point x="351" y="638" type="curve" smooth="yes"/>
      <point x="151" y="638"/>
      <point x="36" y="503"/>
      <point x="36" y="280" type="curve" smooth="yes"/>
      <point x="36" y="91"/>
      <point x="123" y="-15"/>
      <point x="310" y="-15" type="curve" smooth="yes"/>
      <point x="374" y="-15"/>
      <point x="459" y="1"/>
      <point x="518" y="29" type="curve"/>
      <point x="518" y="162" type="line" smooth="yes"/>
      <point x="518" y="228"/>
      <point x="519" y="251"/>
      <point x="578" y="254" type="curve"/>
      <point x="578" y="295" type="line"/>
      <point x="462" y="288"/>
      <point x="431" y="288"/>
      <point x="317" y="295" type="curve"/>
      <point x="317" y="254" type="line"/>
      <point x="386" y="251"/>
      <point x="395" y="228"/>
      <point x="395" y="162" type="curve" smooth="yes"/>
      <point x="395" y="63" type="line"/>
    </contour>
  </outline>
</glyph>
<glyph name="H" format="1">
  <advance width="718"/>
  <unicode hex="0048"/>
  <outline>
    <contour>
      <point x="549" y="618"/>
      <point x="515" y="618"/>
      <point x="396" y="628" type="curve"/>
      <point x="396" y="585" type="line"/>
      <point x="466" y="582"/>
      <point x="474" y="559"/>
      <point x="474" y="493" type="curve"/>
      <point x="474" y="132" type="line"/>
      <point x="474" y="66"/>
      <point x="466" y="43"/>
      <point x="396" y="40" type="curve"/>
      <point x="396" y="-3" type="line"/>
      <point x="515" y="5"/>
      <point x="549" y="5"/>
      <point x="670" y="-3" type="curve"/>
      <point x="670" y="40" type="line"/>
      <point x="599" y="43"/>
      <point x="591" y="66"/>
      <point x="591" y="132" type="curve"/>
      <point x="591" y="493" type="line"/>
      <point x="591" y="559"/>
      <point x="599" y="582"/>
      <point x="670" y="585" type="curve"/>
      <point x="670" y="628" type="line"/>
    </contour>
    <contour>
      <point x="201" y="618"/>
      <point x="167" y="618"/>
      <point x="48" y="627" type="curve"/>
      <point x="48" y="583" type="line"/>
      <point x="117" y="581"/>
      <point x="126" y="558"/>
      <point x="126" y="491" type="curve"/>
      <point x="126" y="132" type="line"/>
      <point x="126" y="66"/>
      <point x="117" y="43"/>
      <point x="48" y="40" type="curve"/>
      <point x="48" y="-3" type="line"/>
      <point x="167" y="5"/>
      <point x="201" y="5"/>
      <point x="322" y="-3" type="curve"/>
      <point x="322" y="40" type="line"/>
      <point x="251" y="43"/>
      <point x="243" y="66"/>
      <point x="243" y="132" type="curve"/>
      <point x="243" y="491" type="line"/>
      <point x="243" y="558"/>
      <point x="251" y="581"/>
      <point x="322" y="583" type="curve"/>
      <point x="322" y="627" type="line"/>
    </contour>
    <contour>
      <point x="188" y="353" type="line"/>
      <point x="188" y="299" type="line"/>
      <point x="512" y="299" type="line"/>
      <point x="512" y="353" type="line"/>
    </contour>
  </outline>
</glyph>
<glyph name="I" format="1">
  <advance width="370"/>
  <unicode hex="0049"/>
  <outline>
    <contour>
      <point x="201" y="618"/>
      <point x="167" y="618"/>
      <point x="48" y="627" type="curve"/>
      <point x="48" y="583" type="line"/>
      <point x="117" y="581"/>
      <point x="126" y="558"/>
      <point x="126" y="491" type="curve"/>
      <point x="126" y="132" type="line"/>
      <point x="126" y="66"/>
      <point x="117" y="43"/>
      <point x="48" y="40" type="curve"/>
      <point x="48" y="-3" type="line"/>
      <point x="167" y="6"/>
      <point x="201" y="6"/>
      <point x="322" y="-3" type="curve"/>
      <point x="322" y="40" type="line"/>
      <point x="251" y="43"/>
      <point x="243" y="66"/>
      <point x="243" y="132" type="curve"/>
      <point x="243" y="491" type="line"/>
      <point x="243" y="558"/>
      <point x="251" y="581"/>
      <point x="322" y="583" type="curve"/>
      <point x="322" y="627" type="line"/>
    </contour>
    <contour>
      <point x="186" y="622" type="move" name="top"/>
    </contour>
  </outline>
</glyph>
<glyph name="J" format="1">
  <advance width="375"/>
  <unicode hex="004A"/>
  <outline>
    <contour>
      <point x="207" y="621"/>
      <point x="174" y="621"/>
      <point x="48" y="629" type="curve"/>
      <point x="48" y="586" type="line"/>
      <point x="123" y="583"/>
      <point x="132" y="561"/>
      <point x="132" y="494" type="curve" smooth="yes"/>
      <point x="132" y="135" type="line" smooth="yes"/>
      <point x="132" y="-48"/>
      <point x="111" y="-71"/>
      <point x="52" y="-152" type="curve"/>
      <point x="80" y="-179" type="line"/>
      <point x="187" y="-114"/>
      <point x="248" y="-35"/>
      <point x="248" y="122" type="curve" smooth="yes"/>
      <point x="248" y="494" type="line" smooth="yes"/>
      <point x="248" y="561"/>
      <point x="258" y="583"/>
      <point x="328" y="586" type="curve"/>
      <point x="328" y="629" type="line"/>
    </contour>
  </outline>
</glyph>
<glyph name="K" format="1">
  <advance width="654"/>
  <unicode hex="004B"/>
  <outline>
    <contour>
      <point x="201" y="618"/>
      <point x="167" y="618"/>
      <point x="48" y="627" type="curve"/>
      <point x="48" y="583" type="line"/>
      <point x="117" y="581"/>
      <point x="126" y="558"/>
      <point x="126" y="491" type="curve" smooth="yes"/>
      <point x="126" y="132" type="line" smooth="yes"/>
      <point x="126" y="66"/>
      <point x="117" y="43"/>
      <point x="48" y="40" type="curve"/>
      <point x="48" y="-3" type="line"/>
      <point x="167" y="4"/>
      <point x="201" y="4"/>
      <point x="322" y="-3" type="curve"/>
      <point x="322" y="40" type="line"/>
      <point x="251" y="43"/>
      <point x="243" y="66"/>
      <point x="243" y="132" type="curve" smooth="yes"/>
      <point x="243" y="491" type="line" smooth="yes"/>
      <point x="243" y="558"/>
      <point x="251" y="581"/>
      <point x="322" y="583" type="curve"/>
      <point x="322" y="627" type="line"/>
    </contour>
    <contour>
      <point x="518" y="619"/>
      <point x="498" y="619"/>
      <point x="391" y="627" type="curve"/>
      <point x="391" y="583" type="line"/>
      <point x="469" y="581"/>
      <point x="457" y="549"/>
      <point x="433" y="522" type="curve" smooth="yes"/>
      <point x="214" y="270" type="line"/>
      <point x="236" y="212" type="line"/>
      <point x="527" y="545" type="line" smooth="yes"/>
      <point x="546" y="566"/>
      <point x="574" y="583"/>
      <point x="602" y="583" type="curve"/>
      <point x="602" y="627" type="line"/>
    </contour>
    <contour>
      <point x="271" y="295" type="line"/>
      <point x="435" y="0" type="line"/>
      <point x="514" y="0"/>
      <point x="523" y="1"/>
      <point x="614" y="-3" type="curve"/>
      <point x="614" y="40" type="line"/>
      <point x="563" y="42"/>
      <point x="526" y="68"/>
      <point x="498" y="121" type="curve" smooth="yes"/>
      <point x="351" y="387" type="line"/>
    </contour>
  </outline>
</glyph>
<glyph name="L" format="1">
  <advance width="534"/>
  <unicode hex="004C"/>
  <outline>
    <contour>
      <point x="201" y="618"/>
      <point x="167" y="618"/>
      <point x="48" y="627" type="curve"/>
      <point x="48" y="585" type="line"/>
      <point x="117" y="582"/>
      <point x="126" y="559"/>
      <point x="126" y="493" type="curve"/>
      <point x="126" y="132" type="line" smooth="yes"/>
      <point x="126" y="66"/>
      <point x="117" y="43"/>
      <point x="48" y="40" type="curve"/>
      <point x="48" y="-3" type="line"/>
      <point x="112" y="0"/>
      <point x="153" y="0"/>
      <point x="194" y="0" type="curve" smooth="yes"/>
      <point x="280" y="0" type="line" smooth="yes"/>
      <point x="342" y="0"/>
      <point x="395" y="-1"/>
      <point x="471" y="-7" type="curve"/>
      <point x="509" y="186" type="line"/>
      <point x="463" y="186" type="line"/>
      <point x="442" y="107"/>
      <point x="395" y="48"/>
      <point x="284" y="48" type="curve" smooth="yes"/>
      <point x="243" y="48" type="line"/>
      <point x="243" y="491" type="line"/>
      <point x="243" y="558"/>
      <point x="251" y="581"/>
      <point x="339" y="583" type="curve"/>
      <point x="339" y="627" type="line"/>
    </contour>
  </outline>
</glyph>
<glyph name="M" format="1">
  <advance width="852"/>
  <unicode hex="004D"/>
  <outline>
    <contour>
      <point x="738" y="622"/>
      <point x="673" y="622"/>
      <point x="610" y="625" type="curve"/>
      <point x="439" y="184" type="line"/>
      <point x="240" y="625" type="line"/>
      <point x="178" y="621"/>
      <point x="128" y="621"/>
      <point x="54" y="625" type="curve"/>
      <point x="54" y="581" type="line"/>
      <point x="92" y="581"/>
      <point x="134" y="565"/>
      <point x="131" y="500" type="curve" smooth="yes"/>
      <point x="108" y="144" type="line" smooth="yes"/>
      <point x="103" y="76"/>
      <point x="92" y="43"/>
      <point x="30" y="40" type="curve"/>
      <point x="30" y="-3" type="line"/>
      <point x="126" y="4"/>
      <point x="152" y="4"/>
      <point x="248" y="-3" type="curve"/>
      <point x="248" y="40" type="line"/>
      <point x="186" y="43"/>
      <point x="167" y="76"/>
      <point x="170" y="144" type="curve" smooth="yes"/>
      <point x="190" y="471" type="line"/>
      <point x="391" y="-7" type="line"/>
      <point x="390" y="-7"/>
      <point x="428" y="-7"/>
      <point x="428" y="-7" type="curve"/>
      <point x="610" y="464" type="line"/>
      <point x="630" y="132" type="line" smooth="yes"/>
      <point x="634" y="66"/>
      <point x="622" y="43"/>
      <point x="553" y="40" type="curve"/>
      <point x="553" y="-3" type="line"/>
      <point x="673" y="4"/>
      <point x="706" y="4"/>
      <point x="826" y="-3" type="curve"/>
      <point x="826" y="40" type="line"/>
      <point x="756" y="43"/>
      <point x="753" y="66"/>
      <point x="748" y="132" type="curve" smooth="yes"/>
      <point x="724" y="501" type="line" smooth="yes"/>
      <point x="720" y="565"/>
      <point x="756" y="581"/>
      <point x="801" y="581" type="curve"/>
      <point x="801" y="625" type="line"/>
    </contour>
  </outline>
</glyph>
<glyph name="N" format="1">
  <advance width="681"/>
  <unicode hex="004E"/>
  <outline>
    <contour>
      <point x="537" y="619"/>
      <point x="511" y="619"/>
      <point x="414" y="627" type="curve"/>
      <point x="414" y="583" type="line"/>
      <point x="477" y="581"/>
      <point x="493" y="529"/>
      <point x="493" y="462" type="curve" smooth="yes"/>
      <point x="493" y="226" type="line"/>
      <point x="206" y="625" type="line"/>
      <point x="153" y="622"/>
      <point x="100" y="622"/>
      <point x="48" y="625" type="curve"/>
      <point x="48" y="581" type="line"/>
      <point x="90" y="581"/>
      <point x="126" y="553"/>
      <point x="126" y="502" type="curve" smooth="yes"/>
      <point x="126" y="163" type="line" smooth="yes"/>
      <point x="126" y="96"/>
      <point x="110" y="43"/>
      <point x="48" y="40" type="curve"/>
      <point x="48" y="-3" type="line"/>
      <point x="167" y="4"/>
      <point x="146" y="4"/>
      <point x="267" y="-3" type="curve"/>
      <point x="267" y="40" type="line"/>
      <point x="203" y="43"/>
      <point x="188" y="96"/>
      <point x="188" y="163" type="curve" smooth="yes"/>
      <point x="188" y="451" type="line"/>
      <point x="511" y="0" type="line"/>
      <point x="510" y="0"/>
      <point x="555" y="0"/>
      <point x="555" y="0" type="curve"/>
      <point x="555" y="462" type="line" smooth="yes"/>
      <point x="555" y="529"/>
      <point x="570" y="581"/>
      <point x="633" y="583" type="curve"/>
      <point x="633" y="627" type="line"/>
    </contour>
    <contour>
      <point x="348" y="622" type="move" name="top"/>
    </contour>
  </outline>
</glyph>
<glyph name="O" format="1">
  <advance width="590"/>
  <unicode hex="004F"/>
  <outline>
    <contour>
      <point x="156" y="638"/>
      <point x="36" y="526"/>
      <point x="36" y="282" type="curve" smooth="yes"/>
      <point x="36" y="93"/>
      <point x="121" y="-15"/>
      <point x="282" y="-15" type="curve" smooth="yes"/>
      <point x="434" y="-15"/>
      <point x="554" y="100"/>
      <point x="554" y="346" type="curve" smooth="yes"/>
      <point x="554" y="537"/>
      <point x="470" y="638"/>
      <point x="308" y="638" type="curve" smooth="yes"/>
    </contour>
    <contour>
      <point x="386" y="587"/>
      <point x="430" y="477"/>
      <point x="430" y="331" type="curve" smooth="yes"/>
      <point x="430" y="136"/>
      <point x="389" y="37"/>
      <point x="315" y="37" type="curve" smooth="yes"/>
      <point x="212" y="37"/>
      <point x="162" y="152"/>
      <point x="162" y="298" type="curve" smooth="yes"/>
      <point x="162" y="493"/>
      <point x="194" y="587"/>
      <point x="282" y="587" type="curve" smooth="yes"/>
    </contour>
    <contour>
      <point x="294" y="622" type="move" name="top"/>
    </contour>
  </outline>
</glyph>
<glyph name="P" format="1">
  <advance width="567"/>
  <unicode hex="0050"/>
  <outline>
    <contour>
      <point x="202" y="631"/>
      <point x="156" y="625"/>
      <point x="48" y="625" type="curve"/>
      <point x="48" y="581" type="line"/>
      <point x="117" y="579"/>
      <point x="126" y="557"/>
      <point x="126" y="489" type="curve" smooth="yes"/>
      <point x="126" y="132" type="line" smooth="yes"/>
      <point x="126" y="66"/>
      <point x="117" y="43"/>
      <point x="48" y="40" type="curve"/>
      <point x="48" y="-3" type="line"/>
      <point x="167" y="4"/>
      <point x="201" y="4"/>
      <point x="339" y="-3" type="curve"/>
      <point x="339" y="40" type="line"/>
      <point x="251" y="43"/>
      <point x="243" y="66"/>
      <point x="243" y="132" type="curve" smooth="yes"/>
      <point x="243" y="578" type="line"/>
      <point x="266" y="578" type="line" smooth="yes"/>
      <point x="371" y="578"/>
      <point x="411" y="518"/>
      <point x="411" y="434" type="curve" smooth="yes"/>
      <point x="411" y="355"/>
      <point x="359" y="291"/>
      <point x="274" y="291" type="curve" smooth="yes"/>
      <point x="244" y="291"/>
      <point x="219" y="293"/>
      <point x="186" y="298" type="curve"/>
      <point x="168" y="250" type="line"/>
      <point x="203" y="244"/>
      <point x="239" y="242"/>
      <point x="274" y="242" type="curve" smooth="yes"/>
      <point x="447" y="242"/>
      <point x="535" y="315"/>
      <point x="535" y="446" type="curve" smooth="yes"/>
      <point x="535" y="555"/>
      <point x="452" y="631"/>
      <point x="280" y="631" type="curve" smooth="yes"/>
    </contour>
  </outline>
</glyph>
<glyph name="Q" format="1">
  <advance width="585"/>
  <unicode hex="0051"/>
  <outline>
    <contour>
      <point x="258" y="-11" type="line"/>
      <point x="385" y="-104" type="line" smooth="yes"/>
      <point x="425" y="-132"/>
      <point x="467" y="-144"/>
      <point x="512" y="-144" type="curve" smooth="yes"/>
      <point x="565" y="-144"/>
      <point x="617" y="-128"/>
      <point x="662" y="-104" type="curve"/>
      <point x="662" y="-66" type="line"/>
      <point x="579" y="-66"/>
      <point x="537" y="-52"/>
      <point x="498" y="-37" type="curve" smooth="yes"/>
      <point x="491" y="-35" type="line" smooth="yes"/>
      <point x="449" y="-18"/>
      <point x="416" y="-1"/>
      <point x="302" y="-1" type="curve"/>
    </contour>
    <component base="O"/>
  </outline>
</glyph>
<glyph name="R" format="1">
  <advance width="602"/>
  <unicode hex="0052"/>
  <outline>
    <contour>
      <point x="202" y="631"/>
      <point x="156" y="625"/>
      <point x="48" y="625" type="curve"/>
      <point x="48" y="581" type="line"/>
      <point x="117" y="579"/>
      <point x="126" y="557"/>
      <point x="126" y="489" type="curve" smooth="yes"/>
      <point x="126" y="132" type="line" smooth="yes"/>
      <point x="126" y="66"/>
      <point x="117" y="43"/>
      <point x="48" y="40" type="curve"/>
      <point x="48" y="-3" type="line"/>
      <point x="167" y="4"/>
      <point x="201" y="4"/>
      <point x="339" y="-3" type="curve"/>
      <point x="339" y="40" type="line"/>
      <point x="251" y="43"/>
      <point x="243" y="66"/>
      <point x="243" y="132" type="curve" smooth="yes"/>
      <point x="243" y="578" type="line"/>
      <point x="264" y="578" type="line" smooth="yes"/>
      <point x="374" y="578"/>
      <point x="411" y="523"/>
      <point x="411" y="447" type="curve" smooth="yes"/>
      <point x="411" y="375"/>
      <point x="356" y="318"/>
      <point x="268" y="318" type="curve" smooth="yes"/>
      <point x="240" y="318"/>
      <point x="216" y="320"/>
      <point x="184" y="326" type="curve"/>
      <point x="168" y="275" type="line"/>
      <point x="201" y="270"/>
      <point x="236" y="267"/>
      <point x="268" y="267" type="curve" smooth="yes"/>
      <point x="434" y="267"/>
      <point x="518" y="338"/>
      <point x="518" y="459" type="curve" smooth="yes"/>
      <point x="518" y="561"/>
      <point x="445" y="631"/>
      <point x="280" y="631" type="curve" smooth="yes"/>
    </contour>
    <contour>
      <point x="270" y="298" type="line"/>
      <point x="421" y="0" type="line"/>
      <point x="477" y="0"/>
      <point x="499" y="1"/>
      <point x="590" y="-3" type="curve"/>
      <point x="590" y="40" type="line"/>
      <point x="539" y="42"/>
      <point x="509" y="68"/>
      <point x="482" y="121" type="curve" smooth="yes"/>
      <point x="385" y="312" type="line"/>
    </contour>
  </outline>
</glyph>
<glyph name="S" format="1">
  <advance width="449"/>
  <unicode hex="0053"/>
  <outline>
    <contour>
      <point x="155" y="638"/>
      <point x="43" y="597"/>
      <point x="43" y="470" type="curve" smooth="yes"/>
      <point x="43" y="341"/>
      <point x="117" y="302"/>
      <point x="192" y="266" type="curve" smooth="yes"/>
      <point x="262" y="234"/>
      <point x="328" y="215"/>
      <point x="328" y="132" type="curve" smooth="yes"/>
      <point x="328" y="67"/>
      <point x="280" y="37"/>
      <point x="226" y="37" type="curve" smooth="yes"/>
      <point x="144" y="37"/>
      <point x="97" y="90"/>
      <point x="76" y="195" type="curve"/>
      <point x="30" y="195" type="line"/>
      <point x="37" y="136"/>
      <point x="40" y="75"/>
      <point x="40" y="16" type="curve"/>
      <point x="95" y="-5"/>
      <point x="165" y="-15"/>
      <point x="224" y="-15" type="curve" smooth="yes"/>
      <point x="334" y="-15"/>
      <point x="425" y="52"/>
      <point x="425" y="164" type="curve" smooth="yes"/>
      <point x="425" y="293"/>
      <point x="351" y="332"/>
      <point x="276" y="367" type="curve" smooth="yes"/>
      <point x="207" y="399"/>
      <point x="141" y="418"/>
      <point x="141" y="500" type="curve" smooth="yes"/>
      <point x="141" y="558"/>
      <point x="183" y="586"/>
      <point x="247" y="586" type="curve" smooth="yes"/>
      <point x="316" y="586"/>
      <point x="362" y="529"/>
      <point x="362" y="449" type="curve"/>
      <point x="404" y="449" type="line"/>
      <point x="404" y="499"/>
      <point x="406" y="558"/>
      <point x="414" y="604" type="curve"/>
      <point x="372" y="625"/>
      <point x="308" y="638"/>
      <point x="251" y="638" type="curve" smooth="yes"/>
    </contour>
    <contour>
      <point x="247" y="631" type="move" name="top"/>
    </contour>
  </outline>
</glyph>
<glyph name="T" format="1">
  <advance width="561"/>
  <unicode hex="0054"/>
  <outline>
    <contour>
      <point x="224" y="586" type="line"/>
      <point x="224" y="132" type="line"/>
      <point x="224" y="66"/>
      <point x="216" y="43"/>
      <point x="138" y="40" type="curve"/>
      <point x="138" y="-3" type="line"/>
      <point x="267" y="4"/>
      <point x="300" y="4"/>
      <point x="430" y="-3" type="curve"/>
      <point x="430" y="40" type="line"/>
      <point x="351" y="43"/>
      <point x="342" y="66"/>
      <point x="342" y="132" type="curve"/>
      <point x="342" y="586" type="line"/>
    </contour>
    <contour>
      <point x="449" y="627"/>
      <point x="404" y="625"/>
      <point x="342" y="625" type="curve"/>
      <point x="224" y="625" type="line"/>
      <point x="163" y="625"/>
      <point x="119" y="627"/>
      <point x="39" y="631" type="curve"/>
      <point x="27" y="433" type="line"/>
      <point x="66" y="433" type="line"/>
      <point x="88" y="527"/>
      <point x="120" y="577"/>
      <point x="228" y="577" type="curve"/>
      <point x="246" y="577" type="line"/>
      <point x="326" y="577" type="line"/>
      <point x="339" y="577" type="line" smooth="yes"/>
      <point x="447" y="577"/>
      <point x="478" y="527"/>
      <point x="501" y="433" type="curve"/>
      <point x="541" y="433" type="line"/>
      <point x="529" y="631" type="line"/>
    </contour>
  </outline>
</glyph>
<glyph name="U" format="1">
  <advance width="638"/>
  <unicode hex="0055"/>
  <outline>
    <contour>
      <point x="511" y="618"/>
      <point x="479" y="618"/>
      <point x="384" y="627" type="curve"/>
      <point x="384" y="583" type="line"/>
      <point x="454" y="581"/>
      <point x="462" y="558"/>
      <point x="462" y="491" type="curve" smooth="yes"/>
      <point x="462" y="178" type="line" smooth="yes"/>
      <point x="462" y="88"/>
      <point x="416" y="40"/>
      <point x="346" y="40" type="curve" smooth="yes"/>
      <point x="270" y="40"/>
      <point x="224" y="83"/>
      <point x="224" y="171" type="curve" smooth="yes"/>
      <point x="224" y="491" type="line" smooth="yes"/>
      <point x="224" y="558"/>
      <point x="234" y="581"/>
      <point x="304" y="583" type="curve"/>
      <point x="304" y="627" type="line"/>
      <point x="183" y="618"/>
      <point x="150" y="618"/>
      <point x="30" y="627" type="curve"/>
      <point x="30" y="583" type="line"/>
      <point x="99" y="581"/>
      <point x="108" y="558"/>
      <point x="108" y="491" type="curve" smooth="yes"/>
      <point x="108" y="194" type="line" smooth="yes"/>
      <point x="108" y="61"/>
      <point x="171" y="-18"/>
      <point x="323" y="-18" type="curve" smooth="yes"/>
      <point x="450" y="-18"/>
      <point x="529" y="63"/>
      <point x="529" y="189" type="curve" smooth="yes"/>
      <point x="529" y="491" type="line" smooth="yes"/>
      <point x="529" y="558"/>
      <point x="537" y="581"/>
      <point x="607" y="583" type="curve"/>
      <point x="607" y="627" type="line"/>
    </contour>
    <contour>
      <point x="343" y="622" type="move" name="top"/>
    </contour>
  </outline>
</glyph>
<glyph name="V" format="1">
  <advance width="590"/>
  <unicode hex="0056"/>
  <outline>
    <contour>
      <point x="497" y="621"/>
      <point x="486" y="621"/>
      <point x="389" y="627" type="curve"/>
      <point x="389" y="583" type="line"/>
      <point x="467" y="581"/>
      <point x="458" y="558"/>
      <point x="447" y="522" type="curve" smooth="yes"/>
      <point x="329" y="147" type="line"/>
      <point x="329" y="147"/>
      <point x="326" y="147"/>
      <point x="326" y="147" type="curve"/>
      <point x="206" y="522" type="line" smooth="yes"/>
      <point x="194" y="558"/>
      <point x="200" y="581"/>
      <point x="271" y="583" type="curve"/>
      <point x="271" y="627" type="line"/>
      <point x="151" y="618"/>
      <point x="138" y="618"/>
      <point x="18" y="627" type="curve"/>
      <point x="18" y="583" type="line"/>
      <point x="45" y="583"/>
      <point x="69" y="563"/>
      <point x="75" y="545" type="curve" smooth="yes"/>
      <point x="250" y="0" type="line"/>
      <point x="250" y="0"/>
      <point x="343" y="0"/>
      <point x="344" y="0" type="curve"/>
      <point x="519" y="545" type="line" smooth="yes"/>
      <point x="525" y="563"/>
      <point x="549" y="583"/>
      <point x="577" y="583" type="curve"/>
      <point x="577" y="627" type="line"/>
    </contour>
  </outline>
</glyph>
<glyph name="W" format="1">
  <advance width="864"/>
  <unicode hex="0057"/>
  <outline>
    <contour>
      <point x="770" y="618"/>
      <point x="733" y="618"/>
      <point x="647" y="627" type="curve"/>
      <point x="647" y="583" type="line"/>
      <point x="719" y="581"/>
      <point x="721" y="558"/>
      <point x="713" y="522" type="curve"/>
      <point x="641" y="147" type="line"/>
      <point x="641" y="147"/>
      <point x="638" y="147"/>
      <point x="638" y="147" type="curve"/>
      <point x="497" y="622" type="line"/>
      <point x="498" y="622"/>
      <point x="430" y="622"/>
      <point x="430" y="622" type="curve"/>
      <point x="300" y="147" type="line"/>
      <point x="300" y="147"/>
      <point x="296" y="147"/>
      <point x="296" y="147" type="curve"/>
      <point x="212" y="522" type="line" smooth="yes"/>
      <point x="203" y="558"/>
      <point x="206" y="581"/>
      <point x="278" y="583" type="curve"/>
      <point x="278" y="627" type="line"/>
      <point x="156" y="618"/>
      <point x="144" y="618"/>
      <point x="24" y="627" type="curve"/>
      <point x="24" y="583" type="line"/>
      <point x="52" y="583"/>
      <point x="76" y="563"/>
      <point x="81" y="545" type="curve" smooth="yes"/>
      <point x="222" y="0" type="line"/>
      <point x="222" y="0"/>
      <point x="319" y="0"/>
      <point x="320" y="0" type="curve"/>
      <point x="434" y="423" type="line"/>
      <point x="569" y="0" type="line"/>
      <point x="569" y="0"/>
      <point x="665" y="0"/>
      <point x="665" y="0" type="curve"/>
      <point x="787" y="545" type="line" smooth="yes"/>
      <point x="792" y="563"/>
      <point x="817" y="583"/>
      <point x="845" y="583" type="curve"/>
      <point x="845" y="627" type="line"/>
    </contour>
  </outline>
</glyph>
<glyph name="X" format="1">
  <advance width="638"/>
  <unicode hex="0058"/>
  <outline>
    <contour>
      <point x="287" y="272" type="line"/>
      <point x="396" y="103" type="line" smooth="yes"/>
      <point x="416" y="72"/>
      <point x="402" y="43"/>
      <point x="330" y="40" type="curve"/>
      <point x="330" y="-3" type="line"/>
      <point x="451" y="4"/>
      <point x="482" y="4"/>
      <point x="602" y="-3" type="curve"/>
      <point x="602" y="40" type="line"/>
      <point x="574" y="40"/>
      <point x="555" y="63"/>
      <point x="545" y="80" type="curve" smooth="yes"/>
      <point x="356" y="367" type="line"/>
    </contour>
    <contour>
      <point x="97" y="80" type="line" smooth="yes"/>
      <point x="85" y="64"/>
      <point x="57" y="40"/>
      <point x="30" y="40" type="curve"/>
      <point x="30" y="-3" type="line"/>
      <point x="111" y="3"/>
      <point x="158" y="3"/>
      <point x="247" y="-3" type="curve"/>
      <point x="247" y="40" type="line"/>
      <point x="175" y="43"/>
      <point x="167" y="73"/>
      <point x="190" y="103" type="curve" smooth="yes"/>
      <point x="330" y="293" type="line"/>
      <point x="283" y="329" type="line"/>
    </contour>
    <contour>
      <point x="183" y="618"/>
      <point x="156" y="618"/>
      <point x="44" y="627" type="curve"/>
      <point x="44" y="583" type="line"/>
      <point x="72" y="583"/>
      <point x="92" y="562"/>
      <point x="102" y="545" type="curve"/>
      <point x="278" y="272" type="line"/>
      <point x="347" y="367" type="line"/>
      <point x="246" y="522" type="line" smooth="yes"/>
      <point x="224" y="553"/>
      <point x="239" y="581"/>
      <point x="311" y="583" type="curve"/>
      <point x="311" y="627" type="line"/>
    </contour>
    <contour>
      <point x="519" y="618"/>
      <point x="470" y="618"/>
      <point x="383" y="627" type="curve"/>
      <point x="383" y="583" type="line"/>
      <point x="454" y="581"/>
      <point x="462" y="551"/>
      <point x="439" y="522" type="curve" smooth="yes"/>
      <point x="283" y="316" type="line"/>
      <point x="329" y="280" type="line"/>
      <point x="526" y="545" type="line" smooth="yes"/>
      <point x="538" y="561"/>
      <point x="566" y="583"/>
      <point x="593" y="583" type="curve"/>
      <point x="593" y="627" type="line"/>
    </contour>
  </outline>
</glyph>
<glyph name="Y" format="1">
  <advance width="573"/>
  <unicode hex="0059"/>
  <outline>
    <contour>
      <point x="502" y="621"/>
      <point x="466" y="621"/>
      <point x="378" y="627" type="curve"/>
      <point x="378" y="583" type="line"/>
      <point x="455" y="581"/>
      <point x="451" y="553"/>
      <point x="433" y="522" type="curve" smooth="yes"/>
      <point x="328" y="347" type="line"/>
      <point x="326" y="347" type="line"/>
      <point x="213" y="522" type="line" smooth="yes"/>
      <point x="191" y="555"/>
      <point x="189" y="581"/>
      <point x="268" y="583" type="curve"/>
      <point x="268" y="627" type="line"/>
      <point x="147" y="618"/>
      <point x="126" y="618"/>
      <point x="6" y="627" type="curve"/>
      <point x="6" y="583" type="line"/>
      <point x="33" y="583"/>
      <point x="52" y="561"/>
      <point x="63" y="545" type="curve"/>
      <point x="244" y="259" type="line"/>
      <point x="244" y="132" type="line" smooth="yes"/>
      <point x="244" y="66"/>
      <point x="236" y="43"/>
      <point x="156" y="40" type="curve"/>
      <point x="156" y="-3" type="line"/>
      <point x="286" y="4"/>
      <point x="319" y="4"/>
      <point x="449" y="-3" type="curve"/>
      <point x="449" y="40" type="line"/>
      <point x="370" y="43"/>
      <point x="362" y="66"/>
      <point x="362" y="132" type="curve"/>
      <point x="362" y="288" type="line"/>
      <point x="514" y="545" type="line" smooth="yes"/>
      <point x="529" y="569"/>
      <point x="545" y="583"/>
      <point x="571" y="583" type="curve"/>
      <point x="571" y="627" type="line"/>
    </contour>
    <contour>
      <point x="322" y="622" type="move" name="top"/>
    </contour>
  </outline>
</glyph>
<glyph name="Z" format="1">
  <advance width="515"/>
  <unicode hex="005A"/>
  <outline>
    <contour>
      <point x="43" y="452" type="line"/>
      <point x="90" y="452" type="line"/>
      <point x="108" y="525"/>
      <point x="132" y="577"/>
      <point x="240" y="577" type="curve" smooth="yes"/>
      <point x="338" y="577" type="line"/>
      <point x="36" y="32" type="line"/>
      <point x="36" y="0" type="line"/>
      <point x="258" y="0" type="line" smooth="yes"/>
      <point x="324" y="0"/>
      <point x="371" y="-1"/>
      <point x="457" y="-7" type="curve"/>
      <point x="497" y="200" type="line"/>
      <point x="454" y="200" type="line"/>
      <point x="431" y="115"/>
      <point x="387" y="48"/>
      <point x="270" y="48" type="curve" smooth="yes"/>
      <point x="180" y="48" type="line"/>
      <point x="470" y="577" type="line"/>
      <point x="470" y="625" type="line"/>
      <point x="240" y="625" type="line" smooth="yes"/>
      <point x="178" y="625"/>
      <point x="134" y="626"/>
      <point x="54" y="631" type="curve"/>
    </contour>
    <contour>
      <point x="272" y="622" type="move" name="top"/>
    </contour>
  </outline>
</glyph>
<glyph name="bracketleft" format="1">
  <advance width="303"/>
  <unicode hex="005B"/>
  <outline>
    <contour>
      <point x="60" y="630" type="line"/>
      <point x="60" y="-159" type="line"/>
      <point x="260" y="-159" type="line"/>
      <point x="260" y="-98" type="line"/>
      <point x="167" y="-98" type="line"/>
      <point x="167" y="569" type="line"/>
      <point x="260" y="569" type="line"/>
      <point x="260" y="630" type="line"/>
    </contour>
  </outline>
</glyph>
<glyph name="asciicircum" format="1">
  <advance width="521"/>
  <unicode hex="005E"/>
  <outline>
    <contour>
      <point x="203" y="658" type="line"/>
      <point x="24" y="305" type="line"/>
      <point x="153" y="305" type="line"/>
      <point x="259" y="535" type="line"/>
      <point x="366" y="305" type="line"/>
      <point x="497" y="305" type="line"/>
      <point x="317" y="658" type="line"/>
    </contour>
  </outline>
</glyph>
<glyph name="grave" format="1">
  <advance width="282"/>
  <unicode hex="0060"/>
  <outline>
    <component base="acute" xOffset="282" xScale="-1"/>
    <contour>
      <point x="150" y="517" type="move" name="_top"/>
    </contour>
  </outline>
</glyph>
<glyph name="a" format="1">
  <advance width="467"/>
  <unicode hex="0061"/>
  <outline>
    <contour>
      <point x="172" y="485"/>
      <point x="123" y="471"/>
      <point x="76" y="451" type="curve"/>
      <point x="76" y="305" type="line"/>
      <point x="134" y="305" type="line"/>
      <point x="134" y="394"/>
      <point x="155" y="443"/>
      <point x="206" y="443" type="curve" smooth="yes"/>
      <point x="258" y="443"/>
      <point x="279" y="415"/>
      <point x="279" y="348" type="curve" smooth="yes"/>
      <point x="279" y="262" type="line"/>
      <point x="121" y="262"/>
      <point x="30" y="215"/>
      <point x="30" y="109" type="curve" smooth="yes"/>
      <point x="30" y="25"/>
      <point x="73" y="-15"/>
      <point x="155" y="-15" type="curve" smooth="yes"/>
      <point x="213" y="-15"/>
      <point x="280" y="32"/>
      <point x="299" y="119" type="curve"/>
      <point x="279" y="144" type="line"/>
      <point x="264" y="91"/>
      <point x="231" y="60"/>
      <point x="190" y="60" type="curve" smooth="yes"/>
      <point x="155" y="60"/>
      <point x="138" y="83"/>
      <point x="138" y="123" type="curve" smooth="yes"/>
      <point x="138" y="177"/>
      <point x="167" y="218"/>
      <point x="278" y="218" type="curve"/>
      <point x="278" y="97" type="line"/>
      <point x="278" y="97"/>
      <point x="288" y="100"/>
      <point x="288" y="100" type="curve"/>
      <point x="288" y="-3" type="line"/>
      <point x="346" y="4"/>
      <point x="404" y="3"/>
      <point x="462" y="-3" type="curve"/>
      <point x="462" y="37" type="line"/>
      <point x="389" y="40"/>
      <point x="386" y="61"/>
      <point x="386" y="123" type="curve"/>
      <point x="386" y="339" type="line" smooth="yes"/>
      <point x="386" y="452"/>
      <point x="318" y="485"/>
      <point x="226" y="485" type="curve" smooth="yes"/>
    </contour>
    <contour>
      <point x="228" y="497" type="move" name="top"/>
    </contour>
  </outline>
</glyph>
<glyph name="b" format="1">
  <advance width="514"/>
  <unicode hex="0062"/>
  <outline>
    <contour>
      <point x="12" y="630" type="line"/>
      <point x="12" y="592" type="line"/>
      <point x="85" y="590"/>
      <point x="87" y="569"/>
      <point x="87" y="513" type="curve" smooth="yes"/>
      <point x="87" y="12" type="line"/>
      <point x="144" y="-5"/>
      <point x="208" y="-15"/>
      <point x="259" y="-15" type="curve" smooth="yes"/>
      <point x="399" y="-15"/>
      <point x="488" y="67"/>
      <point x="488" y="262" type="curve" smooth="yes"/>
      <point x="488" y="396"/>
      <point x="433" y="485"/>
      <point x="319" y="485" type="curve" smooth="yes"/>
      <point x="248" y="485"/>
      <point x="191" y="438"/>
      <point x="165" y="351" type="curve"/>
      <point x="195" y="317" type="line"/>
      <point x="213" y="382"/>
      <point x="244" y="420"/>
      <point x="286" y="420" type="curve" smooth="yes"/>
      <point x="343" y="420"/>
      <point x="372" y="354"/>
      <point x="372" y="236" type="curve" smooth="yes"/>
      <point x="372" y="111"/>
      <point x="347" y="29"/>
      <point x="276" y="29" type="curve" smooth="yes"/>
      <point x="236" y="29"/>
      <point x="195" y="48"/>
      <point x="195" y="97" type="curve" smooth="yes"/>
      <point x="195" y="650" type="line"/>
      <point x="172" y="661" type="line"/>
    </contour>
  </outline>
</glyph>
<glyph name="c" format="1">
  <advance width="410"/>
  <unicode hex="0063"/>
  <outline>
    <contour>
      <point x="110" y="483"/>
      <point x="27" y="379"/>
      <point x="27" y="211" type="curve" smooth="yes"/>
      <point x="27" y="67"/>
      <point x="90" y="-12"/>
      <point x="212" y="-12" type="curve" smooth="yes"/>
      <point x="260" y="-12"/>
      <point x="343" y="9"/>
      <point x="386" y="98" type="curve"/>
      <point x="386" y="98"/>
      <point x="354" y="117"/>
      <point x="354" y="117" type="curve"/>
      <point x="322" y="73"/>
      <point x="282" y="57"/>
      <point x="240" y="57" type="curve" smooth="yes"/>
      <point x="171" y="57"/>
      <point x="141" y="119"/>
      <point x="141" y="231" type="curve" smooth="yes"/>
      <point x="141" y="362"/>
      <point x="167" y="442"/>
      <point x="244" y="442" type="curve" smooth="yes"/>
      <point x="291" y="442"/>
      <point x="324" y="397"/>
      <point x="324" y="324" type="curve"/>
      <point x="372" y="324" type="line"/>
      <point x="372" y="467" type="line"/>
      <point x="330" y="478"/>
      <point x="293" y="483"/>
      <point x="259" y="483" type="curve" smooth="yes"/>
    </contour>
    <contour>
      <point x="199" y="-30" type="move" name="bottom"/>
    </contour>
  </outline>
</glyph>
<glyph name="d" format="1">
  <advance width="526"/>
  <unicode hex="0064"/>
  <outline>
    <contour>
      <point x="244" y="629" type="line"/>
      <point x="244" y="591" type="line"/>
      <point x="317" y="589"/>
      <point x="319" y="567"/>
      <point x="319" y="512" type="curve" smooth="yes"/>
      <point x="319" y="117" type="line"/>
      <point x="324" y="100" type="line"/>
      <point x="324" y="-5" type="line"/>
      <point x="347" y="-15" type="line"/>
      <point x="502" y="15" type="line"/>
      <point x="502" y="54" type="line"/>
      <point x="430" y="56"/>
      <point x="427" y="78"/>
      <point x="427" y="132" type="curve" smooth="yes"/>
      <point x="427" y="650" type="line"/>
      <point x="404" y="661" type="line"/>
    </contour>
    <contour>
      <point x="121" y="485"/>
      <point x="27" y="384"/>
      <point x="27" y="208" type="curve" smooth="yes"/>
      <point x="27" y="72"/>
      <point x="80" y="-15"/>
      <point x="202" y="-15" type="curve" smooth="yes"/>
      <point x="267" y="-15"/>
      <point x="323" y="32"/>
      <point x="350" y="119" type="curve"/>
      <point x="319" y="134" type="line"/>
      <point x="293" y="78"/>
      <point x="267" y="52"/>
      <point x="228" y="52" type="curve" smooth="yes"/>
      <point x="176" y="52"/>
      <point x="143" y="112"/>
      <point x="143" y="234" type="curve" smooth="yes"/>
      <point x="143" y="359"/>
      <point x="167" y="443"/>
      <point x="238" y="443" type="curve" smooth="yes"/>
      <point x="279" y="443"/>
      <point x="319" y="423"/>
      <point x="319" y="374" type="curve"/>
      <point x="422" y="458" type="line"/>
      <point x="367" y="475"/>
      <point x="305" y="485"/>
      <point x="255" y="485" type="curve" smooth="yes"/>
    </contour>
  </outline>
</glyph>
<glyph name="e" format="1">
  <advance width="422"/>
  <unicode hex="0065"/>
  <outline>
    <contour>
      <point x="124" y="485"/>
      <point x="27" y="408"/>
      <point x="27" y="210" type="curve" smooth="yes"/>
      <point x="27" y="63"/>
      <point x="97" y="-16"/>
      <point x="211" y="-16" type="curve" smooth="yes"/>
      <point x="288" y="-16"/>
      <point x="359" y="19"/>
      <point x="404" y="96" type="curve"/>
      <point x="404" y="96"/>
      <point x="374" y="116"/>
      <point x="374" y="116" type="curve"/>
      <point x="332" y="75"/>
      <point x="286" y="56"/>
      <point x="242" y="56" type="curve" smooth="yes"/>
      <point x="176" y="56"/>
      <point x="140" y="115"/>
      <point x="140" y="228" type="curve" smooth="yes"/>
      <point x="140" y="371"/>
      <point x="167" y="443"/>
      <point x="224" y="443" type="curve" smooth="yes"/>
      <point x="268" y="443"/>
      <point x="280" y="374"/>
      <point x="283" y="296" type="curve"/>
      <point x="92" y="296" type="line"/>
      <point x="84" y="251" type="line"/>
      <point x="398" y="251" type="line"/>
      <point x="398" y="351"/>
      <point x="372" y="485"/>
      <point x="239" y="485" type="curve" smooth="yes"/>
    </contour>
    <contour>
      <point x="232" y="497" type="move" name="top"/>
    </contour>
  </outline>
</glyph>
<glyph name="f" format="1">
  <advance width="365"/>
  <unicode hex="0066"/>
  <outline>
    <contour>
      <point x="150" y="658"/>
      <point x="93" y="581"/>
      <point x="93" y="495" type="curve" smooth="yes"/>
      <point x="93" y="123" type="line"/>
      <point x="93" y="61"/>
      <point x="91" y="40"/>
      <point x="18" y="37" type="curve"/>
      <point x="18" y="-3" type="line"/>
      <point x="147" y="3"/>
      <point x="144" y="3"/>
      <point x="291" y="-3" type="curve"/>
      <point x="291" y="37" type="line"/>
      <point x="203" y="40"/>
      <point x="201" y="61"/>
      <point x="201" y="123" type="curve"/>
      <point x="201" y="505" type="line" smooth="yes"/>
      <point x="201" y="571"/>
      <point x="212" y="615"/>
      <point x="258" y="615" type="curve" smooth="yes"/>
      <point x="296" y="615"/>
      <point x="312" y="590"/>
      <point x="312" y="526" type="curve"/>
      <point x="359" y="526" type="line"/>
      <point x="359" y="646" type="line"/>
      <point x="327" y="653"/>
      <point x="322" y="658"/>
      <point x="272" y="658" type="curve" smooth="yes"/>
    </contour>
    <contour>
      <point x="93" y="470" type="line"/>
      <point x="23" y="454" type="line"/>
      <point x="23" y="425" type="line"/>
      <point x="327" y="425" type="line"/>
      <point x="327" y="470" type="line"/>
    </contour>
  </outline>
</glyph>
<glyph name="g" format="1">
  <advance width="482"/>
  <unicode hex="0067"/>
  <outline>
    <contour>
      <point x="112" y="175"/>
      <point x="66" y="132"/>
      <point x="66" y="76" type="curve" smooth="yes"/>
      <point x="66" y="15"/>
      <point x="110" y="-19"/>
      <point x="198" y="-19" type="curve" smooth="yes"/>
      <point x="296" y="-19" type="line" smooth="yes"/>
      <point x="348" y="-19"/>
      <point x="368" y="-36"/>
      <point x="368" y="-71" type="curve" smooth="yes"/>
      <point x="368" y="-123"/>
      <point x="306" y="-160"/>
      <point x="244" y="-160" type="curve" smooth="yes"/>
      <point x="155" y="-160"/>
      <point x="122" y="-114"/>
      <point x="122" y="-75" type="curve" smooth="yes"/>
      <point x="122" y="-33"/>
      <point x="144" y="-5"/>
      <point x="170" y="11" type="curve"/>
      <point x="128" y="35" type="line"/>
      <point x="73" y="20"/>
      <point x="24" y="-29"/>
      <point x="24" y="-92" type="curve" smooth="yes"/>
      <point x="24" y="-167"/>
      <point x="103" y="-210"/>
      <point x="216" y="-210" type="curve" smooth="yes"/>
      <point x="363" y="-210"/>
      <point x="449" y="-120"/>
      <point x="449" y="-30" type="curve" smooth="yes"/>
      <point x="449" y="36"/>
      <point x="406" y="80"/>
      <point x="319" y="80" type="curve" smooth="yes"/>
      <point x="198" y="80" type="line" smooth="yes"/>
      <point x="155" y="80"/>
      <point x="132" y="91"/>
      <point x="132" y="112" type="curve" smooth="yes"/>
      <point x="132" y="128"/>
      <point x="144" y="147"/>
      <point x="176" y="152" type="curve"/>
      <point x="176" y="151"/>
      <point x="174" y="170"/>
      <point x="174" y="170" type="curve"/>
    </contour>
    <contour>
      <point x="268" y="443"/>
      <point x="287" y="392"/>
      <point x="287" y="319" type="curve" smooth="yes"/>
      <point x="287" y="243"/>
      <point x="270" y="177"/>
      <point x="224" y="177" type="curve" smooth="yes"/>
      <point x="168" y="177"/>
      <point x="150" y="224"/>
      <point x="150" y="296" type="curve" smooth="yes"/>
      <point x="150" y="374"/>
      <point x="167" y="443"/>
      <point x="213" y="443" type="curve" smooth="yes"/>
    </contour>
    <contour>
      <point x="129" y="485"/>
      <point x="43" y="423"/>
      <point x="43" y="291" type="curve" smooth="yes"/>
      <point x="43" y="191"/>
      <point x="99" y="135"/>
      <point x="207" y="135" type="curve" smooth="yes"/>
      <point x="310" y="135"/>
      <point x="391" y="194"/>
      <point x="391" y="326" type="curve" smooth="yes"/>
      <point x="391" y="367"/>
      <point x="375" y="406"/>
      <point x="350" y="431" type="curve"/>
      <point x="355" y="443" type="line"/>
      <point x="329" y="470"/>
      <point x="287" y="485"/>
      <point x="231" y="485" type="curve" smooth="yes"/>
    </contour>
    <contour>
      <point x="330" y="382" type="line"/>
      <point x="354" y="382" type="line"/>
      <point x="385" y="392"/>
      <point x="423" y="389"/>
      <point x="457" y="389" type="curve"/>
      <point x="457" y="438" type="line"/>
      <point x="403" y="438"/>
      <point x="355" y="454"/>
      <point x="305" y="474" type="curve"/>
    </contour>
  </outline>
</glyph>
<glyph name="h" format="1">
  <advance width="566"/>
  <unicode hex="0068"/>
  <outline>
    <contour>
      <point x="284" y="485"/>
      <point x="203" y="433"/>
      <point x="172" y="339" type="curve"/>
      <point x="186" y="306" type="line"/>
      <point x="211" y="362"/>
      <point x="258" y="410"/>
      <point x="307" y="410" type="curve" smooth="yes"/>
      <point x="344" y="410"/>
      <point x="377" y="390"/>
      <point x="377" y="339" type="curve" smooth="yes"/>
      <point x="377" y="123" type="line"/>
      <point x="377" y="61"/>
      <point x="374" y="40"/>
      <point x="304" y="37" type="curve"/>
      <point x="304" y="-3" type="line"/>
      <point x="433" y="3"/>
      <point x="431" y="3"/>
      <point x="559" y="-3" type="curve"/>
      <point x="559" y="37" type="line"/>
      <point x="487" y="40"/>
      <point x="485" y="61"/>
      <point x="485" y="123" type="curve"/>
      <point x="485" y="356" type="line" smooth="yes"/>
      <point x="485" y="443"/>
      <point x="430" y="485"/>
      <point x="351" y="485" type="curve" smooth="yes"/>
    </contour>
    <contour>
      <point x="18" y="628" type="line"/>
      <point x="18" y="590" type="line"/>
      <point x="91" y="587"/>
      <point x="93" y="566"/>
      <point x="93" y="511" type="curve"/>
      <point x="93" y="123" type="line"/>
      <point x="93" y="61"/>
      <point x="91" y="40"/>
      <point x="18" y="37" type="curve"/>
      <point x="18" y="-3" type="line"/>
      <point x="147" y="3"/>
      <point x="144" y="3"/>
      <point x="274" y="-3" type="curve"/>
      <point x="274" y="37" type="line"/>
      <point x="203" y="40"/>
      <point x="201" y="61"/>
      <point x="201" y="123" type="curve"/>
      <point x="201" y="649" type="line"/>
      <point x="178" y="658" type="line"/>
    </contour>
  </outline>
</glyph>
<glyph name="j" format="1">
  <advance width="260"/>
  <unicode hex="006A"/>
  <outline>
    <contour>
      <point x="18" y="452" type="line"/>
      <point x="18" y="416" type="line"/>
      <point x="91" y="414"/>
      <point x="93" y="392"/>
      <point x="93" y="338" type="curve" smooth="yes"/>
      <point x="93" y="96" type="line" smooth="yes"/>
      <point x="93" y="-56"/>
      <point x="61" y="-119"/>
      <point x="-17" y="-187" type="curve"/>
      <point x="0" y="-210" type="line"/>
      <point x="126" y="-150"/>
      <point x="201" y="-81"/>
      <point x="201" y="63" type="curve" smooth="yes"/>
      <point x="201" y="474" type="line"/>
      <point x="178" y="483" type="line"/>
    </contour>
    <component base="dotaccent" xOffset="-3" yOffset="-20"/>
  </outline>
</glyph>
<glyph name="k" format="1">
  <advance width="535"/>
  <unicode hex="006B"/>
  <outline>
    <contour>
      <point x="18" y="627" type="line"/>
      <point x="18" y="589" type="line"/>
      <point x="91" y="586"/>
      <point x="93" y="565"/>
      <point x="93" y="510" type="curve" smooth="yes"/>
      <point x="93" y="123" type="line" smooth="yes"/>
      <point x="93" y="61"/>
      <point x="91" y="40"/>
      <point x="18" y="37" type="curve"/>
      <point x="18" y="-3" type="line"/>
      <point x="78" y="0"/>
      <point x="112" y="1"/>
      <point x="147" y="1" type="curve" smooth="yes"/>
      <point x="182" y="1"/>
      <point x="216" y="0"/>
      <point x="276" y="-3" type="curve"/>
      <point x="276" y="37" type="line"/>
      <point x="203" y="40"/>
      <point x="201" y="61"/>
      <point x="201" y="123" type="curve" smooth="yes"/>
      <point x="201" y="649" type="line"/>
      <point x="178" y="658" type="line"/>
    </contour>
    <contour>
      <point x="213" y="232" type="line"/>
      <point x="365" y="0" type="line"/>
      <point x="395" y="1"/>
      <point x="418" y="3"/>
      <point x="440" y="3" type="curve" smooth="yes"/>
      <point x="464" y="3"/>
      <point x="489" y="1"/>
      <point x="523" y="0" type="curve"/>
      <point x="523" y="40" type="line"/>
      <point x="479" y="40"/>
      <point x="450" y="66"/>
      <point x="428" y="99" type="curve" smooth="yes"/>
      <point x="291" y="314" type="line"/>
    </contour>
    <contour>
      <point x="462" y="471"/>
      <point x="431" y="470"/>
      <point x="399" y="470" type="curve" smooth="yes"/>
      <point x="362" y="470"/>
      <point x="326" y="471"/>
      <point x="287" y="473" type="curve"/>
      <point x="287" y="433" type="line"/>
      <point x="326" y="431"/>
      <point x="343" y="419"/>
      <point x="343" y="402" type="curve" smooth="yes"/>
      <point x="343" y="394"/>
      <point x="338" y="383"/>
      <point x="327" y="372" type="curve" smooth="yes"/>
      <point x="252" y="295" type="line" smooth="yes"/>
      <point x="213" y="251"/>
      <point x="171" y="207"/>
      <point x="136" y="158" type="curve"/>
      <point x="165" y="138" type="line"/>
      <point x="390" y="370" type="line" smooth="yes"/>
      <point x="428" y="409"/>
      <point x="445" y="431"/>
      <point x="494" y="433" type="curve"/>
      <point x="494" y="473" type="line"/>
    </contour>
  </outline>
</glyph>
<glyph name="l" format="1">
  <advance width="300"/>
  <unicode hex="006C"/>
  <outline>
    <contour>
      <point x="18" y="627" type="line"/>
      <point x="18" y="589" type="line"/>
      <point x="91" y="586"/>
      <point x="93" y="565"/>
      <point x="93" y="510" type="curve"/>
      <point x="93" y="123" type="line"/>
      <point x="93" y="61"/>
      <point x="91" y="40"/>
      <point x="18" y="37" type="curve"/>
      <point x="18" y="-3" type="line"/>
      <point x="138" y="3"/>
      <point x="156" y="3"/>
      <point x="276" y="-3" type="curve"/>
      <point x="276" y="37" type="line"/>
      <point x="203" y="40"/>
      <point x="201" y="61"/>
      <point x="201" y="123" type="curve"/>
      <point x="201" y="649" type="line"/>
      <point x="178" y="658" type="line"/>
    </contour>
  </outline>
</glyph>
<glyph name="m" format="1">
  <advance width="818"/>
  <unicode hex="006D"/>
  <outline>
    <contour>
      <point x="546" y="485"/>
      <point x="470" y="433"/>
      <point x="440" y="339" type="curve"/>
      <point x="454" y="306" type="line"/>
      <point x="476" y="362"/>
      <point x="519" y="410"/>
      <point x="566" y="410" type="curve" smooth="yes"/>
      <point x="599" y="410"/>
      <point x="629" y="390"/>
      <point x="629" y="339" type="curve" smooth="yes"/>
      <point x="629" y="123" type="line"/>
      <point x="629" y="61"/>
      <point x="627" y="40"/>
      <point x="562" y="37" type="curve"/>
      <point x="562" y="-3" type="line"/>
      <point x="664" y="3"/>
      <point x="707" y="3"/>
      <point x="812" y="-3" type="curve"/>
      <point x="812" y="37" type="line"/>
      <point x="739" y="40"/>
      <point x="737" y="61"/>
      <point x="737" y="123" type="curve"/>
      <point x="737" y="356" type="line" smooth="yes"/>
      <point x="737" y="443"/>
      <point x="685" y="485"/>
      <point x="610" y="485" type="curve" smooth="yes"/>
    </contour>
    <contour>
      <point x="18" y="454" type="line"/>
      <point x="18" y="416" type="line"/>
      <point x="91" y="414"/>
      <point x="93" y="392"/>
      <point x="93" y="338" type="curve"/>
      <point x="93" y="122" type="line"/>
      <point x="93" y="60"/>
      <point x="91" y="39"/>
      <point x="18" y="36" type="curve"/>
      <point x="18" y="-4" type="line"/>
      <point x="147" y="4"/>
      <point x="144" y="4"/>
      <point x="268" y="-4" type="curve"/>
      <point x="268" y="36" type="line"/>
      <point x="203" y="39"/>
      <point x="201" y="60"/>
      <point x="201" y="122" type="curve"/>
      <point x="201" y="353" type="line"/>
      <point x="196" y="370" type="line"/>
      <point x="196" y="475" type="line"/>
      <point x="174" y="485" type="line"/>
    </contour>
    <contour>
      <point x="279" y="485"/>
      <point x="202" y="433"/>
      <point x="172" y="339" type="curve"/>
      <point x="175" y="339"/>
      <point x="186" y="306"/>
      <point x="186" y="306" type="curve"/>
      <point x="208" y="362"/>
      <point x="251" y="410"/>
      <point x="298" y="410" type="curve" smooth="yes"/>
      <point x="331" y="410"/>
      <point x="362" y="390"/>
      <point x="362" y="339" type="curve" smooth="yes"/>
      <point x="362" y="123" type="line"/>
      <point x="362" y="61"/>
      <point x="359" y="40"/>
      <point x="292" y="37" type="curve"/>
      <point x="292" y="-3" type="line"/>
      <point x="394" y="3"/>
      <point x="431" y="3"/>
      <point x="538" y="-3" type="curve"/>
      <point x="538" y="37" type="line"/>
      <point x="471" y="40"/>
      <point x="469" y="61"/>
      <point x="469" y="123" type="curve"/>
      <point x="469" y="356" type="line" smooth="yes"/>
      <point x="469" y="443"/>
      <point x="418" y="485"/>
      <point x="342" y="485" type="curve" smooth="yes"/>
    </contour>
  </outline>
</glyph>
<glyph name="n" format="1">
  <advance width="566"/>
  <unicode hex="006E"/>
  <outline>
    <contour>
      <point x="284" y="485"/>
      <point x="203" y="433"/>
      <point x="172" y="339" type="curve"/>
      <point x="175" y="339"/>
      <point x="186" y="307"/>
      <point x="186" y="307" type="curve"/>
      <point x="211" y="362"/>
      <point x="258" y="410"/>
      <point x="307" y="410" type="curve" smooth="yes"/>
      <point x="344" y="410"/>
      <point x="377" y="390"/>
      <point x="377" y="339" type="curve" smooth="yes"/>
      <point x="377" y="123" type="line"/>
      <point x="377" y="61"/>
      <point x="374" y="40"/>
      <point x="304" y="37" type="curve"/>
      <point x="304" y="-3" type="line"/>
      <point x="410" y="3"/>
      <point x="455" y="3"/>
      <point x="559" y="-3" type="curve"/>
      <point x="559" y="37" type="line"/>
      <point x="487" y="40"/>
      <point x="485" y="61"/>
      <point x="485" y="123" type="curve"/>
      <point x="485" y="356" type="line" smooth="yes"/>
      <point x="485" y="443"/>
      <point x="430" y="485"/>
      <point x="351" y="485" type="curve" smooth="yes"/>
    </contour>
    <contour>
      <point x="18" y="454" type="line"/>
      <point x="18" y="416" type="line"/>
      <point x="91" y="414"/>
      <point x="93" y="392"/>
      <point x="93" y="338" type="curve"/>
      <point x="93" y="123" type="line"/>
      <point x="93" y="61"/>
      <point x="91" y="40"/>
      <point x="18" y="37" type="curve"/>
      <point x="18" y="-3" type="line"/>
      <point x="116" y="3"/>
      <point x="163" y="3"/>
      <point x="274" y="-3" type="curve"/>
      <point x="274" y="37" type="line"/>
      <point x="203" y="40"/>
      <point x="201" y="61"/>
      <point x="201" y="123" type="curve"/>
      <point x="201" y="353" type="line"/>
      <point x="196" y="370" type="line"/>
      <point x="196" y="475" type="line"/>
      <point x="174" y="485" type="line"/>
    </contour>
    <contour>
      <point x="293" y="497" type="move" name="top"/>
    </contour>
  </outline>
</glyph>
<glyph name="o" format="1">
  <advance width="455"/>
  <unicode hex="006F"/>
  <outline>
    <contour>
      <point x="122" y="485"/>
      <point x="27" y="398"/>
      <point x="27" y="212" type="curve" smooth="yes"/>
      <point x="27" y="68"/>
      <point x="95" y="-15"/>
      <point x="218" y="-15" type="curve" smooth="yes"/>
      <point x="334" y="-15"/>
      <point x="430" y="73"/>
      <point x="430" y="260" type="curve" smooth="yes"/>
      <point x="430" y="407"/>
      <point x="362" y="485"/>
      <point x="238" y="485" type="curve" smooth="yes"/>
    </contour>
    <contour>
      <point x="284" y="440"/>
      <point x="315" y="359"/>
      <point x="315" y="250" type="curve" smooth="yes"/>
      <point x="315" y="103"/>
      <point x="286" y="29"/>
      <point x="240" y="29" type="curve" smooth="yes"/>
      <point x="176" y="29"/>
      <point x="141" y="115"/>
      <point x="141" y="224" type="curve" smooth="yes"/>
      <point x="141" y="371"/>
      <point x="165" y="440"/>
      <point x="220" y="440" type="curve" smooth="yes"/>
    </contour>
    <contour>
      <point x="231" y="497" type="move" name="top"/>
    </contour>
  </outline>
</glyph>
<glyph name="p" format="1">
  <advance width="521"/>
  <unicode hex="0070"/>
  <outline>
    <contour>
      <point x="258" y="485"/>
      <point x="198" y="438"/>
      <point x="171" y="351" type="curve"/>
      <point x="201" y="317" type="line"/>
      <point x="220" y="384"/>
      <point x="251" y="420"/>
      <point x="291" y="420" type="curve" smooth="yes"/>
      <point x="348" y="420"/>
      <point x="378" y="356"/>
      <point x="378" y="247" type="curve" smooth="yes"/>
      <point x="378" y="127"/>
      <point x="353" y="33"/>
      <point x="282" y="33" type="curve" smooth="yes"/>
      <point x="242" y="33"/>
      <point x="201" y="52"/>
      <point x="201" y="102" type="curve"/>
      <point x="98" y="20" type="line"/>
      <point x="153" y="3"/>
      <point x="215" y="-9"/>
      <point x="266" y="-9" type="curve" smooth="yes"/>
      <point x="411" y="-9"/>
      <point x="494" y="103"/>
      <point x="494" y="271" type="curve" smooth="yes"/>
      <point x="494" y="398"/>
      <point x="438" y="485"/>
      <point x="322" y="485" type="curve" smooth="yes"/>
    </contour>
    <contour>
      <point x="18" y="455" type="line"/>
      <point x="18" y="416" type="line"/>
      <point x="91" y="414"/>
      <point x="93" y="392"/>
      <point x="93" y="338" type="curve" smooth="yes"/>
      <point x="93" y="-73" type="line" smooth="yes"/>
      <point x="93" y="-135"/>
      <point x="91" y="-156"/>
      <point x="18" y="-159" type="curve"/>
      <point x="18" y="-199" type="line"/>
      <point x="136" y="-194"/>
      <point x="168" y="-194"/>
      <point x="291" y="-199" type="curve"/>
      <point x="291" y="-159" type="line"/>
      <point x="203" y="-156"/>
      <point x="201" y="-135"/>
      <point x="201" y="-73" type="curve" smooth="yes"/>
      <point x="201" y="353" type="line"/>
      <point x="190" y="370" type="line"/>
      <point x="190" y="475" type="line"/>
      <point x="167" y="485" type="line"/>
    </contour>
  </outline>
</glyph>
<glyph name="q" format="1">
  <advance width="486"/>
  <unicode hex="0071"/>
  <outline>
    <contour>
      <point x="392" y="502" type="line"/>
      <point x="383" y="479"/>
      <point x="370" y="459"/>
      <point x="339" y="459" type="curve" smooth="yes"/>
      <point x="310" y="459"/>
      <point x="287" y="485"/>
      <point x="224" y="485" type="curve" smooth="yes"/>
      <point x="128" y="485"/>
      <point x="27" y="401"/>
      <point x="27" y="216" type="curve" smooth="yes"/>
      <point x="27" y="78"/>
      <point x="88" y="-9"/>
      <point x="202" y="-9" type="curve" smooth="yes"/>
      <point x="267" y="-9"/>
      <point x="323" y="32"/>
      <point x="350" y="109" type="curve"/>
      <point x="326" y="114"/>
      <point x="319" y="148"/>
      <point x="319" y="148" type="curve"/>
      <point x="302" y="81"/>
      <point x="270" y="45"/>
      <point x="230" y="45" type="curve" smooth="yes"/>
      <point x="172" y="45"/>
      <point x="143" y="112"/>
      <point x="143" y="234" type="curve" smooth="yes"/>
      <point x="143" y="362"/>
      <point x="167" y="443"/>
      <point x="231" y="443" type="curve" smooth="yes"/>
      <point x="283" y="443"/>
      <point x="319" y="415"/>
      <point x="319" y="362" type="curve" smooth="yes"/>
      <point x="319" y="-73" type="line" smooth="yes"/>
      <point x="319" y="-135"/>
      <point x="317" y="-156"/>
      <point x="230" y="-159" type="curve"/>
      <point x="230" y="-199" type="line"/>
      <point x="351" y="-194"/>
      <point x="404" y="-192"/>
      <point x="498" y="-199" type="curve"/>
      <point x="498" y="-159" type="line"/>
      <point x="425" y="-156"/>
      <point x="422" y="-135"/>
      <point x="422" y="-73" type="curve" smooth="yes"/>
      <point x="422" y="502" type="line"/>
    </contour>
  </outline>
</glyph>
<glyph name="r" format="1">
  <advance width="391"/>
  <unicode hex="0072"/>
  <outline>
    <contour>
      <point x="18" y="454" type="line"/>
      <point x="18" y="416" type="line"/>
      <point x="91" y="414"/>
      <point x="93" y="392"/>
      <point x="93" y="338" type="curve"/>
      <point x="93" y="123" type="line"/>
      <point x="93" y="61"/>
      <point x="91" y="40"/>
      <point x="18" y="37" type="curve"/>
      <point x="18" y="-3" type="line"/>
      <point x="141" y="3"/>
      <point x="164" y="3"/>
      <point x="291" y="-3" type="curve"/>
      <point x="291" y="37" type="line"/>
      <point x="203" y="40"/>
      <point x="201" y="61"/>
      <point x="201" y="123" type="curve"/>
      <point x="201" y="353" type="line"/>
      <point x="196" y="350" type="line"/>
      <point x="196" y="475" type="line"/>
      <point x="174" y="485" type="line"/>
    </contour>
    <contour>
      <point x="244" y="485"/>
      <point x="199" y="394"/>
      <point x="175" y="307" type="curve"/>
      <point x="174" y="306"/>
      <point x="189" y="263"/>
      <point x="189" y="263" type="curve"/>
      <point x="214" y="354"/>
      <point x="259" y="382"/>
      <point x="294" y="382" type="curve" smooth="yes"/>
      <point x="314" y="382"/>
      <point x="330" y="374"/>
      <point x="332" y="359" type="curve"/>
      <point x="367" y="359" type="line"/>
      <point x="370" y="362"/>
      <point x="378" y="475"/>
      <point x="378" y="475" type="curve"/>
      <point x="362" y="483"/>
      <point x="346" y="485"/>
      <point x="331" y="485" type="curve" smooth="yes"/>
    </contour>
  </outline>
</glyph>
<glyph name="s" format="1">
  <advance width="379"/>
  <unicode hex="0073"/>
  <outline>
    <contour>
      <point x="129" y="485"/>
      <point x="33" y="450"/>
      <point x="33" y="346" type="curve" smooth="yes"/>
      <point x="33" y="254"/>
      <point x="91" y="222"/>
      <point x="144" y="200" type="curve" smooth="yes"/>
      <point x="194" y="180"/>
      <point x="244" y="159"/>
      <point x="244" y="99" type="curve" smooth="yes"/>
      <point x="244" y="56"/>
      <point x="215" y="28"/>
      <point x="175" y="28" type="curve" smooth="yes"/>
      <point x="119" y="28"/>
      <point x="88" y="73"/>
      <point x="75" y="150" type="curve"/>
      <point x="75" y="150"/>
      <point x="25" y="150"/>
      <point x="25" y="150" type="curve"/>
      <point x="30" y="100"/>
      <point x="30" y="60"/>
      <point x="30" y="15" type="curve"/>
      <point x="76" y="-4"/>
      <point x="114" y="-15"/>
      <point x="162" y="-15" type="curve" smooth="yes"/>
      <point x="259" y="-15"/>
      <point x="350" y="24"/>
      <point x="350" y="134" type="curve" smooth="yes"/>
      <point x="350" y="222"/>
      <point x="292" y="256"/>
      <point x="236" y="278" type="curve" smooth="yes"/>
      <point x="187" y="298"/>
      <point x="134" y="318"/>
      <point x="134" y="377" type="curve" smooth="yes"/>
      <point x="134" y="419"/>
      <point x="162" y="443"/>
      <point x="198" y="443" type="curve" smooth="yes"/>
      <point x="246" y="443"/>
      <point x="270" y="396"/>
      <point x="282" y="336" type="curve"/>
      <point x="323" y="336" type="line"/>
      <point x="323" y="379"/>
      <point x="326" y="419"/>
      <point x="332" y="454" type="curve"/>
      <point x="295" y="474"/>
      <point x="259" y="485"/>
      <point x="212" y="485" type="curve" smooth="yes"/>
    </contour>
    <contour>
      <point x="198" y="497" type="move" name="top"/>
    </contour>
  </outline>
</glyph>
<glyph name="t" format="1">
  <advance width="342"/>
  <unicode hex="0074"/>
  <outline>
    <contour>
      <point x="132" y="604" type="line"/>
      <point x="88" y="489" type="line"/>
      <point x="12" y="459" type="line"/>
      <point x="88" y="450" type="line"/>
      <point x="88" y="132" type="line" smooth="yes"/>
      <point x="88" y="52"/>
      <point x="105" y="-15"/>
      <point x="189" y="-15" type="curve" smooth="yes"/>
      <point x="230" y="-15"/>
      <point x="279" y="-6"/>
      <point x="329" y="30" type="curve"/>
      <point x="312" y="66" type="line"/>
      <point x="290" y="55"/>
      <point x="272" y="51"/>
      <point x="247" y="51" type="curve" smooth="yes"/>
      <point x="201" y="51"/>
      <point x="196" y="100"/>
      <point x="196" y="156" type="curve" smooth="yes"/>
      <point x="196" y="604" type="line"/>
    </contour>
    <contour>
      <point x="148" y="470" type="line"/>
      <point x="12" y="459" type="line"/>
      <point x="12" y="422" type="line"/>
      <point x="316" y="422" type="line"/>
      <point x="316" y="470" type="line"/>
    </contour>
  </outline>
</glyph>
<glyph name="u" format="1">
  <advance width="570"/>
  <unicode hex="0075"/>
  <outline>
    <contour>
      <point x="12" y="454" type="line"/>
      <point x="12" y="415" type="line"/>
      <point x="85" y="413"/>
      <point x="87" y="391"/>
      <point x="87" y="336" type="curve"/>
      <point x="87" y="114" type="line" smooth="yes"/>
      <point x="87" y="27"/>
      <point x="140" y="-15"/>
      <point x="218" y="-15" type="curve" smooth="yes"/>
      <point x="284" y="-15"/>
      <point x="362" y="30"/>
      <point x="392" y="123" type="curve"/>
      <point x="390" y="124"/>
      <point x="379" y="155"/>
      <point x="379" y="155" type="curve"/>
      <point x="354" y="99"/>
      <point x="312" y="60"/>
      <point x="262" y="60" type="curve" smooth="yes"/>
      <point x="224" y="60"/>
      <point x="195" y="80"/>
      <point x="195" y="132" type="curve" smooth="yes"/>
      <point x="195" y="475" type="line"/>
      <point x="172" y="485" type="line"/>
    </contour>
    <contour>
      <point x="288" y="454" type="line"/>
      <point x="288" y="415" type="line"/>
      <point x="362" y="413"/>
      <point x="363" y="391"/>
      <point x="363" y="336" type="curve"/>
      <point x="363" y="117" type="line"/>
      <point x="368" y="100" type="line"/>
      <point x="368" y="-5" type="line"/>
      <point x="391" y="-15" type="line"/>
      <point x="546" y="15" type="line"/>
      <point x="546" y="54" type="line"/>
      <point x="474" y="56"/>
      <point x="471" y="78"/>
      <point x="471" y="132" type="curve"/>
      <point x="471" y="475" type="line"/>
      <point x="449" y="485" type="line"/>
    </contour>
    <contour>
      <point x="266" y="497" type="move" name="top"/>
    </contour>
  </outline>
</glyph>
<glyph name="v" format="1">
  <advance width="512"/>
  <unicode hex="0076"/>
  <outline>
    <contour>
      <point x="416" y="466"/>
      <point x="397" y="466"/>
      <point x="302" y="474" type="curve"/>
      <point x="302" y="434" type="line"/>
      <point x="363" y="431"/>
      <point x="386" y="409"/>
      <point x="368" y="354" type="curve"/>
      <point x="284" y="86" type="line"/>
      <point x="283" y="86" type="line"/>
      <point x="204" y="354" type="line" smooth="yes"/>
      <point x="187" y="409"/>
      <point x="196" y="431"/>
      <point x="259" y="434" type="curve"/>
      <point x="259" y="474" type="line"/>
      <point x="140" y="466"/>
      <point x="110" y="466"/>
      <point x="12" y="474" type="curve"/>
      <point x="12" y="434" type="line"/>
      <point x="44" y="434"/>
      <point x="61" y="425"/>
      <point x="72" y="394" type="curve" smooth="yes"/>
      <point x="204" y="0" type="line"/>
      <point x="303" y="0" type="line"/>
      <point x="419" y="355" type="line" smooth="yes"/>
      <point x="435" y="407"/>
      <point x="445" y="431"/>
      <point x="500" y="434" type="curve"/>
      <point x="500" y="474" type="line"/>
    </contour>
  </outline>
</glyph>
<glyph name="w" format="1">
  <advance width="758"/>
  <unicode hex="0077"/>
  <outline>
    <contour>
      <point x="669" y="467"/>
      <point x="654" y="467"/>
      <point x="565" y="474" type="curve"/>
      <point x="565" y="434" type="line"/>
      <point x="627" y="431"/>
      <point x="631" y="410"/>
      <point x="618" y="354" type="curve" smooth="yes"/>
      <point x="547" y="93" type="line"/>
      <point x="546" y="93" type="line"/>
      <point x="431" y="470" type="line"/>
      <point x="385" y="470" type="line"/>
      <point x="275" y="86" type="line"/>
      <point x="274" y="86" type="line"/>
      <point x="211" y="354" type="line"/>
      <point x="192" y="409"/>
      <point x="202" y="431"/>
      <point x="264" y="434" type="curve"/>
      <point x="264" y="474" type="line"/>
      <point x="148" y="466"/>
      <point x="117" y="466"/>
      <point x="18" y="474" type="curve"/>
      <point x="18" y="434" type="line"/>
      <point x="51" y="434"/>
      <point x="67" y="425"/>
      <point x="78" y="394" type="curve"/>
      <point x="195" y="0" type="line"/>
      <point x="293" y="0" type="line"/>
      <point x="377" y="282" type="line"/>
      <point x="466" y="0" type="line"/>
      <point x="563" y="0" type="line"/>
      <point x="681" y="394" type="line"/>
      <point x="691" y="425"/>
      <point x="708" y="434"/>
      <point x="741" y="434" type="curve"/>
      <point x="741" y="474" type="line"/>
    </contour>
  </outline>
</glyph>
<glyph name="x" format="1">
  <advance width="499"/>
  <unicode hex="0078"/>
  <outline>
    <contour>
      <point x="152" y="466"/>
      <point x="136" y="466"/>
      <point x="24" y="474" type="curve"/>
      <point x="24" y="434" type="line"/>
      <point x="56" y="434"/>
      <point x="67" y="422"/>
      <point x="84" y="394" type="curve" smooth="yes"/>
      <point x="179" y="236" type="line"/>
      <point x="195" y="224" type="line"/>
      <point x="267" y="117" type="line" smooth="yes"/>
      <point x="299" y="68"/>
      <point x="299" y="40"/>
      <point x="236" y="37" type="curve"/>
      <point x="236" y="-3" type="line"/>
      <point x="356" y="4"/>
      <point x="387" y="4"/>
      <point x="491" y="-3" type="curve"/>
      <point x="491" y="37" type="line"/>
      <point x="459" y="37"/>
      <point x="450" y="51"/>
      <point x="431" y="78" type="curve" smooth="yes"/>
      <point x="323" y="247" type="line"/>
      <point x="305" y="262" type="line"/>
      <point x="248" y="354" type="line" smooth="yes"/>
      <point x="219" y="403"/>
      <point x="216" y="431"/>
      <point x="279" y="434" type="curve"/>
      <point x="279" y="474" type="line"/>
    </contour>
    <contour>
      <point x="102" y="109" type="line" smooth="yes"/>
      <point x="75" y="63"/>
      <point x="67" y="40"/>
      <point x="12" y="37" type="curve"/>
      <point x="12" y="-3" type="line"/>
      <point x="87" y="3"/>
      <point x="109" y="3"/>
      <point x="184" y="-3" type="curve"/>
      <point x="184" y="37" type="line"/>
      <point x="122" y="40"/>
      <point x="129" y="61"/>
      <point x="156" y="110" type="curve" smooth="yes"/>
      <point x="224" y="228" type="line"/>
      <point x="190" y="260" type="line"/>
    </contour>
    <contour>
      <point x="413" y="469"/>
      <point x="391" y="469"/>
      <point x="311" y="474" type="curve"/>
      <point x="311" y="434" type="line"/>
      <point x="371" y="431"/>
      <point x="367" y="409"/>
      <point x="341" y="362" type="curve" smooth="yes"/>
      <point x="278" y="246" type="line"/>
      <point x="311" y="213" type="line"/>
      <point x="403" y="374" type="line" smooth="yes"/>
      <point x="428" y="416"/>
      <point x="442" y="431"/>
      <point x="478" y="434" type="curve"/>
      <point x="478" y="474" type="line"/>
    </contour>
  </outline>
</glyph>
<glyph name="y" format="1">
  <advance width="512"/>
  <unicode hex="0079"/>
  <outline>
    <contour>
      <point x="380" y="466"/>
      <point x="421" y="466"/>
      <point x="302" y="474" type="curve"/>
      <point x="302" y="434" type="line"/>
      <point x="363" y="431"/>
      <point x="386" y="409"/>
      <point x="368" y="354" type="curve" smooth="yes"/>
      <point x="288" y="108" type="line"/>
      <point x="286" y="108" type="line"/>
      <point x="204" y="354" type="line" smooth="yes"/>
      <point x="187" y="409"/>
      <point x="196" y="431"/>
      <point x="259" y="434" type="curve"/>
      <point x="259" y="474" type="line"/>
      <point x="139" y="466"/>
      <point x="132" y="466"/>
      <point x="12" y="474" type="curve"/>
      <point x="12" y="434" type="line"/>
      <point x="44" y="434"/>
      <point x="60" y="425"/>
      <point x="72" y="394" type="curve" smooth="yes"/>
      <point x="236" y="-30" type="line"/>
      <point x="213" y="-92" type="line" smooth="yes"/>
      <point x="195" y="-143"/>
      <point x="163" y="-151"/>
      <point x="139" y="-151" type="curve" smooth="yes"/>
      <point x="119" y="-151"/>
      <point x="102" y="-136"/>
      <point x="102" y="-109" type="curve"/>
      <point x="73" y="-109" type="line"/>
      <point x="63" y="-226" type="line"/>
      <point x="81" y="-231"/>
      <point x="97" y="-235"/>
      <point x="112" y="-235" type="curve" smooth="yes"/>
      <point x="189" y="-235"/>
      <point x="236" y="-172"/>
      <point x="259" y="-103" type="curve" smooth="yes"/>
      <point x="419" y="355" type="line" smooth="yes"/>
      <point x="437" y="406"/>
      <point x="445" y="431"/>
      <point x="500" y="434" type="curve"/>
      <point x="500" y="474" type="line"/>
    </contour>
    <contour>
      <point x="280" y="497" type="move" name="top"/>
    </contour>
  </outline>
</glyph>
<glyph name="z" format="1">
  <advance width="419"/>
  <unicode hex="007A"/>
  <outline>
    <contour>
      <point x="45" y="437"/>
      <point x="43" y="384"/>
      <point x="30" y="310" type="curve"/>
      <point x="75" y="306" type="line"/>
      <point x="88" y="380"/>
      <point x="111" y="430"/>
      <point x="214" y="430" type="curve" smooth="yes"/>
      <point x="244" y="430" type="line"/>
      <point x="30" y="32" type="line"/>
      <point x="30" y="0" type="line"/>
      <point x="228" y="0" type="line" smooth="yes"/>
      <point x="264" y="0"/>
      <point x="310" y="-3"/>
      <point x="346" y="-6" type="curve"/>
      <point x="358" y="39"/>
      <point x="371" y="103"/>
      <point x="394" y="163" type="curve"/>
      <point x="341" y="171" type="line"/>
      <point x="318" y="90"/>
      <point x="287" y="43"/>
      <point x="203" y="43" type="curve" smooth="yes"/>
      <point x="158" y="43" type="line"/>
      <point x="368" y="434" type="line"/>
      <point x="368" y="434"/>
      <point x="368" y="470"/>
      <point x="368" y="470" type="curve" smooth="yes"/>
      <point x="179" y="470" type="line" smooth="yes"/>
      <point x="140" y="470"/>
      <point x="88" y="471"/>
      <point x="47" y="476" type="curve"/>
    </contour>
    <contour>
      <point x="211" y="497" type="move" name="top"/>
    </contour>
  </outline>
</glyph>
<glyph name="braceleft" format="1">
  <advance width="330"/>
  <unicode hex="007B"/>
  <outline>
    <contour>
      <point x="147" y="629"/>
      <point x="99" y="590"/>
      <point x="99" y="471" type="curve"/>
      <point x="99" y="351" type="line"/>
      <point x="99" y="284"/>
      <point x="78" y="258"/>
      <point x="18" y="258" type="curve"/>
      <point x="18" y="258"/>
      <point x="18" y="214"/>
      <point x="18" y="214" type="curve" smooth="yes"/>
      <point x="78" y="214"/>
      <point x="99" y="187"/>
      <point x="99" y="121" type="curve"/>
      <point x="99" y="0" type="line"/>
      <point x="99" y="-119"/>
      <point x="147" y="-158"/>
      <point x="288" y="-159" type="curve"/>
      <point x="288" y="-114" type="line"/>
      <point x="224" y="-105"/>
      <point x="212" y="-95"/>
      <point x="207" y="-11" type="curve" smooth="yes"/>
      <point x="203" y="86" type="line" smooth="yes"/>
      <point x="201" y="150"/>
      <point x="208" y="192"/>
      <point x="122" y="232" type="curve"/>
      <point x="122" y="239" type="line"/>
      <point x="208" y="279"/>
      <point x="201" y="322"/>
      <point x="203" y="385" type="curve" smooth="yes"/>
      <point x="207" y="482" type="line" smooth="yes"/>
      <point x="212" y="566"/>
      <point x="224" y="577"/>
      <point x="288" y="585" type="curve"/>
      <point x="288" y="630" type="line"/>
    </contour>
  </outline>
</glyph>
<glyph name="bar" format="1">
  <advance width="275"/>
  <unicode hex="007C"/>
  <outline>
    <contour>
      <point x="108" y="646" type="line"/>
      <point x="108" y="-198" type="line"/>
      <point x="167" y="-198" type="line"/>
      <point x="167" y="646" type="line"/>
    </contour>
  </outline>
</glyph>
<glyph name="asciitilde" format="1">
  <advance width="478"/>
  <unicode hex="007E"/>
  <outline>
    <contour>
      <point x="138" y="383"/>
      <point x="95" y="377"/>
      <point x="54" y="331" type="curve"/>
      <point x="87" y="284" type="line"/>
      <point x="115" y="311"/>
      <point x="151" y="317"/>
      <point x="171" y="317" type="curve" smooth="yes"/>
      <point x="190" y="317"/>
      <point x="210" y="307"/>
      <point x="230" y="298" type="curve" smooth="yes"/>
      <point x="252" y="287"/>
      <point x="278" y="275"/>
      <point x="306" y="275" type="curve" smooth="yes"/>
      <point x="339" y="275"/>
      <point x="383" y="282"/>
      <point x="423" y="327" type="curve"/>
      <point x="390" y="374" type="line"/>
      <point x="362" y="347"/>
      <point x="327" y="341"/>
      <point x="306" y="341" type="curve" smooth="yes"/>
      <point x="287" y="341"/>
      <point x="268" y="351"/>
      <point x="247" y="360" type="curve" smooth="yes"/>
      <point x="224" y="371"/>
      <point x="200" y="383"/>
      <point x="171" y="383" type="curve" smooth="yes"/>
    </contour>
  </outline>
</glyph>
<glyph name="cent" format="1">
  <advance width="410"/>
  <unicode hex="00A2"/>
  <outline>
    <contour>
      <point x="213" y="597" type="line"/>
      <point x="213" y="-32" type="line"/>
      <point x="266" y="-32" type="line"/>
      <point x="266" y="597" type="line"/>
    </contour>
    <component base="c" yOffset="43"/>
  </outline>
</glyph>
<glyph name="sterling" format="1">
  <advance width="493"/>
  <unicode hex="00A3"/>
  <outline>
    <contour>
      <point x="288" y="87"/>
      <point x="263" y="123"/>
      <point x="214" y="123" type="curve" smooth="yes"/>
      <point x="179" y="123"/>
      <point x="134" y="93"/>
      <point x="100" y="71" type="curve"/>
      <point x="112" y="72" type="line"/>
      <point x="165" y="132"/>
      <point x="239" y="174"/>
      <point x="239" y="240" type="curve" smooth="yes"/>
      <point x="239" y="334"/>
      <point x="174" y="433"/>
      <point x="174" y="501" type="curve" smooth="yes"/>
      <point x="174" y="547"/>
      <point x="198" y="589"/>
      <point x="262" y="589" type="curve" smooth="yes"/>
      <point x="317" y="589"/>
      <point x="351" y="521"/>
      <point x="351" y="438" type="curve"/>
      <point x="399" y="439" type="line"/>
      <point x="399" y="497"/>
      <point x="398" y="554"/>
      <point x="407" y="611" type="curve"/>
      <point x="355" y="629"/>
      <point x="312" y="638"/>
      <point x="263" y="638" type="curve" smooth="yes"/>
      <point x="122" y="638"/>
      <point x="61" y="569"/>
      <point x="61" y="485" type="curve" smooth="yes"/>
      <point x="61" y="407"/>
      <point x="126" y="329"/>
      <point x="126" y="223" type="curve" smooth="yes"/>
      <point x="126" y="141"/>
      <point x="83" y="64"/>
      <point x="30" y="44" type="curve"/>
      <point x="30" y="44"/>
      <point x="31" y="-5"/>
      <point x="31" y="-5" type="curve"/>
      <point x="81" y="17"/>
      <point x="119" y="24"/>
      <point x="150" y="24" type="curve" smooth="yes"/>
      <point x="219" y="24"/>
      <point x="255" y="-13"/>
      <point x="342" y="-13" type="curve" smooth="yes"/>
      <point x="395" y="-13"/>
      <point x="446" y="15"/>
      <point x="475" y="124" type="curve"/>
      <point x="443" y="143" type="line"/>
      <point x="409" y="92"/>
      <point x="380" y="87"/>
      <point x="351" y="87" type="curve" smooth="yes"/>
    </contour>
    <contour>
      <point x="372" y="270" type="line"/>
      <point x="372" y="323" type="line"/>
      <point x="18" y="323" type="line"/>
      <point x="18" y="270" type="line"/>
    </contour>
  </outline>
</glyph>
<glyph name="currency" format="1">
  <advance width="478"/>
  <unicode hex="00A4"/>
  <outline>
    <contour>
      <point x="295" y="469"/>
      <point x="191" y="469"/>
      <point x="127" y="406" type="curve" smooth="yes"/>
      <point x="63" y="342"/>
      <point x="63" y="238"/>
      <point x="127" y="175" type="curve" smooth="yes"/>
      <point x="191" y="110"/>
      <point x="294" y="110"/>
      <point x="358" y="176" type="curve" smooth="yes"/>
      <point x="421" y="239"/>
      <point x="421" y="342"/>
      <point x="358" y="406" type="curve" smooth="yes"/>
    </contour>
    <contour>
      <point x="48" y="144" type="line"/>
      <point x="93" y="98" type="line"/>
      <point x="158" y="163" type="line"/>
      <point x="111" y="208" type="line"/>
    </contour>
    <contour>
      <point x="51" y="433" type="line"/>
      <point x="105" y="375" type="line"/>
      <point x="151" y="422" type="line"/>
      <point x="96" y="477" type="line"/>
    </contour>
    <contour>
      <point x="328" y="153" type="line"/>
      <point x="385" y="98" type="line"/>
      <point x="431" y="143" type="line"/>
      <point x="374" y="200" type="line"/>
    </contour>
    <contour>
      <point x="355" y="322"/>
      <point x="355" y="256"/>
      <point x="316" y="218" type="curve" smooth="yes"/>
      <point x="276" y="177"/>
      <point x="211" y="177"/>
      <point x="170" y="218" type="curve" smooth="yes"/>
      <point x="132" y="258"/>
      <point x="131" y="322"/>
      <point x="170" y="363" type="curve" smooth="yes"/>
      <point x="211" y="402"/>
      <point x="275" y="402"/>
      <point x="316" y="363" type="curve" smooth="yes"/>
    </contour>
    <contour>
      <point x="330" y="427" type="line"/>
      <point x="374" y="383" type="line"/>
      <point x="428" y="435" type="line"/>
      <point x="384" y="481" type="line"/>
    </contour>
  </outline>
</glyph>
<glyph name="yen" format="1">
  <advance width="506"/>
  <unicode hex="00A5"/>
  <outline>
    <contour>
      <point x="374" y="621"/>
      <point x="431" y="621"/>
      <point x="311" y="629" type="curve"/>
      <point x="311" y="586" type="line"/>
      <point x="378" y="583"/>
      <point x="368" y="559"/>
      <point x="356" y="529" type="curve" smooth="yes"/>
      <point x="284" y="347" type="line"/>
      <point x="282" y="347" type="line"/>
      <point x="224" y="527" type="line" smooth="yes"/>
      <point x="213" y="562"/>
      <point x="206" y="583"/>
      <point x="268" y="586" type="curve"/>
      <point x="268" y="629" type="line"/>
      <point x="147" y="621"/>
      <point x="138" y="621"/>
      <point x="18" y="629" type="curve"/>
      <point x="18" y="586" type="line"/>
      <point x="51" y="586"/>
      <point x="66" y="569"/>
      <point x="75" y="546" type="curve" smooth="yes"/>
      <point x="207" y="259" type="line"/>
      <point x="207" y="132" type="line" smooth="yes"/>
      <point x="207" y="66"/>
      <point x="199" y="43"/>
      <point x="120" y="40" type="curve"/>
      <point x="120" y="-3" type="line"/>
      <point x="248" y="6"/>
      <point x="280" y="6"/>
      <point x="409" y="-3" type="curve"/>
      <point x="409" y="40" type="line"/>
      <point x="330" y="43"/>
      <point x="322" y="66"/>
      <point x="322" y="132" type="curve" smooth="yes"/>
      <point x="322" y="300" type="line"/>
      <point x="435" y="546" type="line" smooth="yes"/>
      <point x="449" y="577"/>
      <point x="461" y="586"/>
      <point x="493" y="586" type="curve"/>
      <point x="493" y="629" type="line"/>
    </contour>
    <contour>
      <point x="112" y="204" type="line"/>
      <point x="112" y="150" type="line"/>
      <point x="418" y="150" type="line"/>
      <point x="418" y="204" type="line"/>
    </contour>
    <contour>
      <point x="112" y="310" type="line"/>
      <point x="112" y="255" type="line"/>
      <point x="418" y="255" type="line"/>
      <point x="418" y="310" type="line"/>
    </contour>
  </outline>
</glyph>
<glyph name="brokenbar" format="1">
  <advance width="287"/>
  <unicode hex="00A6"/>
  <outline>
    <contour>
      <point x="102" y="622" type="line"/>
      <point x="102" y="331" type="line"/>
      <point x="186" y="331" type="line"/>
      <point x="186" y="622" type="line"/>
    </contour>
    <contour>
      <point x="102" y="248" type="line"/>
      <point x="102" y="-42" type="line"/>
      <point x="186" y="-42" type="line"/>
      <point x="186" y="248" type="line"/>
    </contour>
  </outline>
</glyph>
<glyph name="section" format="1">
  <advance width="464"/>
  <unicode hex="00A7"/>
  <outline>
    <contour>
      <point x="174" y="628"/>
      <point x="55" y="549"/>
      <point x="55" y="378" type="curve" smooth="yes"/>
      <point x="55" y="250"/>
      <point x="117" y="165"/>
      <point x="183" y="114" type="curve" smooth="yes"/>
      <point x="248" y="63"/>
      <point x="310" y="49"/>
      <point x="310" y="-15" type="curve" smooth="yes"/>
      <point x="310" y="-60"/>
      <point x="276" y="-73"/>
      <point x="224" y="-73" type="curve" smooth="yes"/>
      <point x="135" y="-73"/>
      <point x="104" y="-43"/>
      <point x="81" y="78" type="curve"/>
      <point x="30" y="78" type="line"/>
      <point x="36" y="7"/>
      <point x="39" y="-19"/>
      <point x="39" y="-92" type="curve"/>
      <point x="97" y="-122"/>
      <point x="162" y="-136"/>
      <point x="224" y="-136" type="curve" smooth="yes"/>
      <point x="355" y="-136"/>
      <point x="440" y="-43"/>
      <point x="440" y="121" type="curve" smooth="yes"/>
      <point x="440" y="264"/>
      <point x="377" y="326"/>
      <point x="306" y="374" type="curve" smooth="yes"/>
      <point x="242" y="418"/>
      <point x="177" y="435"/>
      <point x="177" y="501" type="curve" smooth="yes"/>
      <point x="177" y="546"/>
      <point x="219" y="569"/>
      <point x="267" y="569" type="curve" smooth="yes"/>
      <point x="343" y="569"/>
      <point x="368" y="539"/>
      <point x="368" y="454" type="curve"/>
      <point x="414" y="454" type="line"/>
      <point x="414" y="525"/>
      <point x="414" y="522"/>
      <point x="420" y="593" type="curve"/>
      <point x="378" y="615"/>
      <point x="338" y="628"/>
      <point x="276" y="628" type="curve" smooth="yes"/>
    </contour>
    <contour>
      <point x="131" y="384"/>
      <point x="204" y="336"/>
      <point x="263" y="295" type="curve" smooth="yes"/>
      <point x="339" y="243"/>
      <point x="371" y="182"/>
      <point x="371" y="115" type="curve" smooth="yes"/>
      <point x="371" y="95"/>
      <point x="371" y="75"/>
      <point x="366" y="49" type="curve"/>
      <point x="366" y="49"/>
      <point x="363" y="49"/>
      <point x="363" y="49" type="curve"/>
      <point x="362" y="104"/>
      <point x="288" y="146"/>
      <point x="230" y="187" type="curve" smooth="yes"/>
      <point x="167" y="230"/>
      <point x="121" y="294"/>
      <point x="121" y="380" type="curve" smooth="yes"/>
      <point x="121" y="398"/>
      <point x="121" y="418"/>
      <point x="128" y="434" type="curve"/>
      <point x="131" y="435" type="line"/>
    </contour>
  </outline>
</glyph>
<glyph name="dieresis" format="1">
  <advance width="282"/>
  <unicode hex="00A8"/>
  <outline>
    <contour>
      <point x="182" y="679"/>
      <point x="163" y="659"/>
      <point x="163" y="625" type="curve" smooth="yes"/>
      <point x="163" y="590"/>
      <point x="182" y="573"/>
      <point x="219" y="573" type="curve" smooth="yes"/>
      <point x="255" y="573"/>
      <point x="272" y="590"/>
      <point x="272" y="625" type="curve" smooth="yes"/>
      <point x="272" y="659"/>
      <point x="255" y="679"/>
      <point x="219" y="679" type="curve" smooth="yes"/>
    </contour>
    <contour>
      <point x="28" y="679"/>
      <point x="9" y="659"/>
      <point x="9" y="625" type="curve" smooth="yes"/>
      <point x="9" y="590"/>
      <point x="28" y="573"/>
      <point x="61" y="573" type="curve" smooth="yes"/>
      <point x="100" y="573"/>
      <point x="120" y="590"/>
      <point x="120" y="625" type="curve" smooth="yes"/>
      <point x="120" y="659"/>
      <point x="100" y="679"/>
      <point x="61" y="679" type="curve" smooth="yes"/>
    </contour>
    <contour>
      <point x="140" y="517" type="move" name="_top"/>
    </contour>
  </outline>
</glyph>
<glyph name="copyright" format="1">
  <advance width="565"/>
  <unicode hex="00A9"/>
  <outline>
    <contour>
      <point x="120" y="650"/>
      <point x="18" y="541"/>
      <point x="18" y="378" type="curve" smooth="yes"/>
      <point x="18" y="215"/>
      <point x="120" y="107"/>
      <point x="282" y="107" type="curve" smooth="yes"/>
      <point x="445" y="107"/>
      <point x="546" y="215"/>
      <point x="546" y="378" type="curve" smooth="yes"/>
      <point x="546" y="541"/>
      <point x="445" y="650"/>
      <point x="282" y="650" type="curve" smooth="yes"/>
    </contour>
    <contour>
      <point x="182" y="559"/>
      <point x="122" y="486"/>
      <point x="122" y="362" type="curve" smooth="yes"/>
      <point x="122" y="252"/>
      <point x="188" y="200"/>
      <point x="270" y="200" type="curve" smooth="yes"/>
      <point x="314" y="200"/>
      <point x="355" y="214"/>
      <point x="399" y="247" type="curve"/>
      <point x="384" y="276" type="line"/>
      <point x="356" y="259"/>
      <point x="332" y="247"/>
      <point x="306" y="247" type="curve" smooth="yes"/>
      <point x="247" y="247"/>
      <point x="204" y="279"/>
      <point x="204" y="377" type="curve" smooth="yes"/>
      <point x="204" y="471"/>
      <point x="224" y="525"/>
      <point x="292" y="525" type="curve" smooth="yes"/>
      <point x="335" y="525"/>
      <point x="362" y="493"/>
      <point x="362" y="438" type="curve"/>
      <point x="389" y="438" type="line"/>
      <point x="389" y="474"/>
      <point x="387" y="515"/>
      <point x="391" y="550" type="curve"/>
      <point x="359" y="558"/>
      <point x="326" y="559"/>
      <point x="300" y="559" type="curve" smooth="yes"/>
    </contour>
    <contour>
      <point x="423" y="611"/>
      <point x="510" y="519"/>
      <point x="510" y="378" type="curve" smooth="yes"/>
      <point x="510" y="236"/>
      <point x="423" y="144"/>
      <point x="282" y="144" type="curve" smooth="yes"/>
      <point x="141" y="144"/>
      <point x="55" y="236"/>
      <point x="55" y="378" type="curve" smooth="yes"/>
      <point x="55" y="519"/>
      <point x="141" y="611"/>
      <point x="282" y="611" type="curve" smooth="yes"/>
    </contour>
  </outline>
</glyph>
<glyph name="logicalnot" format="1">
  <advance width="478"/>
  <unicode hex="00AC"/>
  <outline>
    <contour>
      <point x="37" y="419" type="line"/>
      <point x="37" y="354" type="line"/>
      <point x="395" y="354" type="line"/>
      <point x="395" y="419" type="line"/>
    </contour>
    <contour>
      <point x="362" y="419" type="line"/>
      <point x="362" y="232" type="line"/>
      <point x="431" y="232" type="line"/>
      <point x="431" y="419" type="line"/>
    </contour>
  </outline>
</glyph>
<glyph name="uni00AD" format="1">
  <advance width="464"/>
  <unicode hex="00AD"/>
  <outline>
    <contour>
      <point x="86" y="263" type="line"/>
      <point x="378" y="263" type="line"/>
      <point x="378" y="196" type="line"/>
      <point x="86" y="196" type="line"/>
    </contour>
  </outline>
</glyph>
<glyph name="registered" format="1">
  <advance width="450"/>
  <unicode hex="00AE"/>
  <outline>
    <contour>
      <point x="99" y="662"/>
      <point x="31" y="574"/>
      <point x="31" y="463" type="curve" smooth="yes"/>
      <point x="31" y="351"/>
      <point x="99" y="264"/>
      <point x="224" y="264" type="curve" smooth="yes"/>
      <point x="347" y="264"/>
      <point x="419" y="351"/>
      <point x="419" y="463" type="curve" smooth="yes"/>
      <point x="419" y="574"/>
      <point x="347" y="662"/>
      <point x="224" y="662" type="curve" smooth="yes"/>
    </contour>
    <contour>
      <point x="328" y="630"/>
      <point x="386" y="557"/>
      <point x="386" y="463" type="curve" smooth="yes"/>
      <point x="386" y="370"/>
      <point x="328" y="296"/>
      <point x="224" y="296" type="curve" smooth="yes"/>
      <point x="121" y="296"/>
      <point x="63" y="370"/>
      <point x="63" y="463" type="curve" smooth="yes"/>
      <point x="63" y="557"/>
      <point x="121" y="630"/>
      <point x="224" y="630" type="curve" smooth="yes"/>
    </contour>
    <contour>
      <point x="189" y="583"/>
      <point x="167" y="581"/>
      <point x="124" y="581" type="curve"/>
      <point x="124" y="563" type="line"/>
      <point x="152" y="562"/>
      <point x="155" y="554"/>
      <point x="155" y="531" type="curve" smooth="yes"/>
      <point x="155" y="406" type="line" smooth="yes"/>
      <point x="155" y="382"/>
      <point x="152" y="374"/>
      <point x="124" y="374" type="curve"/>
      <point x="124" y="355" type="line"/>
      <point x="171" y="358"/>
      <point x="188" y="358"/>
      <point x="243" y="355" type="curve"/>
      <point x="243" y="374" type="line"/>
      <point x="207" y="374"/>
      <point x="203" y="382"/>
      <point x="203" y="406" type="curve" smooth="yes"/>
      <point x="203" y="452" type="line"/>
      <point x="207" y="452"/>
      <point x="211" y="452"/>
      <point x="214" y="452" type="curve" smooth="yes"/>
      <point x="218" y="452" type="line"/>
      <point x="272" y="354" type="line"/>
      <point x="303" y="356"/>
      <point x="304" y="356"/>
      <point x="339" y="354" type="curve"/>
      <point x="339" y="374" type="line"/>
      <point x="319" y="374"/>
      <point x="305" y="383"/>
      <point x="294" y="401" type="curve"/>
      <point x="263" y="459" type="line"/>
      <point x="294" y="469"/>
      <point x="310" y="490"/>
      <point x="310" y="521" type="curve" smooth="yes"/>
      <point x="310" y="558"/>
      <point x="282" y="583"/>
      <point x="219" y="583" type="curve" smooth="yes"/>
    </contour>
    <contour>
      <point x="252" y="559"/>
      <point x="267" y="543"/>
      <point x="267" y="515" type="curve" smooth="yes"/>
      <point x="267" y="490"/>
      <point x="246" y="473"/>
      <point x="211" y="473" type="curve" smooth="yes"/>
      <point x="208" y="473"/>
      <point x="206" y="473"/>
      <point x="203" y="474" type="curve"/>
      <point x="203" y="559" type="line"/>
      <point x="210" y="559" type="line" smooth="yes"/>
    </contour>
  </outline>
</glyph>
<glyph name="macron" format="1">
  <advance width="282"/>
  <unicode hex="00AF"/>
  <outline>
    <contour>
      <point x="30" y="599" type="line"/>
      <point x="251" y="599" type="line"/>
      <point x="251" y="654" type="line"/>
      <point x="30" y="654" type="line"/>
    </contour>
    <contour>
      <point x="140" y="517" type="move" name="_top"/>
    </contour>
  </outline>
</glyph>
<glyph name="degree" format="1">
  <advance width="366"/>
  <unicode hex="00B0"/>
  <outline>
    <contour>
      <point x="95" y="661"/>
      <point x="24" y="592"/>
      <point x="24" y="503" type="curve" smooth="yes"/>
      <point x="24" y="415"/>
      <point x="95" y="347"/>
      <point x="183" y="347" type="curve" smooth="yes"/>
      <point x="271" y="347"/>
      <point x="342" y="415"/>
      <point x="342" y="503" type="curve" smooth="yes"/>
      <point x="342" y="592"/>
      <point x="271" y="661"/>
      <point x="183" y="661" type="curve" smooth="yes"/>
    </contour>
    <contour>
      <point x="232" y="592"/>
      <point x="270" y="551"/>
      <point x="270" y="503" type="curve" smooth="yes"/>
      <point x="270" y="455"/>
      <point x="232" y="415"/>
      <point x="183" y="415" type="curve" smooth="yes"/>
      <point x="134" y="415"/>
      <point x="97" y="455"/>
      <point x="97" y="503" type="curve" smooth="yes"/>
      <point x="97" y="551"/>
      <point x="134" y="592"/>
      <point x="183" y="592" type="curve" smooth="yes"/>
    </contour>
  </outline>
</glyph>
<glyph name="plusminus" format="1">
  <advance width="478"/>
  <unicode hex="00B1"/>
  <outline>
    <contour>
      <point x="206" y="486" type="line"/>
      <point x="206" y="160" type="line"/>
      <point x="272" y="160" type="line"/>
      <point x="272" y="486" type="line"/>
    </contour>
    <contour>
      <point x="76" y="199" type="line"/>
      <point x="76" y="134" type="line"/>
      <point x="402" y="134" type="line"/>
      <point x="402" y="199" type="line"/>
    </contour>
    <contour>
      <point x="76" y="360" type="line"/>
      <point x="76" y="295" type="line"/>
      <point x="402" y="295" type="line"/>
      <point x="402" y="360" type="line"/>
    </contour>
  </outline>
</glyph>
<glyph name="acute" format="1">
  <advance width="282"/>
  <unicode hex="00B4"/>
  <outline>
    <contour>
      <point x="52" y="582" type="line"/>
      <point x="84" y="550" type="line"/>
      <point x="231" y="669" type="line"/>
      <point x="167" y="730" type="line"/>
    </contour>
    <contour>
      <point x="126" y="517" type="move" name="_top"/>
    </contour>
  </outline>
</glyph>
<glyph name="paragraph" format="1">
  <advance width="546"/>
  <unicode hex="00B6"/>
  <outline>
    <contour>
      <point x="252" y="625" type="line" smooth="yes"/>
      <point x="88" y="625"/>
      <point x="48" y="553"/>
      <point x="48" y="449" type="curve" smooth="yes"/>
      <point x="48" y="326"/>
      <point x="90" y="250"/>
      <point x="247" y="247" type="curve"/>
      <point x="247" y="0" type="line"/>
      <point x="334" y="0" type="line"/>
      <point x="334" y="541" type="line"/>
      <point x="509" y="541" type="line"/>
      <point x="509" y="625" type="line"/>
    </contour>
    <contour>
      <point x="383" y="579" type="line"/>
      <point x="383" y="0" type="line"/>
      <point x="469" y="0" type="line"/>
      <point x="469" y="579" type="line"/>
    </contour>
  </outline>
</glyph>
<glyph name="cedilla" format="1">
  <advance width="282"/>
  <unicode hex="00B8"/>
  <outline>
    <contour>
      <point x="139" y="0"/>
      <point x="92" y="0"/>
      <point x="92" y="0" type="curve"/>
      <point x="80" y="-48" type="line"/>
      <point x="93" y="-72" type="line"/>
      <point x="105" y="-72" type="line" smooth="yes"/>
      <point x="141" y="-72"/>
      <point x="155" y="-84"/>
      <point x="155" y="-103" type="curve" smooth="yes"/>
      <point x="155" y="-124"/>
      <point x="143" y="-139"/>
      <point x="122" y="-139" type="curve" smooth="yes"/>
      <point x="105" y="-139"/>
      <point x="87" y="-134"/>
      <point x="63" y="-126" type="curve"/>
      <point x="52" y="-162" type="line"/>
      <point x="73" y="-171"/>
      <point x="99" y="-179"/>
      <point x="131" y="-179" type="curve" smooth="yes"/>
      <point x="191" y="-179"/>
      <point x="230" y="-155"/>
      <point x="230" y="-103" type="curve" smooth="yes"/>
      <point x="230" y="-61"/>
      <point x="200" y="-36"/>
      <point x="136" y="-36" type="curve" smooth="yes"/>
      <point x="128" y="-36" type="line" smooth="yes"/>
      <point x="128" y="-36"/>
      <point x="139" y="0"/>
      <point x="139" y="0" type="curve" smooth="yes"/>
    </contour>
    <contour>
      <point x="111" y="-30" type="move" name="_bottom"/>
    </contour>
  </outline>
</glyph>
<glyph name="onequarter" format="1">
  <advance width="570"/>
  <unicode hex="00BC"/>
  <outline>
    <contour>
      <point x="263" y="107" type="line"/>
      <point x="263" y="85" type="line"/>
      <point x="401" y="85" type="line"/>
      <point x="401" y="0" type="line"/>
      <point x="486" y="0" type="line"/>
      <point x="486" y="85" type="line"/>
      <point x="546" y="85" type="line"/>
      <point x="546" y="115" type="line"/>
      <point x="486" y="115" type="line"/>
      <point x="486" y="331" type="line"/>
      <point x="470" y="338" type="line"/>
    </contour>
    <contour>
      <point x="401" y="115" type="line"/>
      <point x="316" y="115" type="line"/>
      <point x="401" y="212" type="line"/>
    </contour>
    <contour>
      <point x="24" y="604" type="line"/>
      <point x="24" y="567" type="line"/>
      <point x="59" y="571" type="line" smooth="yes"/>
      <point x="71" y="573"/>
      <point x="76" y="566"/>
      <point x="76" y="558" type="curve" smooth="yes"/>
      <point x="76" y="389" type="line" smooth="yes"/>
      <point x="76" y="353"/>
      <point x="71" y="341"/>
      <point x="24" y="339" type="curve"/>
      <point x="24" y="303" type="line"/>
      <point x="107" y="307"/>
      <point x="132" y="307"/>
      <point x="216" y="303" type="curve"/>
      <point x="216" y="339" type="line"/>
      <point x="168" y="341"/>
      <point x="162" y="353"/>
      <point x="162" y="389" type="curve" smooth="yes"/>
      <point x="162" y="635" type="line"/>
      <point x="147" y="640" type="line"/>
    </contour>
    <component base="fraction" xOffset="174"/>
  </outline>
</glyph>
<glyph name="onehalf" format="1">
  <advance width="613"/>
  <unicode hex="00BD"/>
  <outline>
    <contour>
      <point x="431" y="336"/>
      <point x="394" y="330"/>
      <point x="359" y="320" type="curve"/>
      <point x="359" y="239" type="line"/>
      <point x="399" y="239" type="line"/>
      <point x="399" y="275"/>
      <point x="420" y="298"/>
      <point x="450" y="298" type="curve" smooth="yes"/>
      <point x="482" y="298"/>
      <point x="493" y="279"/>
      <point x="493" y="254" type="curve" smooth="yes"/>
      <point x="493" y="210"/>
      <point x="477" y="177"/>
      <point x="452" y="143" type="curve" smooth="yes"/>
      <point x="371" y="29" type="line"/>
      <point x="371" y="0" type="line"/>
      <point x="589" y="0" type="line"/>
      <point x="589" y="68" type="line"/>
      <point x="471" y="68" type="line"/>
      <point x="534" y="147" type="line" smooth="yes"/>
      <point x="562" y="184"/>
      <point x="583" y="215"/>
      <point x="583" y="259" type="curve" smooth="yes"/>
      <point x="583" y="302"/>
      <point x="553" y="336"/>
      <point x="463" y="336" type="curve" smooth="yes"/>
    </contour>
    <contour>
      <point x="24" y="604" type="line"/>
      <point x="24" y="567" type="line"/>
      <point x="59" y="571" type="line" smooth="yes"/>
      <point x="71" y="573"/>
      <point x="76" y="566"/>
      <point x="76" y="558" type="curve" smooth="yes"/>
      <point x="76" y="389" type="line" smooth="yes"/>
      <point x="76" y="353"/>
      <point x="71" y="341"/>
      <point x="24" y="339" type="curve"/>
      <point x="24" y="303" type="line"/>
      <point x="107" y="307"/>
      <point x="132" y="307"/>
      <point x="216" y="303" type="curve"/>
      <point x="216" y="339" type="line"/>
      <point x="168" y="341"/>
      <point x="162" y="353"/>
      <point x="162" y="389" type="curve" smooth="yes"/>
      <point x="162" y="635" type="line"/>
      <point x="147" y="640" type="line"/>
    </contour>
    <component base="fraction" xOffset="174"/>
  </outline>
</glyph>
<glyph name="threequarters" format="1">
  <advance width="595"/>
  <unicode hex="00BE"/>
  <outline>
    <contour>
      <point x="288" y="107" type="line"/>
      <point x="288" y="85" type="line"/>
      <point x="426" y="85" type="line"/>
      <point x="426" y="0" type="line"/>
      <point x="511" y="0" type="line"/>
      <point x="511" y="85" type="line"/>
      <point x="571" y="85" type="line"/>
      <point x="571" y="115" type="line"/>
      <point x="511" y="115" type="line"/>
      <point x="511" y="331" type="line"/>
      <point x="495" y="338" type="line"/>
    </contour>
    <contour>
      <point x="426" y="115" type="line"/>
      <point x="341" y="115" type="line"/>
      <point x="426" y="212" type="line"/>
    </contour>
    <contour>
      <point x="97" y="638"/>
      <point x="56" y="634"/>
      <point x="25" y="623" type="curve"/>
      <point x="25" y="545" type="line"/>
      <point x="63" y="545" type="line"/>
      <point x="63" y="586"/>
      <point x="83" y="603"/>
      <point x="116" y="603" type="curve" smooth="yes"/>
      <point x="147" y="603"/>
      <point x="163" y="592"/>
      <point x="163" y="565" type="curve" smooth="yes"/>
      <point x="163" y="527"/>
      <point x="122" y="502"/>
      <point x="49" y="495" type="curve"/>
      <point x="49" y="466" type="line"/>
      <point x="127" y="466"/>
      <point x="165" y="445"/>
      <point x="165" y="407" type="curve" smooth="yes"/>
      <point x="165" y="351"/>
      <point x="110" y="329"/>
      <point x="24" y="323" type="curve"/>
      <point x="33" y="290" type="line"/>
      <point x="141" y="293"/>
      <point x="254" y="330"/>
      <point x="254" y="419" type="curve" smooth="yes"/>
      <point x="254" y="459"/>
      <point x="224" y="482"/>
      <point x="177" y="497" type="curve"/>
      <point x="177" y="499" type="line"/>
      <point x="210" y="513"/>
      <point x="239" y="539"/>
      <point x="239" y="571" type="curve" smooth="yes"/>
      <point x="239" y="614"/>
      <point x="199" y="638"/>
      <point x="127" y="638" type="curve" smooth="yes"/>
    </contour>
    <component base="fraction" xOffset="199"/>
  </outline>
</glyph>
<glyph name="AE" format="1">
  <advance width="808"/>
  <unicode hex="00C6"/>
  <outline>
    <contour>
      <point x="657" y="626"/>
      <point x="613" y="625"/>
      <point x="550" y="625" type="curve" smooth="yes"/>
      <point x="394" y="625" type="line" smooth="yes"/>
      <point x="353" y="625"/>
      <point x="312" y="625"/>
      <point x="247" y="627" type="curve"/>
      <point x="247" y="583" type="line"/>
      <point x="317" y="581"/>
      <point x="330" y="558"/>
      <point x="299" y="502" type="curve"/>
      <point x="85" y="80" type="line" smooth="yes"/>
      <point x="75" y="61"/>
      <point x="52" y="40"/>
      <point x="25" y="40" type="curve"/>
      <point x="25" y="-3" type="line"/>
      <point x="103" y="4"/>
      <point x="122" y="4"/>
      <point x="213" y="-3" type="curve"/>
      <point x="213" y="40" type="line"/>
      <point x="134" y="43"/>
      <point x="135" y="67"/>
      <point x="155" y="103" type="curve" smooth="yes"/>
      <point x="201" y="191" type="line"/>
      <point x="368" y="191" type="line"/>
      <point x="368" y="132" type="line" smooth="yes"/>
      <point x="368" y="66"/>
      <point x="360" y="43"/>
      <point x="291" y="40" type="curve"/>
      <point x="291" y="-3" type="line"/>
      <point x="355" y="0"/>
      <point x="396" y="0"/>
      <point x="437" y="0" type="curve" smooth="yes"/>
      <point x="542" y="0" type="line" smooth="yes"/>
      <point x="604" y="0"/>
      <point x="655" y="-1"/>
      <point x="733" y="-7" type="curve"/>
      <point x="770" y="186" type="line"/>
      <point x="725" y="186" type="line"/>
      <point x="703" y="107"/>
      <point x="657" y="48"/>
      <point x="546" y="48" type="curve" smooth="yes"/>
      <point x="486" y="48" type="line"/>
      <point x="486" y="267" type="line"/>
      <point x="505" y="267" type="line" smooth="yes"/>
      <point x="557" y="267"/>
      <point x="594" y="251"/>
      <point x="597" y="184" type="curve"/>
      <point x="640" y="184" type="line"/>
      <point x="631" y="275"/>
      <point x="631" y="314"/>
      <point x="640" y="403" type="curve"/>
      <point x="597" y="403" type="line"/>
      <point x="594" y="331"/>
      <point x="557" y="315"/>
      <point x="505" y="315" type="curve" smooth="yes"/>
      <point x="486" y="315" type="line"/>
      <point x="486" y="577" type="line"/>
      <point x="550" y="577" type="line" smooth="yes"/>
      <point x="658" y="577"/>
      <point x="683" y="525"/>
      <point x="701" y="452" type="curve"/>
      <point x="748" y="452" type="line"/>
      <point x="737" y="631" type="line"/>
    </contour>
    <contour>
      <point x="368" y="239" type="line"/>
      <point x="225" y="239" type="line"/>
      <point x="334" y="446" type="line"/>
      <point x="368" y="525" type="line"/>
    </contour>
    <contour>
      <point x="542" y="622" type="move" name="top"/>
    </contour>
  </outline>
</glyph>
<glyph name="Eth" format="1">
  <advance width="658"/>
  <unicode hex="00D0"/>
  <outline>
    <contour>
      <point x="48" y="292" type="line"/>
      <point x="351" y="292" type="line"/>
      <point x="351" y="350" type="line"/>
      <point x="48" y="350" type="line"/>
    </contour>
    <component base="D"/>
  </outline>
</glyph>
<glyph name="multiply" format="1">
  <advance width="478"/>
  <unicode hex="00D7"/>
  <outline>
    <contour>
      <point x="218" y="358" type="line"/>
      <point x="115" y="462" type="line"/>
      <point x="69" y="416" type="line"/>
      <point x="173" y="312" type="line"/>
      <point x="69" y="208" type="line"/>
      <point x="115" y="163" type="line"/>
      <point x="218" y="267" type="line"/>
      <point x="322" y="163" type="line"/>
      <point x="367" y="208" type="line"/>
      <point x="264" y="312" type="line"/>
      <point x="367" y="416" type="line"/>
      <point x="322" y="462" type="line"/>
    </contour>
  </outline>
</glyph>
<glyph name="Oslash" format="1">
  <advance width="590"/>
  <unicode hex="00D8"/>
  <outline>
    <contour>
      <point x="162" y="75" type="line"/>
      <point x="478" y="514" type="line"/>
      <point x="435" y="553" type="line"/>
      <point x="124" y="120" type="line"/>
    </contour>
    <contour>
      <point x="121" y="121" type="line"/>
      <point x="45" y="17" type="line"/>
      <point x="92" y="-16" type="line"/>
      <point x="158" y="75" type="line"/>
    </contour>
    <contour>
      <point x="477" y="515" type="line"/>
      <point x="546" y="610" type="line"/>
      <point x="499" y="643" type="line"/>
      <point x="434" y="554" type="line"/>
    </contour>
    <component base="O"/>
  </outline>
</glyph>
<glyph name="Thorn" format="1">
  <advance width="567"/>
  <unicode hex="00DE"/>
  <outline>
    <contour>
      <point x="201" y="618"/>
      <point x="167" y="618"/>
      <point x="48" y="627" type="curve"/>
      <point x="48" y="583" type="line"/>
      <point x="117" y="581"/>
      <point x="126" y="558"/>
      <point x="126" y="491" type="curve"/>
      <point x="126" y="132" type="line"/>
      <point x="126" y="66"/>
      <point x="117" y="43"/>
      <point x="48" y="40" type="curve"/>
      <point x="48" y="-3" type="line"/>
      <point x="167" y="4"/>
      <point x="201" y="4"/>
      <point x="339" y="-3" type="curve"/>
      <point x="339" y="40" type="line"/>
      <point x="251" y="43"/>
      <point x="243" y="66"/>
      <point x="243" y="132" type="curve" smooth="yes"/>
      <point x="243" y="470" type="line"/>
      <point x="266" y="470" type="line" smooth="yes"/>
      <point x="371" y="470"/>
      <point x="411" y="410"/>
      <point x="411" y="327" type="curve" smooth="yes"/>
      <point x="411" y="247"/>
      <point x="359" y="183"/>
      <point x="274" y="183" type="curve" smooth="yes"/>
      <point x="244" y="183"/>
      <point x="219" y="186"/>
      <point x="186" y="190" type="curve"/>
      <point x="168" y="143" type="line"/>
      <point x="203" y="136"/>
      <point x="239" y="134"/>
      <point x="274" y="134" type="curve" smooth="yes"/>
      <point x="447" y="134"/>
      <point x="535" y="207"/>
      <point x="535" y="339" type="curve" smooth="yes"/>
      <point x="535" y="447"/>
      <point x="452" y="523"/>
      <point x="280" y="523" type="curve" smooth="yes"/>
      <point x="267" y="523"/>
      <point x="255" y="523"/>
      <point x="243" y="523" type="curve"/>
      <point x="243" y="526" type="line"/>
      <point x="243" y="565"/>
      <point x="264" y="581"/>
      <point x="322" y="583" type="curve"/>
      <point x="322" y="627" type="line"/>
    </contour>
    <contour>
      <point x="-184" y="622" type="move" name="top"/>
    </contour>
  </outline>
</glyph>
<glyph name="germandbls" format="1">
  <advance width="573"/>
  <unicode hex="00DF"/>
  <outline>
    <contour>
      <point x="138" y="658"/>
      <point x="81" y="581"/>
      <point x="81" y="495" type="curve" smooth="yes"/>
      <point x="81" y="123" type="line" smooth="yes"/>
      <point x="81" y="61"/>
      <point x="79" y="40"/>
      <point x="6" y="37" type="curve"/>
      <point x="6" y="-3" type="line"/>
      <point x="63" y="-1"/>
      <point x="107" y="0"/>
      <point x="189" y="0" type="curve"/>
      <point x="189" y="505" type="line" smooth="yes"/>
      <point x="189" y="587"/>
      <point x="220" y="611"/>
      <point x="266" y="611" type="curve" smooth="yes"/>
      <point x="305" y="611"/>
      <point x="338" y="586"/>
      <point x="338" y="534" type="curve" smooth="yes"/>
      <point x="338" y="507"/>
      <point x="329" y="489"/>
      <point x="317" y="475" type="curve" smooth="yes"/>
      <point x="291" y="442"/>
      <point x="250" y="421"/>
      <point x="250" y="346" type="curve" smooth="yes"/>
      <point x="250" y="254"/>
      <point x="304" y="222"/>
      <point x="356" y="200" type="curve" smooth="yes"/>
      <point x="404" y="180"/>
      <point x="454" y="159"/>
      <point x="454" y="99" type="curve" smooth="yes"/>
      <point x="454" y="56"/>
      <point x="425" y="28"/>
      <point x="385" y="28" type="curve" smooth="yes"/>
      <point x="331" y="28"/>
      <point x="302" y="73"/>
      <point x="288" y="150" type="curve"/>
      <point x="288" y="150"/>
      <point x="240" y="150"/>
      <point x="240" y="150" type="curve"/>
      <point x="246" y="100"/>
      <point x="246" y="60"/>
      <point x="246" y="15" type="curve"/>
      <point x="291" y="-4"/>
      <point x="327" y="-15"/>
      <point x="374" y="-15" type="curve" smooth="yes"/>
      <point x="466" y="-15"/>
      <point x="555" y="24"/>
      <point x="555" y="134" type="curve" smooth="yes"/>
      <point x="555" y="224"/>
      <point x="499" y="256"/>
      <point x="446" y="278" type="curve" smooth="yes"/>
      <point x="397" y="298"/>
      <point x="348" y="318"/>
      <point x="348" y="377" type="curve" smooth="yes"/>
      <point x="348" y="411"/>
      <point x="371" y="431"/>
      <point x="392" y="454" type="curve" smooth="yes"/>
      <point x="413" y="476"/>
      <point x="433" y="501"/>
      <point x="433" y="546" type="curve" smooth="yes"/>
      <point x="433" y="601"/>
      <point x="386" y="658"/>
      <point x="260" y="658" type="curve" smooth="yes"/>
    </contour>
  </outline>
</glyph>
<glyph name="ae" format="1">
  <advance width="666"/>
  <unicode hex="00E6"/>
  <outline>
    <contour>
      <point x="390" y="485"/>
      <point x="278" y="397"/>
      <point x="278" y="210" type="curve" smooth="yes"/>
      <point x="278" y="63"/>
      <point x="347" y="-16"/>
      <point x="458" y="-16" type="curve" smooth="yes"/>
      <point x="535" y="-16"/>
      <point x="604" y="19"/>
      <point x="649" y="96" type="curve"/>
      <point x="649" y="96"/>
      <point x="618" y="116"/>
      <point x="618" y="116" type="curve"/>
      <point x="578" y="75"/>
      <point x="533" y="56"/>
      <point x="489" y="56" type="curve" smooth="yes"/>
      <point x="425" y="56"/>
      <point x="392" y="115"/>
      <point x="392" y="228" type="curve" smooth="yes"/>
      <point x="392" y="371"/>
      <point x="420" y="443"/>
      <point x="473" y="443" type="curve" smooth="yes"/>
      <point x="517" y="443"/>
      <point x="526" y="363"/>
      <point x="526" y="272" type="curve"/>
      <point x="342" y="272" type="line"/>
      <point x="334" y="227" type="line"/>
      <point x="642" y="227" type="line"/>
      <point x="642" y="366"/>
      <point x="641" y="485"/>
      <point x="491" y="485" type="curve" smooth="yes"/>
    </contour>
    <contour>
      <point x="172" y="485"/>
      <point x="123" y="471"/>
      <point x="76" y="451" type="curve"/>
      <point x="76" y="305" type="line"/>
      <point x="134" y="305" type="line"/>
      <point x="134" y="394"/>
      <point x="155" y="443"/>
      <point x="206" y="443" type="curve" smooth="yes"/>
      <point x="258" y="443"/>
      <point x="279" y="415"/>
      <point x="279" y="348" type="curve" smooth="yes"/>
      <point x="279" y="271" type="line"/>
      <point x="121" y="271"/>
      <point x="30" y="222"/>
      <point x="30" y="115" type="curve" smooth="yes"/>
      <point x="30" y="31"/>
      <point x="73" y="-15"/>
      <point x="155" y="-15" type="curve" smooth="yes"/>
      <point x="213" y="-15"/>
      <point x="280" y="32"/>
      <point x="299" y="119" type="curve"/>
      <point x="279" y="144" type="line"/>
      <point x="264" y="91"/>
      <point x="231" y="60"/>
      <point x="190" y="60" type="curve" smooth="yes"/>
      <point x="155" y="60"/>
      <point x="138" y="88"/>
      <point x="138" y="129" type="curve" smooth="yes"/>
      <point x="138" y="183"/>
      <point x="167" y="228"/>
      <point x="278" y="228" type="curve"/>
      <point x="278" y="129" type="line"/>
      <point x="386" y="129" type="line"/>
      <point x="386" y="339" type="line" smooth="yes"/>
      <point x="386" y="438"/>
      <point x="311" y="485"/>
      <point x="226" y="485" type="curve" smooth="yes"/>
    </contour>
    <contour>
      <point x="483" y="497" type="move" name="top"/>
    </contour>
  </outline>
</glyph>
<glyph name="eth" format="1">
  <advance width="455"/>
  <unicode hex="00F0"/>
  <outline>
    <contour>
      <point x="156" y="502" type="line"/>
      <point x="188" y="466" type="line"/>
      <point x="363" y="605" type="line"/>
      <point x="331" y="642" type="line"/>
    </contour>
    <component base="partialdiff"/>
  </outline>
</glyph>
<glyph name="divide" format="1">
  <advance width="478"/>
  <unicode hex="00F7"/>
  <outline>
    <contour>
      <point x="206" y="482"/>
      <point x="186" y="462"/>
      <point x="186" y="430" type="curve" smooth="yes"/>
      <point x="186" y="396"/>
      <point x="206" y="379"/>
      <point x="236" y="379" type="curve" smooth="yes"/>
      <point x="272" y="379"/>
      <point x="293" y="396"/>
      <point x="293" y="430" type="curve" smooth="yes"/>
      <point x="293" y="462"/>
      <point x="272" y="482"/>
      <point x="236" y="482" type="curve" smooth="yes"/>
    </contour>
    <contour>
      <point x="206" y="256"/>
      <point x="186" y="235"/>
      <point x="186" y="202" type="curve" smooth="yes"/>
      <point x="186" y="170"/>
      <point x="206" y="153"/>
      <point x="236" y="153" type="curve" smooth="yes"/>
      <point x="272" y="153"/>
      <point x="293" y="170"/>
      <point x="293" y="202" type="curve" smooth="yes"/>
      <point x="293" y="235"/>
      <point x="272" y="256"/>
      <point x="236" y="256" type="curve" smooth="yes"/>
    </contour>
    <component base="minus"/>
  </outline>
</glyph>
<glyph name="oslash" format="1">
  <advance width="462"/>
  <unicode hex="00F8"/>
  <outline>
    <contour>
      <point x="32" y="5" type="line"/>
      <point x="71" y="-21" type="line"/>
      <point x="435" y="462" type="line"/>
      <point x="396" y="488" type="line"/>
    </contour>
    <component base="o"/>
  </outline>
</glyph>
<glyph name="thorn" format="1">
  <advance width="521"/>
  <unicode hex="00FE"/>
  <outline>
    <contour>
      <point x="18" y="627" type="line"/>
      <point x="18" y="589" type="line"/>
      <point x="91" y="586"/>
      <point x="93" y="565"/>
      <point x="93" y="510" type="curve" smooth="yes"/>
      <point x="93" y="-73" type="line" smooth="yes"/>
      <point x="93" y="-135"/>
      <point x="91" y="-156"/>
      <point x="18" y="-159" type="curve"/>
      <point x="18" y="-199" type="line"/>
      <point x="136" y="-194"/>
      <point x="168" y="-194"/>
      <point x="291" y="-199" type="curve"/>
      <point x="291" y="-159" type="line"/>
      <point x="203" y="-156"/>
      <point x="201" y="-135"/>
      <point x="201" y="-73" type="curve" smooth="yes"/>
      <point x="201" y="-5" type="line"/>
      <point x="224" y="-7"/>
      <point x="246" y="-9"/>
      <point x="266" y="-9" type="curve" smooth="yes"/>
      <point x="411" y="-9"/>
      <point x="494" y="103"/>
      <point x="494" y="271" type="curve" smooth="yes"/>
      <point x="494" y="398"/>
      <point x="438" y="485"/>
      <point x="322" y="485" type="curve" smooth="yes"/>
      <point x="275" y="485"/>
      <point x="232" y="461"/>
      <point x="201" y="415" type="curve"/>
      <point x="201" y="649" type="line"/>
      <point x="178" y="658" type="line"/>
    </contour>
    <contour>
      <point x="348" y="420"/>
      <point x="378" y="356"/>
      <point x="378" y="247" type="curve" smooth="yes"/>
      <point x="378" y="127"/>
      <point x="353" y="33"/>
      <point x="282" y="33" type="curve" smooth="yes"/>
      <point x="242" y="33"/>
      <point x="201" y="52"/>
      <point x="201" y="102" type="curve" smooth="yes"/>
      <point x="201" y="317" type="line"/>
      <point x="220" y="384"/>
      <point x="251" y="420"/>
      <point x="291" y="420" type="curve" smooth="yes"/>
    </contour>
  </outline>
</glyph>
<glyph name="dotlessi" format="1">
  <advance width="300"/>
  <unicode hex="0131"/>
  <outline>
    <contour>
      <point x="18" y="452" type="line"/>
      <point x="18" y="416" type="line"/>
      <point x="91" y="414"/>
      <point x="93" y="392"/>
      <point x="93" y="338" type="curve"/>
      <point x="93" y="123" type="line"/>
      <point x="93" y="61"/>
      <point x="91" y="40"/>
      <point x="18" y="37" type="curve"/>
      <point x="18" y="-3" type="line"/>
      <point x="138" y="3"/>
      <point x="156" y="3"/>
      <point x="276" y="-3" type="curve"/>
      <point x="276" y="37" type="line"/>
      <point x="203" y="40"/>
      <point x="201" y="61"/>
      <point x="201" y="123" type="curve"/>
      <point x="201" y="474" type="line"/>
      <point x="178" y="483" type="line"/>
    </contour>
    <contour>
      <point x="146" y="497" type="move" name="top"/>
    </contour>
  </outline>
</glyph>
<glyph name="Lslash" format="1">
  <advance width="534"/>
  <unicode hex="0141"/>
  <outline>
    <contour>
      <point x="168" y="251" type="line"/>
      <point x="351" y="336" type="line"/>
      <point x="326" y="387" type="line"/>
      <point x="163" y="311" type="line"/>
    </contour>
    <contour>
      <point x="163" y="315" type="line"/>
      <point x="63" y="268" type="line"/>
      <point x="87" y="216" type="line"/>
      <point x="168" y="255" type="line"/>
    </contour>
    <component base="L"/>
  </outline>
</glyph>
<glyph name="lslash" format="1">
  <advance width="332"/>
  <unicode hex="0142"/>
  <outline>
    <contour>
      <point x="167" y="332" type="line"/>
      <point x="163" y="270" type="line"/>
      <point x="296" y="335" type="line"/>
      <point x="272" y="384" type="line"/>
    </contour>
    <contour>
      <point x="37" y="276" type="line"/>
      <point x="61" y="226" type="line"/>
      <point x="163" y="276" type="line"/>
      <point x="167" y="339" type="line"/>
    </contour>
    <component base="l" xOffset="12"/>
  </outline>
</glyph>
<glyph name="OE" format="1">
  <advance width="868"/>
  <unicode hex="0152"/>
  <outline>
    <contour>
      <point x="156" y="638"/>
      <point x="36" y="526"/>
      <point x="36" y="282" type="curve" smooth="yes"/>
      <point x="36" y="93"/>
      <point x="121" y="-15"/>
      <point x="282" y="-15" type="curve" smooth="yes"/>
      <point x="446" y="-15"/>
      <point x="530" y="136"/>
      <point x="530" y="346" type="curve" smooth="yes"/>
      <point x="530" y="501"/>
      <point x="458" y="638"/>
      <point x="308" y="638" type="curve" smooth="yes"/>
    </contour>
    <contour>
      <point x="386" y="587"/>
      <point x="430" y="477"/>
      <point x="430" y="331" type="curve" smooth="yes"/>
      <point x="430" y="136"/>
      <point x="389" y="37"/>
      <point x="315" y="37" type="curve" smooth="yes"/>
      <point x="212" y="37"/>
      <point x="162" y="152"/>
      <point x="162" y="298" type="curve" smooth="yes"/>
      <point x="162" y="493"/>
      <point x="194" y="587"/>
      <point x="282" y="587" type="curve" smooth="yes"/>
    </contour>
    <contour>
      <point x="657" y="420" type="line"/>
      <point x="654" y="348"/>
      <point x="616" y="331"/>
      <point x="565" y="331" type="curve" smooth="yes"/>
      <point x="487" y="331" type="line"/>
      <point x="487" y="283" type="line"/>
      <point x="565" y="283" type="line" smooth="yes"/>
      <point x="616" y="283"/>
      <point x="654" y="268"/>
      <point x="657" y="201" type="curve"/>
      <point x="700" y="201" type="line"/>
      <point x="691" y="292"/>
      <point x="691" y="330"/>
      <point x="700" y="420" type="curve"/>
    </contour>
    <contour>
      <point x="717" y="626"/>
      <point x="673" y="625"/>
      <point x="610" y="625" type="curve" smooth="yes"/>
      <point x="452" y="625" type="line"/>
      <point x="452" y="0" type="line"/>
      <point x="602" y="0" type="line" smooth="yes"/>
      <point x="664" y="0"/>
      <point x="715" y="-1"/>
      <point x="793" y="-7" type="curve"/>
      <point x="830" y="186" type="line"/>
      <point x="785" y="186" type="line"/>
      <point x="763" y="107"/>
      <point x="717" y="48"/>
      <point x="606" y="48" type="curve" smooth="yes"/>
      <point x="546" y="48" type="line"/>
      <point x="546" y="577" type="line"/>
      <point x="610" y="577" type="line" smooth="yes"/>
      <point x="718" y="577"/>
      <point x="742" y="525"/>
      <point x="761" y="452" type="curve"/>
      <point x="808" y="452" type="line"/>
      <point x="797" y="631" type="line"/>
    </contour>
    <contour>
      <point x="294" y="622" type="move" name="top"/>
    </contour>
  </outline>
</glyph>
<glyph name="oe" format="1">
  <advance width="705"/>
  <unicode hex="0153"/>
  <outline>
    <contour>
      <point x="122" y="485"/>
      <point x="27" y="398"/>
      <point x="27" y="212" type="curve" smooth="yes"/>
      <point x="27" y="68"/>
      <point x="95" y="-15"/>
      <point x="218" y="-15" type="curve" smooth="yes"/>
      <point x="334" y="-15"/>
      <point x="430" y="103"/>
      <point x="430" y="260" type="curve" smooth="yes"/>
      <point x="430" y="377"/>
      <point x="362" y="485"/>
      <point x="238" y="485" type="curve" smooth="yes"/>
    </contour>
    <contour>
      <point x="284" y="440"/>
      <point x="315" y="359"/>
      <point x="315" y="250" type="curve" smooth="yes"/>
      <point x="315" y="103"/>
      <point x="286" y="29"/>
      <point x="240" y="29" type="curve" smooth="yes"/>
      <point x="176" y="29"/>
      <point x="141" y="115"/>
      <point x="141" y="224" type="curve" smooth="yes"/>
      <point x="141" y="371"/>
      <point x="165" y="440"/>
      <point x="220" y="440" type="curve" smooth="yes"/>
    </contour>
    <contour>
      <point x="416" y="485"/>
      <point x="316" y="378"/>
      <point x="316" y="210" type="curve" smooth="yes"/>
      <point x="316" y="93"/>
      <point x="385" y="-16"/>
      <point x="497" y="-16" type="curve" smooth="yes"/>
      <point x="573" y="-16"/>
      <point x="642" y="19"/>
      <point x="686" y="96" type="curve"/>
      <point x="686" y="96"/>
      <point x="657" y="116"/>
      <point x="657" y="116" type="curve"/>
      <point x="616" y="75"/>
      <point x="570" y="56"/>
      <point x="527" y="56" type="curve" smooth="yes"/>
      <point x="463" y="56"/>
      <point x="431" y="115"/>
      <point x="431" y="228" type="curve" smooth="yes"/>
      <point x="431" y="371"/>
      <point x="458" y="443"/>
      <point x="511" y="443" type="curve" smooth="yes"/>
      <point x="553" y="443"/>
      <point x="562" y="374"/>
      <point x="565" y="296" type="curve"/>
      <point x="380" y="296" type="line"/>
      <point x="372" y="251" type="line"/>
      <point x="681" y="251" type="line"/>
      <point x="681" y="359"/>
      <point x="679" y="485"/>
      <point x="530" y="485" type="curve" smooth="yes"/>
    </contour>
    <contour>
      <point x="231" y="497" type="move" name="top"/>
    </contour>
  </outline>
</glyph>
<glyph name="florin" format="1">
  <advance width="481"/>
  <unicode hex="0192"/>
  <outline>
    <contour>
      <point x="244" y="640"/>
      <point x="201" y="557"/>
      <point x="191" y="477" type="curve" smooth="yes"/>
      <point x="138" y="56" type="line" smooth="yes"/>
      <point x="129" y="-7"/>
      <point x="116" y="-55"/>
      <point x="79" y="-55" type="curve" smooth="yes"/>
      <point x="42" y="-55"/>
      <point x="36" y="-29"/>
      <point x="42" y="35" type="curve"/>
      <point x="1" y="35" type="line"/>
      <point x="-12" y="-85" type="line"/>
      <point x="18" y="-92"/>
      <point x="39" y="-97"/>
      <point x="85" y="-97" type="curve" smooth="yes"/>
      <point x="198" y="-97"/>
      <point x="236" y="-9"/>
      <point x="247" y="66" type="curve" smooth="yes"/>
      <point x="300" y="487" type="line" smooth="yes"/>
      <point x="308" y="554"/>
      <point x="324" y="598"/>
      <point x="370" y="598" type="curve" smooth="yes"/>
      <point x="409" y="598"/>
      <point x="421" y="571"/>
      <point x="414" y="509" type="curve"/>
      <point x="461" y="509" type="line"/>
      <point x="475" y="628" type="line"/>
      <point x="443" y="635"/>
      <point x="416" y="640"/>
      <point x="367" y="640" type="curve" smooth="yes"/>
    </contour>
    <contour>
      <point x="188" y="452" type="line"/>
      <point x="115" y="435" type="line"/>
      <point x="112" y="407" type="line"/>
      <point x="416" y="407" type="line"/>
      <point x="421" y="452" type="line"/>
    </contour>
  </outline>
</glyph>
<glyph name="circumflex" format="1">
  <advance width="282"/>
  <unicode hex="02C6"/>
  <outline>
    <contour>
      <point x="119" y="717" type="line"/>
      <point x="13" y="569" type="line"/>
      <point x="43" y="542" type="line"/>
      <point x="141" y="637" type="line"/>
      <point x="238" y="542" type="line"/>
      <point x="268" y="569" type="line"/>
      <point x="163" y="717" type="line"/>
    </contour>
    <contour>
      <point x="140" y="517" type="move" name="_top"/>
    </contour>
  </outline>
</glyph>
<glyph name="caron" format="1">
  <advance width="282"/>
  <unicode hex="02C7"/>
  <outline>
    <component base="circumflex" yOffset="1259" yScale="-1"/>
    <contour>
      <point x="140" y="517" type="move" name="_top"/>
    </contour>
  </outline>
</glyph>
<glyph name="breve" format="1">
  <advance width="282"/>
  <unicode hex="02D8"/>
  <outline>
    <contour>
      <point x="210" y="638"/>
      <point x="192" y="611"/>
      <point x="140" y="611" type="curve" smooth="yes"/>
      <point x="88" y="611"/>
      <point x="72" y="638"/>
      <point x="63" y="698" type="curve"/>
      <point x="17" y="690" type="line"/>
      <point x="27" y="591"/>
      <point x="72" y="546"/>
      <point x="140" y="546" type="curve" smooth="yes"/>
      <point x="208" y="546"/>
      <point x="254" y="591"/>
      <point x="263" y="690" type="curve"/>
      <point x="218" y="698" type="line"/>
    </contour>
    <contour>
      <point x="140" y="517" type="move" name="_top"/>
    </contour>
  </outline>
</glyph>
<glyph name="dotaccent" format="1">
  <advance width="282"/>
  <unicode hex="02D9"/>
  <outline>
    <contour>
      <point x="97" y="710"/>
      <point x="75" y="684"/>
      <point x="75" y="642" type="curve" smooth="yes"/>
      <point x="75" y="599"/>
      <point x="97" y="581"/>
      <point x="140" y="581" type="curve" smooth="yes"/>
      <point x="186" y="581"/>
      <point x="207" y="599"/>
      <point x="207" y="642" type="curve" smooth="yes"/>
      <point x="207" y="684"/>
      <point x="186" y="710"/>
      <point x="140" y="710" type="curve" smooth="yes"/>
    </contour>
    <contour>
      <point x="140" y="517" type="move" name="_top"/>
    </contour>
  </outline>
</glyph>
<glyph name="ring" format="1">
  <advance width="282"/>
  <unicode hex="02DA"/>
  <outline>
    <contour>
      <point x="83" y="748"/>
      <point x="45" y="710"/>
      <point x="45" y="652" type="curve" smooth="yes"/>
      <point x="45" y="593"/>
      <point x="83" y="557"/>
      <point x="141" y="557" type="curve" smooth="yes"/>
      <point x="200" y="557"/>
      <point x="236" y="593"/>
      <point x="236" y="652" type="curve" smooth="yes"/>
      <point x="236" y="710"/>
      <point x="200" y="748"/>
      <point x="141" y="748" type="curve" smooth="yes"/>
    </contour>
    <contour>
      <point x="167" y="703"/>
      <point x="184" y="683"/>
      <point x="184" y="652" type="curve" smooth="yes"/>
      <point x="184" y="621"/>
      <point x="167" y="601"/>
      <point x="141" y="601" type="curve" smooth="yes"/>
      <point x="116" y="601"/>
      <point x="98" y="621"/>
      <point x="98" y="652" type="curve" smooth="yes"/>
      <point x="98" y="683"/>
      <point x="116" y="703"/>
      <point x="141" y="703" type="curve" smooth="yes"/>
    </contour>
    <contour>
      <point x="140" y="517" type="move" name="_top"/>
    </contour>
  </outline>
</glyph>
<glyph name="ogonek" format="1">
  <advance width="282"/>
  <unicode hex="02DB"/>
  <outline>
    <contour>
      <point x="138" y="16"/>
      <point x="59" y="-28"/>
      <point x="59" y="-100" type="curve" smooth="yes"/>
      <point x="59" y="-167"/>
      <point x="98" y="-187"/>
      <point x="134" y="-187" type="curve" smooth="yes"/>
      <point x="172" y="-187"/>
      <point x="208" y="-167"/>
      <point x="223" y="-151" type="curve"/>
      <point x="206" y="-120" type="line"/>
      <point x="190" y="-128"/>
      <point x="179" y="-132"/>
      <point x="165" y="-132" type="curve" smooth="yes"/>
      <point x="143" y="-132"/>
      <point x="128" y="-120"/>
      <point x="128" y="-88" type="curve" smooth="yes"/>
      <point x="128" y="-40"/>
      <point x="159" y="-5"/>
      <point x="219" y="-4" type="curve"/>
      <point x="219" y="-4"/>
      <point x="219" y="16"/>
      <point x="219" y="16" type="curve" smooth="yes"/>
    </contour>
  </outline>
</glyph>
<glyph name="tilde" format="1">
  <advance width="282"/>
  <unicode hex="02DC"/>
  <outline>
    <contour>
      <point x="222" y="650"/>
      <point x="208" y="641"/>
      <point x="191" y="641" type="curve" smooth="yes"/>
      <point x="177" y="641"/>
      <point x="164" y="649"/>
      <point x="150" y="655" type="curve"/>
      <point x="132" y="665"/>
      <point x="115" y="674"/>
      <point x="96" y="674" type="curve" smooth="yes"/>
      <point x="54" y="674"/>
      <point x="30" y="646"/>
      <point x="15" y="601" type="curve"/>
      <point x="15" y="601"/>
      <point x="44" y="582"/>
      <point x="44" y="582" type="curve"/>
      <point x="60" y="609"/>
      <point x="73" y="617"/>
      <point x="90" y="617" type="curve" smooth="yes"/>
      <point x="104" y="617"/>
      <point x="117" y="610"/>
      <point x="132" y="603" type="curve"/>
      <point x="148" y="593"/>
      <point x="167" y="583"/>
      <point x="186" y="583" type="curve" smooth="yes"/>
      <point x="227" y="583"/>
      <point x="251" y="613"/>
      <point x="267" y="658" type="curve"/>
      <point x="267" y="658"/>
      <point x="236" y="676"/>
      <point x="236" y="676" type="curve"/>
    </contour>
    <contour>
      <point x="140" y="517" type="move" name="_top"/>
    </contour>
  </outline>
</glyph>
<glyph name="hungarumlaut" format="1">
  <advance width="282"/>
  <unicode hex="02DD"/>
  <outline>
    <contour>
      <point x="134" y="570" type="line"/>
      <point x="174" y="547" type="line"/>
      <point x="282" y="702" type="line"/>
      <point x="204" y="745" type="line"/>
    </contour>
    <contour>
      <point x="0" y="570" type="line"/>
      <point x="40" y="547" type="line"/>
      <point x="148" y="702" type="line"/>
      <point x="71" y="745" type="line"/>
    </contour>
    <contour>
      <point x="140" y="517" type="move" name="_top"/>
    </contour>
  </outline>
</glyph>
<glyph name="uni0900" format="1">
  <advance width="0"/>
  <unicode hex="0900"/>
  <outline>
    <contour>
      <point x="-300" y="770"/>
      <point x="-210" y="861"/>
      <point x="-108" y="861" type="curve" smooth="yes"/>
      <point x="4" y="861"/>
      <point x="96" y="763"/>
      <point x="96" y="640" type="curve"/>
      <point x="72" y="634" type="line"/>
      <point x="72" y="717"/>
      <point x="-8" y="784"/>
      <point x="-108" y="784" type="curve" smooth="yes"/>
      <point x="-198" y="784"/>
      <point x="-275" y="721"/>
      <point x="-299" y="634" type="curve"/>
      <point x="-323" y="646" type="line"/>
    </contour>
    <contour>
      <point x="-60" y="676" type="line"/>
      <point x="-120" y="616" type="line"/>
      <point x="-179" y="682" type="line"/>
      <point x="-114" y="742" type="line"/>
    </contour>
  </outline>
</glyph>
<glyph name="uni0902" format="1">
  <advance width="0"/>
  <unicode hex="0902"/>
  <outline>
    <contour>
      <point x="-179" y="811" type="line"/>
      <point x="-117" y="742" type="line"/>
      <point x="-48" y="804" type="line"/>
      <point x="-110" y="874" type="line"/>
    </contour>
  </outline>
</glyph>
<glyph name="uni0905" format="1">
  <advance width="661"/>
  <unicode hex="0905"/>
  <outline>
    <contour>
      <point x="351" y="598" type="line"/>
      <point x="410" y="514" type="line"/>
      <point x="494" y="514" type="line"/>
      <point x="494" y="362" type="line"/>
      <point x="459" y="339"/>
      <point x="418" y="327"/>
      <point x="368" y="327" type="curve"/>
      <point x="396" y="293" type="line" smooth="yes"/>
      <point x="416" y="270"/>
      <point x="438" y="254"/>
      <point x="459" y="254" type="curve" smooth="yes"/>
      <point x="471" y="254"/>
      <point x="483" y="258"/>
      <point x="494" y="267" type="curve"/>
      <point x="494" y="59" type="line"/>
      <point x="590" y="-1" type="line"/>
      <point x="590" y="514" type="line"/>
      <point x="673" y="514" type="line"/>
      <point x="673" y="598" type="line"/>
    </contour>
    <contour>
      <point x="153" y="597"/>
      <point x="90" y="574"/>
      <point x="39" y="533" type="curve"/>
      <point x="86" y="458" type="line"/>
      <point x="135" y="497"/>
      <point x="194" y="523"/>
      <point x="243" y="523" type="curve" smooth="yes"/>
      <point x="291" y="523"/>
      <point x="319" y="503"/>
      <point x="319" y="464" type="curve" smooth="yes"/>
      <point x="319" y="398"/>
      <point x="235" y="363"/>
      <point x="121" y="363" type="curve"/>
      <point x="192" y="278" type="line"/>
      <point x="240" y="282"/>
      <point x="280" y="293"/>
      <point x="303" y="312" type="curve"/>
      <point x="315" y="298"/>
      <point x="322" y="284"/>
      <point x="322" y="276" type="curve" smooth="yes"/>
      <point x="322" y="223"/>
      <point x="279" y="178"/>
      <point x="226" y="178" type="curve" smooth="yes"/>
      <point x="171" y="178"/>
      <point x="91" y="248"/>
      <point x="37" y="362" type="curve"/>
      <point x="18" y="347" type="line"/>
      <point x="90" y="196" type="line" smooth="yes"/>
      <point x="128" y="115"/>
      <point x="189" y="72"/>
      <point x="238" y="72" type="curve" smooth="yes"/>
      <point x="320" y="72"/>
      <point x="385" y="128"/>
      <point x="385" y="196" type="curve" smooth="yes"/>
      <point x="385" y="238"/>
      <point x="365" y="286"/>
      <point x="328" y="328" type="curve"/>
      <point x="362" y="356"/>
      <point x="383" y="392"/>
      <point x="383" y="419" type="curve" smooth="yes"/>
      <point x="383" y="473"/>
      <point x="279" y="597"/>
      <point x="216" y="597" type="curve" smooth="yes"/>
    </contour>
  </outline>
</glyph>
<glyph name="uni0907" format="1">
  <advance width="385"/>
  <unicode hex="0907"/>
  <outline>
    <contour>
      <point x="-12" y="598" type="line"/>
      <point x="-12" y="514" type="line"/>
      <point x="218" y="514" type="line"/>
      <point x="224" y="501"/>
      <point x="227" y="490"/>
      <point x="227" y="479" type="curve" smooth="yes"/>
      <point x="227" y="458"/>
      <point x="212" y="443"/>
      <point x="175" y="443" type="curve" smooth="yes"/>
      <point x="117" y="443" type="line" smooth="yes"/>
      <point x="73" y="443"/>
      <point x="40" y="423"/>
      <point x="40" y="384" type="curve" smooth="yes"/>
      <point x="40" y="316"/>
      <point x="102" y="239"/>
      <point x="160" y="239" type="curve" smooth="yes"/>
      <point x="228" y="239"/>
      <point x="284" y="282"/>
      <point x="302" y="282" type="curve" smooth="yes"/>
      <point x="311" y="282"/>
      <point x="314" y="276"/>
      <point x="314" y="270" type="curve" smooth="yes"/>
      <point x="314" y="236"/>
      <point x="212" y="191"/>
      <point x="155" y="182" type="curve"/>
      <point x="136" y="202"/>
      <point x="110" y="224"/>
      <point x="83" y="224" type="curve" smooth="yes"/>
      <point x="57" y="224"/>
      <point x="33" y="210"/>
      <point x="33" y="182" type="curve" smooth="yes"/>
      <point x="33" y="120"/>
      <point x="67" y="96"/>
      <point x="116" y="96" type="curve" smooth="yes"/>
      <point x="128" y="96"/>
      <point x="134" y="97"/>
      <point x="147" y="99" type="curve"/>
      <point x="186" y="32"/>
      <point x="206" y="-3"/>
      <point x="247" y="-44" type="curve"/>
      <point x="299" y="5" type="line"/>
      <point x="259" y="37"/>
      <point x="230" y="60"/>
      <point x="200" y="103" type="curve"/>
      <point x="276" y="131"/>
      <point x="353" y="179"/>
      <point x="353" y="236" type="curve" smooth="yes"/>
      <point x="353" y="295"/>
      <point x="328" y="338"/>
      <point x="286" y="338" type="curve" smooth="yes"/>
      <point x="222" y="338"/>
      <point x="160" y="310"/>
      <point x="114" y="310" type="curve" smooth="yes"/>
      <point x="93" y="310"/>
      <point x="84" y="328"/>
      <point x="84" y="342" type="curve" smooth="yes"/>
      <point x="84" y="353"/>
      <point x="93" y="363"/>
      <point x="108" y="365" type="curve"/>
      <point x="247" y="365" type="line" smooth="yes"/>
      <point x="306" y="365"/>
      <point x="322" y="387"/>
      <point x="322" y="420" type="curve" smooth="yes"/>
      <point x="322" y="447"/>
      <point x="311" y="482"/>
      <point x="302" y="514" type="curve"/>
      <point x="397" y="514" type="line"/>
      <point x="397" y="598" type="line"/>
    </contour>
  </outline>
</glyph>
<glyph name="uni0909" format="1">
  <advance width="428"/>
  <unicode hex="0909"/>
  <outline>
    <contour>
      <point x="-12" y="598" type="line"/>
      <point x="-12" y="514" type="line"/>
      <point x="278" y="514" type="line"/>
      <point x="286" y="500"/>
      <point x="290" y="488"/>
      <point x="290" y="471" type="curve" smooth="yes"/>
      <point x="290" y="415"/>
      <point x="222" y="397"/>
      <point x="167" y="397" type="curve" smooth="yes"/>
      <point x="144" y="397"/>
      <point x="126" y="399"/>
      <point x="110" y="403" type="curve"/>
      <point x="162" y="300" type="line"/>
      <point x="172" y="298"/>
      <point x="183" y="298"/>
      <point x="194" y="298" type="curve" smooth="yes"/>
      <point x="224" y="298"/>
      <point x="250" y="305"/>
      <point x="272" y="318" type="curve"/>
      <point x="303" y="290"/>
      <point x="317" y="267"/>
      <point x="317" y="234" type="curve" smooth="yes"/>
      <point x="317" y="184"/>
      <point x="279" y="144"/>
      <point x="236" y="144" type="curve" smooth="yes"/>
      <point x="164" y="144"/>
      <point x="73" y="240"/>
      <point x="28" y="383" type="curve"/>
      <point x="5" y="368" type="line"/>
      <point x="48" y="183"/>
      <point x="167" y="60"/>
      <point x="266" y="60" type="curve" smooth="yes"/>
      <point x="339" y="60"/>
      <point x="397" y="111"/>
      <point x="397" y="174" type="curve" smooth="yes"/>
      <point x="397" y="221"/>
      <point x="370" y="283"/>
      <point x="303" y="341" type="curve"/>
      <point x="340" y="375"/>
      <point x="359" y="420"/>
      <point x="359" y="443" type="curve" smooth="yes"/>
      <point x="359" y="470"/>
      <point x="347" y="487"/>
      <point x="327" y="514" type="curve"/>
      <point x="440" y="514" type="line"/>
      <point x="440" y="598" type="line"/>
    </contour>
  </outline>
</glyph>
<glyph name="uni090A" format="1">
  <advance width="591"/>
  <unicode hex="090A"/>
  <outline>
    <contour>
      <point x="407" y="372"/>
      <point x="362" y="346"/>
      <point x="328" y="311" type="curve"/>
      <point x="320" y="250" type="line"/>
      <point x="382" y="239" type="line"/>
      <point x="411" y="275"/>
      <point x="443" y="302"/>
      <point x="466" y="302" type="curve" smooth="yes"/>
      <point x="490" y="302"/>
      <point x="498" y="287"/>
      <point x="498" y="270" type="curve" smooth="yes"/>
      <point x="498" y="244"/>
      <point x="466" y="190"/>
      <point x="414" y="140" type="curve"/>
      <point x="487" y="76" type="line"/>
      <point x="531" y="119"/>
      <point x="561" y="171"/>
      <point x="561" y="219" type="curve" smooth="yes"/>
      <point x="561" y="290"/>
      <point x="495" y="372"/>
      <point x="437" y="372" type="curve" smooth="yes"/>
    </contour>
    <contour>
      <point x="335" y="598" type="line"/>
      <point x="335" y="514" type="line"/>
      <point x="603" y="514" type="line"/>
      <point x="603" y="598" type="line"/>
    </contour>
    <component base="uni0909"/>
  </outline>
</glyph>
<glyph name="uni090B" format="1">
  <advance width="598"/>
  <unicode hex="090B"/>
  <outline>
    <contour>
      <point x="-12" y="598" type="line"/>
      <point x="-12" y="514" type="line"/>
      <point x="258" y="514" type="line"/>
      <point x="258" y="339" type="line"/>
      <point x="216" y="411"/>
      <point x="176" y="438"/>
      <point x="124" y="438" type="curve" smooth="yes"/>
      <point x="93" y="438"/>
      <point x="59" y="428"/>
      <point x="17" y="413" type="curve"/>
      <point x="63" y="330" type="line"/>
      <point x="98" y="343"/>
      <point x="126" y="351"/>
      <point x="151" y="351" type="curve" smooth="yes"/>
      <point x="182" y="351"/>
      <point x="207" y="339"/>
      <point x="231" y="303" type="curve"/>
      <point x="37" y="226" type="line"/>
      <point x="115" y="167" type="line"/>
      <point x="258" y="227" type="line"/>
      <point x="258" y="60" type="line"/>
      <point x="353" y="0" type="line"/>
      <point x="353" y="251" type="line"/>
      <point x="446" y="296" type="line"/>
      <point x="478" y="258"/>
      <point x="497" y="222"/>
      <point x="497" y="187" type="curve" smooth="yes"/>
      <point x="497" y="155"/>
      <point x="478" y="126"/>
      <point x="433" y="107" type="curve"/>
      <point x="499" y="35" type="line"/>
      <point x="553" y="71"/>
      <point x="570" y="105"/>
      <point x="570" y="150" type="curve" smooth="yes"/>
      <point x="570" y="199"/>
      <point x="545" y="250"/>
      <point x="494" y="315" type="curve"/>
      <point x="522" y="329"/>
      <point x="534" y="355"/>
      <point x="534" y="382" type="curve" smooth="yes"/>
      <point x="534" y="418"/>
      <point x="511" y="451"/>
      <point x="467" y="451" type="curve" smooth="yes"/>
      <point x="416" y="451"/>
      <point x="383" y="427"/>
      <point x="383" y="391" type="curve" smooth="yes"/>
      <point x="383" y="382"/>
      <point x="390" y="371"/>
      <point x="396" y="362" type="curve"/>
      <point x="353" y="341" type="line"/>
      <point x="353" y="514" type="line"/>
      <point x="610" y="514" type="line"/>
      <point x="610" y="598" type="line"/>
    </contour>
  </outline>
</glyph>
<glyph name="uni090C" format="1">
  <advance width="553"/>
  <unicode hex="090C"/>
  <outline>
    <contour>
      <point x="-28" y="598" type="line"/>
      <point x="-28" y="514" type="line"/>
      <point x="329" y="514" type="line"/>
      <point x="329" y="422" type="line"/>
      <point x="304" y="420"/>
      <point x="263" y="401"/>
      <point x="242" y="366" type="curve"/>
      <point x="210" y="404"/>
      <point x="170" y="425"/>
      <point x="126" y="425" type="curve" smooth="yes"/>
      <point x="60" y="425"/>
      <point x="6" y="380"/>
      <point x="6" y="318" type="curve" smooth="yes"/>
      <point x="6" y="224"/>
      <point x="148" y="109"/>
      <point x="222" y="48" type="curve"/>
      <point x="243" y="75" type="line"/>
      <point x="195" y="114"/>
      <point x="158" y="150"/>
      <point x="132" y="182" type="curve"/>
      <point x="110" y="208"/>
      <point x="93" y="248"/>
      <point x="93" y="283" type="curve" smooth="yes"/>
      <point x="93" y="320"/>
      <point x="112" y="351"/>
      <point x="167" y="351" type="curve" smooth="yes"/>
      <point x="182" y="351"/>
      <point x="200" y="347"/>
      <point x="220" y="338" type="curve"/>
      <point x="202" y="310" type="line"/>
      <point x="272" y="243" type="line"/>
      <point x="308" y="320"/>
      <point x="360" y="358"/>
      <point x="394" y="358" type="curve" smooth="yes"/>
      <point x="421" y="358"/>
      <point x="445" y="332"/>
      <point x="445" y="296" type="curve" smooth="yes"/>
      <point x="445" y="255"/>
      <point x="410" y="239"/>
      <point x="366" y="213" type="curve" smooth="yes"/>
      <point x="320" y="186"/>
      <point x="272" y="156"/>
      <point x="272" y="86" type="curve" smooth="yes"/>
      <point x="272" y="1"/>
      <point x="334" y="-60"/>
      <point x="398" y="-60" type="curve" smooth="yes"/>
      <point x="440" y="-60"/>
      <point x="482" y="-48"/>
      <point x="514" y="-21" type="curve"/>
      <point x="462" y="51" type="line"/>
      <point x="420" y="24"/>
      <point x="398" y="12"/>
      <point x="362" y="12" type="curve" smooth="yes"/>
      <point x="339" y="12"/>
      <point x="319" y="29"/>
      <point x="319" y="48" type="curve" smooth="yes"/>
      <point x="319" y="91"/>
      <point x="362" y="103"/>
      <point x="406" y="129" type="curve" smooth="yes"/>
      <point x="452" y="156"/>
      <point x="500" y="189"/>
      <point x="500" y="262" type="curve" smooth="yes"/>
      <point x="500" y="320"/>
      <point x="470" y="358"/>
      <point x="425" y="395" type="curve"/>
      <point x="425" y="514" type="line"/>
      <point x="549" y="514" type="line"/>
      <point x="549" y="598" type="line"/>
    </contour>
  </outline>
</glyph>
<glyph name="uni090F" format="1">
  <advance width="420"/>
  <unicode hex="090F"/>
  <outline>
    <contour>
      <point x="-12" y="598" type="line"/>
      <point x="431" y="598" type="line"/>
      <point x="431" y="514" type="line"/>
      <point x="342" y="514" type="line"/>
      <point x="342" y="251" type="line" smooth="yes"/>
      <point x="342" y="232"/>
      <point x="328" y="215"/>
      <point x="312" y="215" type="curve" smooth="yes"/>
      <point x="274" y="215"/>
      <point x="199" y="295"/>
      <point x="199" y="335" type="curve" smooth="yes"/>
      <point x="199" y="341"/>
      <point x="208" y="347"/>
      <point x="226" y="347" type="curve" smooth="yes"/>
      <point x="247" y="347" type="line"/>
      <point x="247" y="514" type="line"/>
      <point x="139" y="514" type="line"/>
      <point x="139" y="323" type="line" smooth="yes"/>
      <point x="139" y="263"/>
      <point x="159" y="240"/>
      <point x="192" y="216" type="curve" smooth="yes"/>
      <point x="324" y="121" type="line" smooth="yes"/>
      <point x="372" y="86"/>
      <point x="402" y="59"/>
      <point x="402" y="24" type="curve" smooth="yes"/>
      <point x="402" y="-4"/>
      <point x="378" y="-24"/>
      <point x="348" y="-24" type="curve" smooth="yes"/>
      <point x="308" y="-24"/>
      <point x="276" y="-7"/>
      <point x="276" y="12" type="curve" smooth="yes"/>
      <point x="276" y="32"/>
      <point x="318" y="37"/>
      <point x="318" y="72" type="curve" smooth="yes"/>
      <point x="318" y="83"/>
      <point x="305" y="98"/>
      <point x="282" y="114" type="curve" smooth="yes"/>
      <point x="168" y="191" type="line" smooth="yes"/>
      <point x="83" y="252"/>
      <point x="31" y="288"/>
      <point x="31" y="398" type="curve" smooth="yes"/>
      <point x="31" y="514" type="line"/>
      <point x="-12" y="514" type="line"/>
    </contour>
  </outline>
</glyph>
